SplineFontDB: 1.0
FontName: DBThaiText
FullName: DBThaiText
FamilyName: DBThaiText
Weight: Medium
Copyright: Typeface (c) The Monotype Corporation plc. Data (c) The Monotype Corporation plc/Type Solutions Inc. 1990-1992. All Rights Reserved\n\nModified by TLWG
Version: 1.1 : May 12, 2003
ItalicAngle: 0
UnderlinePosition: -477
UnderlineWidth: 84
Ascent: 800
Descent: 200
NeedsXUIDChange: 1
FSType: 0
PfmFamily: 33
TTFWeight: 500
TTFWidth: 5
Panose: 2 0 6 3 0 0 0 0 0 0
LineGap: 184
VLineGap: 0
ScriptLang: 3
 1 DFLT 1 dflt 
 1 thai 1 dflt 
 1 latn 1 dflt 
LangName: 1033 "" "" "" "PfaEdit : DBThaiText : 13-0-2003" 
Encoding: compacted
OldEncoding: iso8859_1
UnicodeInterp: none
DisplaySize: -72
AntiAlias: 1
FitToEm: 1
WinInfo: 0 8 10
BeginPrivate: 10
BlueValues 25 [ -35 0 315 346 437 445 ]
OtherBlues 13 [ -133 -131 ]
BlueScale 7 0.02857
BlueShift 1 7
BlueFuzz 1 1
StdHW 6 [ 31 ]
StdVW 6 [ 38 ]
ForceBold 5 false
StemSnapH 9 [ 31 36 ]
StemSnapV 9 [ 38 42 ]
EndPrivate
TeXData: 1 10485760 0 295936 147968 98645 381440 -1048576 98645 783286 444596 497025 792723 393216 433062 380633 303038 157286 324010 404750 52429 2506097 1059062 262144
BeginChars: 290 257
StartChar: .notdef
Encoding: 0 -1 0
OldEncoding: 0
Width: 532
VWidth: 2048
Flags: HW
HStem: -26 70<109 462> 853 70<38 391>
VStem: 38 71<-26 853> 391 71<44 923>
Fore
38 -26 m 1
 38 923 l 1
 462 923 l 1
 462 -26 l 1
 38 -26 l 1
109 44 m 1
 391 44 l 1
 391 853 l 1
 109 853 l 1
 109 44 l 1
EndSplineSet
EndChar
StartChar: exclam
Encoding: 33 33 3
OldEncoding: 33
Width: 167
Flags: HW
HStem: 0 62<74 125> 417 20<74 125 125 125>
VStem: 74 51<0 62 222 437>
Fore
112 100 m 1
 87 100 l 1
 74 222 l 1
 74 437 l 1
 125 437 l 1
 125 222 l 1
 112 100 l 1
74 62 m 1
 125 62 l 1
 125 0 l 1
 74 0 l 1
 74 62 l 1
EndSplineSet
EndChar
StartChar: quotedbl
Encoding: 34 34 4
OldEncoding: 34
Width: 213
Flags: HW
VStem: 31 57 127 56
Fore
97 370 m 0
 97 343 89 321 73 306 c 0
 56 291 39 283 20 280 c 0
 11 280 6 282 6 285 c 0
 6 286 7 288 9 290 c 1
 18 293 28 299 41 307 c 0
 54 315 61 325 63 338 c 1
 61 337 58 337 55 336 c 0
 52 335 48 334 44 334 c 0
 17 337 4 351 4 376 c 0
 4 388 8 398 15 406 c 0
 22 414 32 418 45 418 c 0
 78 418 96 402 97 370 c 0
207 370 m 0
 207 343 199 321 183 306 c 0
 166 291 149 283 130 280 c 0
 121 280 116 282 116 285 c 0
 116 286 117 288 119 290 c 1
 128 293 138 299 151 307 c 0
 164 315 171 325 173 338 c 1
 171 337 168 337 165 336 c 0
 162 335 158 334 154 334 c 0
 127 337 114 351 114 376 c 0
 114 388 118 398 125 406 c 0
 132 414 142 418 155 418 c 0
 188 418 206 402 207 370 c 0
EndSplineSet
EndChar
StartChar: numbersign
Encoding: 35 35 5
OldEncoding: 35
Width: 334
Flags: HW
HStem: -12 20 114 48<8 68 124 189 245 305> 254 48<31 94 148 214 270 325>
VStem: 8 317
Fore
124 419 m 1
 170 419 l 1
 148 302 l 1
 223 302 l 1
 244 419 l 1
 291 419 l 1
 270 302 l 1
 325 302 l 1
 325 254 l 1
 261 254 l 1
 245 162 l 1
 305 162 l 1
 305 114 l 1
 235 114 l 1
 212 -12 l 1
 167 -12 l 1
 189 114 l 1
 115 114 l 1
 91 -12 l 1
 46 -12 l 1
 68 114 l 1
 8 114 l 1
 8 162 l 1
 77 162 l 1
 94 254 l 1
 31 254 l 1
 31 302 l 1
 102 302 l 1
 124 419 l 1
140 254 m 1
 124 162 l 1
 198 162 l 1
 214 254 l 1
 140 254 l 1
EndSplineSet
EndChar
StartChar: dollar
Encoding: 36 36 6
OldEncoding: 36
Width: 334
Flags: HW
VStem: 146 36<-75 -14 -14 -14 29 185 244 386 430 462> 260 51<101.5 123.5>
Fore
298 312 m 1
 250 312 l 1
 249 334 244 351 233 363 c 1
 222 378 205 386 182 386 c 1
 182 239 l 1
 213 230 237 222 252 215 c 0
 267 209 280 198 293 181 c 0
 305 164 311 142 311 113 c 0
 311 82 301 55 281 33 c 0
 260 10 238 -3 215 -7 c 2
 182 -13 l 1
 182 -75 l 1
 146 -75 l 1
 146 -14 l 1
 122 -9 102 -4 87 1 c 0
 71 7 56 20 42 39 c 0
 27 58 20 87 20 125 c 1
 66 125 l 1
 68 107 71 92 74 81 c 0
 77 70 84 59 95 49 c 0
 106 40 123 33 146 28 c 1
 146 191 l 1
 136 194 125 198 112 202 c 0
 99 206 88 211 78 217 c 0
 67 222 59 229 52 236 c 1
 37 255 29 283 29 322 c 1
 33 357 46 383 67 400 c 0
 88 417 115 427 146 430 c 1
 146 462 l 1
 182 462 l 1
 182 430 l 1
 215 427 243 416 264 398 c 0
 277 387 286 374 291 358 c 0
 296 341 298 326 298 312 c 1
146 244 m 1
 146 387 l 1
 128 386 112 380 98 368 c 0
 84 355 75 340 75 323 c 0
 74 302 81 285 94 271 c 0
 107 257 124 248 146 244 c 1
182 185 m 1
 182 29 l 1
 192 30 203 33 214 38 c 0
 225 42 236 50 246 63 c 0
 255 75 260 91 260 112 c 0
 260 135 253 152 239 161 c 0
 224 171 205 178 182 185 c 1
EndSplineSet
EndChar
StartChar: percent
Encoding: 37 37 7
OldEncoding: 37
Width: 533
Flags: HW
HStem: -12 205<399 422.5> 206 205<106.5 134>
VStem: 17 206<294 322.5> 310 205<76.5 100.5>
Fore
365 425 m 1
 406 425 l 1
 169 -12 l 1
 128 -12 l 1
 365 425 l 1
17 308 m 0
 17 337 27 361 47 381 c 0
 68 401 92 411 120 411 c 0
 149 411 173 401 193 381 c 0
 213 361 223 337 223 308 c 0
 223 280 213 256 192 236 c 0
 172 216 148 206 120 206 c 0
 93 206 69 216 48 236 c 0
 27 256 17 280 17 308 c 0
310 91 m 0
 310 119 320 143 340 163 c 0
 360 183 384 193 413 193 c 0
 432 193 449 188 464 179 c 0
 480 170 492 158 501 142 c 0
 510 127 515 110 515 91 c 0
 515 62 505 38 485 18 c 0
 465 -2 441 -12 413 -12 c 0
 385 -12 361 -2 340 18 c 0
 320 38 310 62 310 91 c 0
59 308 m 0
 59 291 65 277 77 266 c 0
 89 254 103 248 120 248 c 0
 137 248 152 254 164 266 c 0
 175 277 181 291 181 308 c 0
 181 319 178 330 173 339 c 0
 168 348 160 356 151 361 c 0
 142 366 131 369 120 369 c 0
 103 369 89 364 77 352 c 0
 64 339 59 325 59 308 c 0
352 91 m 0
 352 74 358 59 370 48 c 0
 382 36 396 30 413 30 c 0
 430 30 444 36 456 48 c 0
 467 59 473 74 473 91 c 0
 473 108 467 122 455 133 c 0
 443 145 429 151 413 151 c 0
 396 151 382 145 370 133 c 0
 358 122 352 108 352 91 c 0
EndSplineSet
EndChar
StartChar: ampersand
Encoding: 38 38 8
OldEncoding: 38
Width: 400
Flags: HW
HStem: 0 200<316 344 316 316>
VStem: 80 202<324.5 345.5>
Fore
382 0 m 1
 316 0 l 1
 279 44 l 1
 276 42 272 38 265 32 c 0
 258 25 251 20 244 15 c 0
 236 9 228 4 219 -1 c 1
 195 -10 172 -14 151 -14 c 0
 127 -14 106 -9 88 2 c 0
 52 23 32 54 31 97 c 0
 30 125 36 148 47 166 c 0
 58 184 74 201 95 215 c 2
 126 236 l 1
 106 265 l 2
 91 287 80 308 80 332 c 0
 80 363 94 390 123 409 c 0
 141 421 161 426 183 426 c 0
 210 426 233 417 251 400 c 0
 272 380 282 358 282 333 c 0
 282 316 277 300 267 285 c 0
 257 269 245 256 230 247 c 2
 198 227 l 1
 277 130 l 1
 290 156 296 179 296 200 c 1
 344 200 l 1
 344 184 340 166 333 145 c 0
 326 124 318 106 308 91 c 1
 382 0 l 1
226 359 m 0
 223 367 217 373 209 377 c 0
 201 382 191 384 180 384 c 0
 168 384 157 381 148 374 c 0
 139 367 134 358 131 345 c 1
 131 326 133 312 138 304 c 0
 143 296 154 283 170 264 c 1
 183 269 197 277 211 289 c 0
 225 301 232 316 232 333 c 0
 232 342 230 350 226 359 c 0
251 81 m 1
 155 201 l 1
 149 198 142 193 133 187 c 0
 124 181 116 174 109 167 c 0
 102 159 95 149 90 137 c 0
 85 125 82 112 82 98 c 1
 84 85 92 71 105 56 c 0
 118 41 137 34 160 34 c 0
 175 34 189 37 202 43 c 0
 215 48 231 61 251 81 c 1
EndSplineSet
EndChar
StartChar: quotesingle
Encoding: 39 39 9
OldEncoding: 39
Width: 115
Flags: HW
VStem: 136 56
Fore
107 370 m 0
 107 343 99 321 83 306 c 0
 66 291 49 283 30 280 c 0
 21 280 16 282 16 285 c 0
 16 286 17 288 19 290 c 1
 28 293 38 299 51 307 c 0
 64 315 71 325 73 338 c 1
 71 337 68 337 65 336 c 0
 62 335 58 334 54 334 c 0
 27 337 14 351 14 376 c 0
 14 388 18 398 25 406 c 0
 32 414 42 418 55 418 c 0
 88 418 106 402 107 370 c 0
EndSplineSet
EndChar
StartChar: parenleft
Encoding: 40 40 10
OldEncoding: 40
Width: 200
Flags: HW
HStem: 417 20<141 175 175 175>
VStem: 44 50<144 171.5>
Fore
141 437 m 1
 175 437 l 1
 146 388 125 340 113 291 c 0
 100 242 94 196 94 155 c 0
 94 114 100 69 113 20 c 0
 125 -29 146 -79 175 -128 c 1
 141 -128 l 1
 128 -110 115 -89 103 -66 c 0
 91 -44 80 -20 71 6 c 0
 62 32 56 58 51 83 c 0
 46 109 44 133 44 155 c 0
 44 188 49 221 57 255 c 0
 66 290 77 323 92 354 c 0
 107 386 123 414 141 437 c 1
EndSplineSet
EndChar
StartChar: parenright
Encoding: 41 41 11
OldEncoding: 41
Width: 200
Flags: HW
HStem: 417 20<23 56 56 56>
VStem: 104 50<142 165.5>
Fore
23 437 m 1
 56 437 l 1
 75 412 91 385 106 354 c 0
 121 323 132 289 141 254 c 0
 150 219 154 186 154 155 c 0
 154 123 150 90 141 56 c 0
 132 21 121 -12 106 -43 c 0
 91 -74 75 -103 56 -128 c 1
 23 -128 l 1
 43 -95 59 -61 71 -26 c 0
 83 7 92 39 97 70 c 0
 102 101 104 129 104 155 c 0
 104 176 103 196 100 217 c 0
 97 238 93 260 87 284 c 0
 81 307 73 333 62 361 c 0
 50 389 37 414 23 437 c 1
EndSplineSet
EndChar
StartChar: asterisk
Encoding: 42 42 12
OldEncoding: 42
Width: 233
Flags: HW
HStem: 424 20<96 133 133 133>
VStem: 98 35
Fore
24 365 m 1
 35 400 l 1
 98 377 l 1
 96 444 l 1
 133 444 l 1
 131 377 l 1
 193 399 l 1
 206 362 l 1
 141 346 l 1
 181 292 l 1
 152 271 l 1
 115 327 l 1
 76 272 l 1
 47 293 l 1
 88 346 l 1
 24 365 l 1
EndSplineSet
EndChar
StartChar: plus
Encoding: 43 43 13
OldEncoding: 43
Width: 350
Flags: HW
HStem: -6 20 118 42<30 154 196 320>
VStem: 154 42<-6 118 160 284>
Fore
154 284 m 1
 196 284 l 1
 196 160 l 1
 320 160 l 1
 320 118 l 1
 196 118 l 1
 196 -6 l 1
 154 -6 l 1
 154 118 l 1
 30 118 l 1
 30 160 l 1
 154 160 l 1
 154 284 l 1
EndSplineSet
EndChar
StartChar: comma
Encoding: 44 44 14
OldEncoding: 44
Width: 167
Flags: HW
VStem: 34 93<23.5 30>
Fore
127 30 m 0
 127 3 119 -19 103 -34 c 0
 86 -49 69 -57 50 -60 c 0
 41 -60 36 -58 36 -55 c 0
 36 -54 37 -52 39 -50 c 1
 48 -47 58 -41 71 -33 c 0
 84 -25 91 -15 93 -2 c 1
 91 -3 88 -3 85 -4 c 0
 82 -5 78 -6 74 -6 c 0
 47 -3 34 11 34 36 c 0
 34 48 38 58 45 66 c 0
 52 74 62 78 75 78 c 0
 108 78 126 62 127 30 c 0
EndSplineSet
EndChar
StartChar: hyphen
Encoding: 45 45 15
OldEncoding: 45
Width: 200
Flags: HW
HStem: 144 44<28 170>
VStem: 28 142<144 188>
Fore
170 188 m 1
 170 144 l 1
 28 144 l 1
 28 188 l 1
 170 188 l 1
EndSplineSet
EndChar
StartChar: period
Encoding: 46 46 16
OldEncoding: 46
Width: 167
Flags: HW
VStem: 32 86<40.5 49.5>
Fore
32 46 m 0
 32 57 36 67 45 76 c 0
 54 85 64 89 75 89 c 0
 82 89 89 87 96 83 c 0
 103 79 108 74 112 67 c 0
 116 60 118 53 118 46 c 0
 118 35 114 25 105 16 c 0
 97 7 87 3 75 3 c 0
 64 3 54 7 45 16 c 0
 36 25 32 35 32 46 c 0
EndSplineSet
EndChar
StartChar: slash
Encoding: 47 47 17
OldEncoding: 47
Width: 167
Flags: HW
HStem: -13 20
VStem: -5 175
Fore
-5 -13 m 1
 137 425 l 1
 170 425 l 1
 28 -13 l 1
 -5 -13 l 1
EndSplineSet
EndChar
StartChar: zero
Encoding: 48 48 18
OldEncoding: 48
Width: 284
Flags: HW
HStem: -12 20
VStem: 22 236<163.5 186>
Fore
140 -12 m 0
 122 -12 105 -8 89 1 c 0
 72 10 59 24 48 42 c 0
 39 58 32 79 28 104 c 0
 24 129 22 152 22 175 c 0
 22 197 24 221 28 246 c 0
 32 271 39 292 48 309 c 1
 59 326 72 339 89 348 c 0
 105 357 122 361 140 361 c 0
 159 361 176 357 193 348 c 0
 209 339 222 326 232 309 c 0
 249 280 258 235 258 175 c 0
 258 115 249 71 232 42 c 0
 222 24 209 10 192 1 c 0
 175 -8 158 -12 140 -12 c 0
140 30 m 0
 165 30 185 42 198 67 c 0
 201 72 204 80 207 91 c 0
 209 102 211 115 212 130 c 0
 214 145 215 160 215 174 c 0
 215 187 214 202 212 218 c 0
 211 233 209 246 207 257 c 0
 204 268 201 276 198 281 c 0
 185 306 165 318 140 318 c 0
 129 318 118 315 108 309 c 0
 98 303 89 294 82 281 c 0
 78 273 74 258 70 236 c 0
 67 214 65 193 65 174 c 0
 65 155 67 134 70 112 c 0
 73 91 77 76 82 67 c 0
 89 55 97 46 108 40 c 0
 119 33 129 30 140 30 c 0
EndSplineSet
EndChar
StartChar: one
Encoding: 49 49 19
OldEncoding: 49
Width: 284
Flags: HW
HStem: 0 20
VStem: 134 43<0 255 255 255>
Fore
177 0 m 1
 134 0 l 1
 134 255 l 1
 52 255 l 1
 52 290 l 1
 77 293 95 297 106 301 c 0
 117 305 124 311 129 319 c 0
 134 327 140 341 147 361 c 1
 177 361 l 1
 177 0 l 1
EndSplineSet
EndChar
StartChar: two
Encoding: 50 50 20
OldEncoding: 50
Width: 284
Flags: HW
HStem: 0 42<65 258>
VStem: 17 244
Fore
189 148 m 2
 129 117 l 2
 118 111 104 101 89 86 c 0
 73 71 65 57 65 42 c 1
 258 42 l 1
 258 0 l 1
 17 0 l 1
 20 29 24 50 27 64 c 0
 31 77 39 91 52 106 c 0
 64 121 84 137 111 152 c 2
 166 183 l 2
 197 200 214 223 215 250 c 0
 216 265 211 279 204 290 c 0
 197 301 188 309 177 314 c 0
 166 319 154 322 143 322 c 0
 117 321 98 313 87 298 c 0
 76 283 70 263 69 236 c 1
 25 236 l 1
 26 259 30 279 35 296 c 0
 40 312 50 326 67 337 c 1
 79 347 91 353 104 356 c 0
 117 359 133 361 152 361 c 0
 181 360 205 352 224 336 c 0
 242 320 253 300 258 276 c 0
 260 267 261 259 261 253 c 0
 261 231 254 211 239 192 c 0
 224 173 207 157 189 148 c 2
EndSplineSet
EndChar
StartChar: three
Encoding: 51 51 21
OldEncoding: 51
Width: 284
Flags: HW
HStem: -12 20
VStem: 212 46<105 111>
Fore
16 105 m 1
 59 105 l 1
 60 101 61 95 62 86 c 0
 63 78 65 70 69 61 c 0
 73 52 79 45 88 40 c 1
 97 33 109 29 124 29 c 0
 183 28 213 54 212 105 c 0
 212 128 204 143 191 152 c 0
 178 161 159 166 134 166 c 0
 125 166 118 166 113 165 c 1
 113 204 l 1
 145 205 168 209 181 216 c 0
 194 223 202 239 201 264 c 0
 201 287 193 303 180 310 c 0
 167 317 150 321 129 321 c 1
 114 318 102 314 93 308 c 0
 84 302 78 295 75 288 c 0
 71 280 69 272 68 263 c 0
 67 254 67 248 67 244 c 1
 25 245 l 1
 25 282 34 310 53 331 c 0
 72 351 99 361 134 361 c 0
 155 361 174 357 191 350 c 0
 208 343 222 331 232 316 c 0
 242 300 247 281 247 258 c 0
 247 240 243 226 236 217 c 0
 228 207 217 197 204 187 c 1
 225 178 239 166 246 153 c 0
 253 140 258 122 258 100 c 0
 259 77 251 57 240 39 c 0
 228 20 211 6 187 -2 c 0
 169 -8 153 -11 138 -12 c 0
 123 -12 112 -10 105 -9 c 0
 74 -2 53 10 40 30 c 0
 27 50 19 75 16 105 c 1
EndSplineSet
EndChar
StartChar: four
Encoding: 52 52 22
OldEncoding: 52
Width: 284
Flags: HW
HStem: 0 20 85 42<54 170 212 265>
VStem: 170 42<0 85 127 289 289 289>
Fore
170 85 m 1
 14 85 l 1
 14 133 l 1
 179 361 l 1
 212 361 l 1
 212 127 l 1
 265 127 l 1
 265 85 l 1
 212 85 l 1
 212 0 l 1
 170 0 l 1
 170 85 l 1
170 127 m 1
 170 289 l 1
 54 127 l 1
 170 127 l 1
EndSplineSet
EndChar
StartChar: five
Encoding: 53 53 23
OldEncoding: 53
Width: 284
Flags: HW
HStem: -12 20 196 42<129 148.5> 317 44<93 244 93 93>
VStem: 18 244
Fore
70 164 m 1
 29 164 l 1
 57 361 l 1
 244 361 l 1
 244 317 l 1
 93 317 l 1
 78 217 l 1
 95 231 116 238 142 238 c 0
 160 238 176 235 190 230 c 0
 238 212 263 173 262 113 c 0
 261 87 253 65 242 46 c 0
 231 28 216 14 198 4 c 0
 184 -3 167 -8 146 -12 c 1
 128 -12 111 -10 96 -6 c 0
 79 -1 65 7 54 17 c 0
 43 26 36 34 32 43 c 0
 27 52 24 61 22 70 c 0
 20 79 19 85 18 88 c 1
 64 88 l 1
 69 73 77 60 88 48 c 0
 99 37 117 31 144 31 c 1
 185 36 208 58 212 99 c 1
 212 132 206 157 191 173 c 0
 177 188 159 196 138 196 c 0
 112 196 89 185 70 164 c 1
EndSplineSet
EndChar
StartChar: six
Encoding: 54 54 24
OldEncoding: 54
Width: 284
Flags: HW
HStem: -12 39<133 144>
VStem: 22 240
Fore
254 267 m 1
 210 267 l 1
 210 280 206 292 197 301 c 0
 188 310 176 317 161 320 c 1
 123 320 97 304 82 273 c 0
 69 245 63 219 63 196 c 0
 63 191 64 187 65 183 c 1
 73 190 79 196 84 201 c 0
 89 206 94 210 101 213 c 0
 108 217 115 220 122 222 c 0
 129 224 138 225 150 225 c 0
 170 225 188 221 203 213 c 0
 218 205 231 194 240 181 c 0
 249 168 256 154 258 139 c 1
 261 131 262 121 262 110 c 0
 262 99 261 89 258 82 c 1
 255 63 248 47 237 34 c 0
 224 18 211 6 198 -1 c 0
 184 -8 165 -12 142 -12 c 0
 124 -12 107 -8 91 0 c 0
 75 7 63 18 55 31 c 1
 40 51 31 72 27 95 c 0
 24 117 22 147 22 184 c 0
 22 213 26 241 34 266 c 0
 45 299 61 323 83 338 c 0
 104 353 127 361 152 361 c 0
 179 361 202 352 221 335 c 0
 231 326 239 316 244 306 c 0
 249 297 252 284 254 267 c 1
204 59 m 0
 213 71 217 86 217 104 c 0
 217 123 212 142 201 161 c 0
 191 177 172 185 144 185 c 0
 133 185 123 183 113 178 c 0
 102 173 94 167 88 160 c 0
 75 147 69 131 69 110 c 0
 69 91 75 73 86 57 c 0
 100 38 119 27 144 27 c 0
 170 26 190 38 204 59 c 0
EndSplineSet
EndChar
StartChar: seven
Encoding: 55 55 25
OldEncoding: 55
Width: 284
Flags: HW
HStem: 0 20 319 42<24 218>
VStem: 24 241<323 361>
Fore
24 319 m 1
 24 361 l 1
 265 361 l 1
 265 323 l 1
 225 266 l 2
 210 245 195 218 178 185 c 0
 150 131 129 69 118 0 c 1
 70 0 l 1
 81 46 91 80 99 102 c 0
 106 123 119 149 136 181 c 0
 148 202 164 229 183 262 c 0
 202 294 214 313 218 319 c 1
 24 319 l 1
EndSplineSet
EndChar
StartChar: eight
Encoding: 56 56 26
OldEncoding: 56
Width: 284
Flags: HW
HStem: -12 20 170 191<124 137>
VStem: 20 242<91 91>
Fore
70 340 m 0
 89 354 111 361 136 361 c 0
 165 361 192 355 215 340 c 0
 226 333 234 321 240 307 c 0
 246 293 249 279 249 265 c 0
 249 245 244 230 235 220 c 1
 228 210 217 200 203 190 c 1
 214 188 227 178 241 160 c 0
 255 142 262 119 262 91 c 1
 258 59 243 33 217 12 c 1
 193 -4 166 -13 135 -12 c 0
 120 -12 105 -8 90 -3 c 0
 75 2 63 10 52 20 c 0
 31 38 21 62 20 91 c 0
 19 120 26 142 37 155 c 1
 41 164 54 176 77 190 c 1
 68 197 62 201 59 204 c 0
 56 207 52 210 49 214 c 0
 46 218 43 222 40 227 c 0
 35 238 32 251 32 265 c 0
 32 296 45 321 70 340 c 0
183 309 m 0
 173 318 159 322 141 322 c 0
 121 322 106 317 95 307 c 0
 83 297 77 283 77 265 c 0
 77 259 77 251 81 242 c 0
 89 221 107 208 134 208 c 0
 162 207 181 215 192 230 c 0
 200 241 204 253 204 265 c 0
 204 283 197 298 183 309 c 0
200 144 m 0
 185 161 164 171 137 170 c 0
 111 170 91 160 78 143 c 0
 69 131 65 115 65 96 c 0
 67 75 73 61 83 52 c 1
 92 42 109 35 134 30 c 1
 152 31 169 35 184 42 c 1
 205 56 215 75 215 98 c 0
 215 109 214 118 211 125 c 0
 208 133 205 139 200 144 c 0
EndSplineSet
EndChar
StartChar: nine
Encoding: 57 57 27
OldEncoding: 57
Width: 284
Flags: HW
HStem: -12 20
VStem: 20 239
Fore
26 80 m 1
 71 80 l 1
 71 68 76 57 86 48 c 0
 96 39 108 33 122 31 c 1
 159 31 185 45 199 74 c 0
 204 86 208 99 212 114 c 0
 215 128 218 141 218 152 c 0
 218 155 217 160 216 165 c 1
 205 151 192 140 177 132 c 0
 170 128 160 125 149 123 c 1
 133 123 120 124 110 125 c 0
 86 128 67 138 52 154 c 0
 37 169 27 187 22 208 c 0
 21 215 20 225 20 238 c 0
 20 245 21 255 22 268 c 1
 26 287 33 302 44 315 c 0
 58 332 71 344 84 351 c 0
 97 357 115 361 139 361 c 0
 179 362 208 346 227 317 c 0
 243 294 253 259 258 212 c 0
 259 205 259 194 259 179 c 0
 259 164 259 153 258 146 c 0
 257 126 253 105 247 82 c 0
 238 49 220 23 195 8 c 0
 177 -3 157 -9 136 -12 c 1
 117 -12 102 -10 90 -7 c 0
 78 -3 67 3 57 12 c 0
 38 31 28 54 26 80 c 1
77 290 m 0
 68 278 64 262 64 243 c 0
 64 224 69 205 80 187 c 0
 91 170 110 160 137 161 c 0
 149 161 160 165 170 170 c 0
 180 175 188 181 193 188 c 1
 206 201 212 217 212 237 c 0
 212 257 206 275 195 292 c 0
 190 300 182 307 171 312 c 0
 161 317 150 320 138 320 c 0
 111 320 91 310 77 290 c 0
EndSplineSet
EndChar
StartChar: colon
Encoding: 58 58 28
OldEncoding: 58
Width: 167
Flags: HW
HStem: 325 20<81.5 93>
VStem: 44 86<44.5 53.5 296.5 307.5>
Fore
44 50 m 0
 44 61 48 71 57 80 c 0
 66 89 76 93 87 93 c 0
 95 93 102 91 108 87 c 0
 115 84 120 78 124 71 c 0
 128 64 130 57 130 50 c 0
 130 39 126 29 117 20 c 0
 108 11 98 7 87 7 c 0
 76 7 66 11 57 20 c 0
 48 29 44 39 44 50 c 0
44 302 m 0
 44 313 48 324 57 333 c 0
 66 341 76 345 87 345 c 0
 99 345 109 341 118 333 c 1
 126 324 130 313 130 302 c 0
 130 291 126 281 117 272 c 0
 108 263 98 259 87 259 c 0
 76 259 66 263 57 272 c 0
 48 281 44 291 44 302 c 0
EndSplineSet
EndChar
StartChar: semicolon
Encoding: 59 59 29
OldEncoding: 59
Width: 167
Flags: HW
HStem: 321 20<65.5 74.5>
VStem: 28 103
Fore
131 30 m 0
 131 3 123 -19 106 -34 c 0
 90 -49 73 -57 54 -60 c 0
 45 -60 40 -58 40 -55 c 0
 40 -54 41 -52 43 -50 c 1
 52 -47 62 -41 75 -33 c 0
 88 -25 96 -15 97 -2 c 1
 95 -3 92 -3 89 -4 c 0
 85 -5 81 -6 78 -6 c 0
 51 -3 38 11 38 36 c 0
 38 48 42 58 49 66 c 0
 56 74 66 78 79 78 c 0
 112 78 130 62 131 30 c 0
28 298 m 0
 28 309 32 319 41 328 c 0
 50 337 60 341 71 341 c 0
 78 341 85 339 92 335 c 0
 99 331 105 326 108 319 c 0
 112 313 114 306 114 298 c 0
 114 287 110 277 101 268 c 0
 92 259 82 255 71 255 c 0
 60 255 50 259 41 268 c 0
 32 277 28 287 28 298 c 0
EndSplineSet
EndChar
StartChar: less
Encoding: 60 60 30
OldEncoding: 60
Width: 350
Flags: HW
HStem: -6 20
VStem: 27 293
Fore
320 284 m 1
 320 236 l 1
 83 139 l 1
 320 42 l 1
 320 -6 l 1
 27 118 l 1
 27 160 l 1
 320 284 l 1
EndSplineSet
EndChar
StartChar: equal
Encoding: 61 61 31
OldEncoding: 61
Width: 350
Flags: HW
HStem: 67 42<30 320> 169 42<30 320>
VStem: 30 290<67 109 169 211>
Fore
30 211 m 1
 320 211 l 1
 320 169 l 1
 30 169 l 1
 30 211 l 1
30 109 m 1
 320 109 l 1
 320 67 l 1
 30 67 l 1
 30 109 l 1
EndSplineSet
EndChar
StartChar: greater
Encoding: 62 62 32
OldEncoding: 62
Width: 350
Flags: HW
HStem: -6 20
VStem: 30 293
Fore
323 160 m 1
 323 118 l 1
 30 -6 l 1
 30 42 l 1
 265 139 l 1
 30 236 l 1
 30 284 l 1
 323 160 l 1
EndSplineSet
EndChar
StartChar: question
Encoding: 63 63 33
OldEncoding: 63
Width: 334
Flags: HW
HStem: 0 62<144 199> 423 20<164.5 185.5>
VStem: 144 55<0 62 117 145>
Fore
199 117 m 1
 144 117 l 1
 144 153 l 2
 144 170 149 186 160 200 c 0
 171 215 183 228 197 241 c 0
 204 247 209 252 214 257 c 0
 229 272 l 0
 234 278 237 284 240 289 c 0
 247 305 251 319 251 331 c 0
 251 344 248 355 242 365 c 0
 235 375 227 383 216 389 c 0
 205 394 192 397 178 397 c 0
 159 397 143 393 132 386 c 0
 120 379 112 369 107 358 c 0
 102 347 100 336 100 325 c 0
 99 314 99 307 98 302 c 1
 46 302 l 1
 46 328 50 352 59 373 c 0
 67 394 81 410 102 423 c 0
 122 436 148 443 181 443 c 0
 190 443 197 443 202 442 c 0
 228 439 249 431 264 418 c 0
 279 406 290 392 296 376 c 0
 302 360 305 344 305 328 c 0
 305 314 303 301 299 288 c 0
 294 269 272 242 233 207 c 0
 223 198 215 190 209 181 c 0
 202 172 199 160 199 145 c 2
 199 117 l 1
144 0 m 1
 144 62 l 1
 199 62 l 1
 199 0 l 1
 144 0 l 1
EndSplineSet
EndChar
StartChar: at
Encoding: 64 64 34
OldEncoding: 64
Width: 609
Flags: HW
HStem: -88 45<278.5 311> 422 20
VStem: 20 52<149.5 169.5>
Fore
449 299 m 1
 391 119 l 2
 388 110 387 104 387 101 c 0
 387 96 389 90 392 85 c 0
 397 78 408 74 424 74 c 1
 441 78 456 85 469 96 c 0
 482 107 492 118 499 130 c 0
 515 158 523 192 523 232 c 1
 520 248 514 265 505 284 c 0
 496 303 486 318 475 329 c 0
 464 341 445 354 420 367 c 0
 395 380 370 389 344 394 c 0
 332 396 320 397 308 397 c 0
 281 397 255 392 230 382 c 0
 205 372 184 359 165 344 c 0
 143 326 125 305 110 282 c 0
 95 259 85 239 80 222 c 0
 75 203 72 184 72 166 c 0
 72 133 79 101 93 71 c 0
 102 52 118 34 139 17 c 0
 160 -1 184 -17 213 -29 c 0
 238 -39 264 -43 293 -43 c 0
 329 -43 368 -36 411 -22 c 1
 428 -62 l 1
 381 -79 336 -88 292 -88 c 0
 260 -88 228 -83 197 -73 c 0
 174 -65 146 -50 114 -28 c 0
 82 -6 59 19 45 47 c 0
 28 80 20 117 20 158 c 0
 20 181 23 201 28 218 c 0
 37 247 50 277 67 306 c 0
 85 335 109 361 139 383 c 0
 154 394 172 405 192 414 c 0
 213 423 235 430 258 435 c 0
 281 440 305 443 330 442 c 0
 360 441 393 432 430 417 c 0
 466 402 494 381 517 356 c 0
 531 340 545 322 554 300 c 0
 564 277 570 256 570 235 c 0
 571 207 568 185 563 169 c 0
 558 154 551 137 542 120 c 0
 534 105 523 89 509 73 c 0
 495 58 476 45 453 38 c 0
 438 33 423 32 408 32 c 0
 395 32 385 33 379 35 c 0
 368 38 359 44 352 53 c 0
 345 61 341 69 340 77 c 1
 328 65 l 0
 324 60 319 56 312 52 c 0
 305 47 296 43 285 40 c 0
 276 37 265 35 253 35 c 0
 241 35 230 37 220 41 c 0
 203 48 191 57 184 67 c 0
 177 76 170 88 164 102 c 0
 159 115 157 129 157 144 c 0
 157 157 158 168 161 179 c 0
 172 222 194 259 230 285 c 0
 257 305 285 313 312 313 c 0
 320 313 327 312 334 310 c 0
 347 306 358 299 368 289 c 0
 377 278 383 268 386 259 c 1
 399 299 l 1
 449 299 l 1
364 226 m 0
 363 237 360 246 355 252 c 0
 350 258 341 263 328 266 c 0
 323 268 317 269 310 269 c 0
 296 269 282 265 269 257 c 0
 257 249 247 240 239 229 c 0
 231 218 225 204 220 188 c 0
 215 173 212 158 212 144 c 0
 212 126 217 110 228 96 c 0
 239 81 254 73 271 73 c 0
 276 73 281 74 286 75 c 0
 303 80 319 92 332 113 c 1
 341 125 347 142 354 165 c 0
 360 187 364 207 364 226 c 0
EndSplineSet
EndChar
StartChar: A
Encoding: 65 65 35
OldEncoding: 65
Width: 400
Flags: HW
HStem: 0 20 131 47<132 268> 417 20<169 238 238 238>
VStem: 10 382<0 0>
Fore
117 131 m 1
 70 0 l 1
 10 0 l 1
 169 437 l 1
 238 437 l 1
 392 0 l 1
 329 0 l 1
 284 131 l 1
 117 131 l 1
203 369 m 1
 132 178 l 1
 268 178 l 1
 203 369 l 1
EndSplineSet
EndChar
StartChar: B
Encoding: 66 66 36
OldEncoding: 66
Width: 400
Flags: HW
HStem: 0 50<104 245 245 257.5> 200 50<104 214> 388 49<104 104 104 206>
VStem: 47 57<50 200 250 388>
Fore
263 0 m 2
 47 0 l 1
 47 437 l 1
 241 437 l 2
 256 437 272 434 287 427 c 0
 302 420 314 412 325 401 c 0
 341 386 351 366 354 341 c 1
 354 284 336 248 299 232 c 1
 306 229 313 226 320 222 c 0
 327 218 335 212 343 204 c 0
 351 196 359 185 365 171 c 0
 372 156 374 139 374 118 c 0
 373 92 366 70 353 53 c 0
 340 36 325 23 308 14 c 0
 291 5 276 0 263 0 c 2
104 388 m 1
 104 250 l 1
 220 250 l 2
 249 250 270 257 281 271 c 0
 292 286 297 306 297 331 c 1
 294 352 282 367 261 376 c 0
 240 384 221 388 206 388 c 2
 104 388 l 1
104 200 m 1
 104 50 l 1
 245 50 l 2
 270 50 289 58 300 75 c 0
 312 92 318 113 318 138 c 1
 315 163 305 179 288 188 c 0
 271 196 246 200 214 200 c 2
 104 200 l 1
EndSplineSet
EndChar
StartChar: C
Encoding: 67 67 37
OldEncoding: 67
Width: 433
Flags: HW
HStem: -14 51<207.5 232> 425 20<207.5 232>
VStem: 29 57<202 228>
Fore
398 302 m 1
 340 302 l 1
 332 323 323 339 313 352 c 0
 306 361 297 369 287 375 c 0
 276 382 266 387 256 390 c 0
 246 393 235 394 223 394 c 0
 205 394 188 390 171 383 c 0
 154 376 140 366 128 352 c 0
 115 336 104 316 97 292 c 0
 90 267 86 241 86 215 c 0
 86 189 91 164 98 140 c 0
 106 115 115 95 128 79 c 0
 151 51 182 37 223 37 c 0
 261 37 291 51 313 79 c 0
 320 88 327 100 334 115 c 0
 341 130 346 145 349 160 c 1
 406 160 l 1
 397 107 376 64 341 31 c 0
 330 21 314 11 291 1 c 0
 268 -9 244 -14 220 -14 c 0
 195 -14 172 -9 149 1 c 0
 126 10 109 20 98 31 c 0
 74 54 56 82 45 115 c 0
 34 148 29 181 29 215 c 0
 29 250 34 283 45 316 c 0
 56 349 74 377 98 400 c 0
 109 411 126 421 149 430 c 0
 172 439 195 445 220 445 c 0
 244 445 268 439 291 430 c 0
 314 421 330 411 341 400 c 0
 366 377 385 344 398 302 c 1
EndSplineSet
EndChar
StartChar: D
Encoding: 68 68 38
OldEncoding: 68
Width: 433
Flags: HW
HStem: 0 50<110 232 232 239.5> 388 49<110 217 110 110>
VStem: 53 57<50 388> 344 56<217 217>
Fore
253 0 m 2
 53 0 l 1
 53 437 l 1
 222 437 l 2
 269 437 309 421 342 390 c 0
 375 358 394 314 398 259 c 0
 400 239 400 225 400 217 c 0
 400 154 385 103 354 65 c 0
 337 43 319 27 300 17 c 0
 281 6 266 0 253 0 c 2
217 388 m 2
 110 388 l 1
 110 50 l 1
 232 50 l 2
 247 50 262 53 277 59 c 0
 286 63 297 73 309 88 c 0
 322 104 328 117 331 128 c 0
 338 158 343 188 344 217 c 0
 345 267 336 305 320 332 c 0
 297 369 263 388 217 388 c 2
EndSplineSet
EndChar
StartChar: E
Encoding: 69 69 39
OldEncoding: 69
Width: 400
Flags: HW
HStem: 0 50<110 368> 200 50<110 348> 388 49<110 358 110 110>
VStem: 54 56<50 200 250 388>
Fore
54 0 m 1
 54 437 l 1
 358 437 l 1
 358 388 l 1
 110 388 l 1
 110 250 l 1
 348 250 l 1
 348 200 l 1
 110 200 l 1
 110 50 l 1
 368 50 l 1
 368 0 l 1
 54 0 l 1
EndSplineSet
EndChar
StartChar: F
Encoding: 70 70 40
OldEncoding: 70
Width: 367
Flags: HW
HStem: 0 20 200 50<110 318> 388 49<110 347 110 110>
VStem: 54 56<0 200 250 388>
Fore
54 0 m 1
 54 437 l 1
 347 437 l 1
 347 388 l 1
 110 388 l 1
 110 250 l 1
 318 250 l 1
 318 200 l 1
 110 200 l 1
 110 0 l 1
 54 0 l 1
EndSplineSet
EndChar
StartChar: G
Encoding: 71 71 41
OldEncoding: 71
Width: 467
Flags: HW
HStem: -14 49<215.5 240.5> 182 50<242 375> 394 51<228 238>
VStem: 26 57<214 225> 242 183<182 232>
Fore
242 182 m 1
 242 232 l 1
 425 232 l 1
 425 -2 l 1
 389 -2 l 1
 376 52 l 1
 351 30 328 13 308 2 c 0
 288 -9 259 -14 222 -14 c 0
 202 -14 180 -9 157 0 c 0
 134 9 116 18 103 28 c 0
 76 51 57 80 44 113 c 0
 32 146 25 180 26 214 c 0
 26 236 30 258 35 280 c 0
 40 302 48 324 59 345 c 0
 70 366 85 384 103 400 c 0
 116 411 134 421 159 430 c 0
 184 439 210 445 238 445 c 0
 278 446 309 439 331 427 c 0
 364 410 386 391 398 370 c 0
 410 349 417 328 420 305 c 1
 365 305 l 1
 364 326 352 347 329 366 c 0
 306 385 275 394 238 394 c 0
 218 394 198 390 179 383 c 0
 160 376 144 366 131 352 c 0
 116 337 105 317 96 292 c 0
 87 267 83 241 83 214 c 0
 83 188 87 163 96 138 c 0
 105 113 116 93 131 77 c 0
 158 49 193 35 238 35 c 0
 269 35 294 42 314 56 c 0
 330 67 342 78 351 90 c 0
 360 101 366 113 369 125 c 0
 373 136 375 146 375 155 c 0
 375 163 375 172 375 182 c 1
 242 182 l 1
EndSplineSet
EndChar
StartChar: H
Encoding: 72 72 42
OldEncoding: 72
Width: 433
Flags: HW
HStem: 0 20 200 50<106 330> 417 20<50 106 106 106 330 386 386 386>
VStem: 50 56<0 200 250 437> 330 56<0 200 200 200 250 437>
Fore
330 0 m 1
 330 200 l 1
 106 200 l 1
 106 0 l 1
 50 0 l 1
 50 437 l 1
 106 437 l 1
 106 250 l 1
 330 250 l 1
 330 437 l 1
 386 437 l 1
 386 0 l 1
 330 0 l 1
EndSplineSet
EndChar
StartChar: I
Encoding: 73 73 43
OldEncoding: 73
Width: 167
Flags: HW
HStem: 0 20 417 20<60 116 116 116>
VStem: 60 56<0 437>
Fore
60 0 m 1
 60 437 l 1
 116 437 l 1
 116 0 l 1
 60 0 l 1
EndSplineSet
EndChar
StartChar: J
Encoding: 74 74 44
OldEncoding: 74
Width: 300
Flags: HW
HStem: -14 20 417 20<199 256 256 256>
VStem: 10 57<93 95 95 139> 199 57<140 437>
Fore
10 139 m 1
 67 139 l 1
 67 95 l 2
 67 80 71 67 80 57 c 0
 88 47 99 40 112 37 c 0
 119 36 125 35 128 35 c 0
 151 35 170 44 184 61 c 0
 194 73 199 99 199 140 c 2
 199 437 l 1
 256 437 l 1
 256 91 l 1
 250 52 232 22 201 2 c 0
 184 -9 156 -15 116 -14 c 0
 79 -13 52 1 35 24 c 0
 18 48 10 71 10 93 c 2
 10 139 l 1
EndSplineSet
EndChar
StartChar: K
Encoding: 75 75 45
OldEncoding: 75
Width: 400
Flags: HW
HStem: 0 20 417 20<47 104 104 104 321 395 395 395>
VStem: 47 57<0 149 221 437>
Fore
47 437 m 1
 104 437 l 1
 104 221 l 1
 321 437 l 1
 395 437 l 1
 214 259 l 1
 393 0 l 1
 328 0 l 1
 176 220 l 1
 104 149 l 1
 104 0 l 1
 47 0 l 1
 47 437 l 1
EndSplineSet
EndChar
StartChar: L
Encoding: 76 76 46
OldEncoding: 76
Width: 334
Flags: HW
HStem: 0 50<104 320> 417 20<48 104 104 104>
VStem: 48 56<50 437>
Fore
48 437 m 1
 104 437 l 1
 104 50 l 1
 320 50 l 1
 320 0 l 1
 48 0 l 1
 48 437 l 1
EndSplineSet
EndChar
StartChar: M
Encoding: 77 77 47
OldEncoding: 77
Width: 500
Flags: HW
HStem: 0 20 417 20<45 125 125 125 377 457 457 457>
VStem: 45 58<0 355> 399 58<0 355 355 355>
Fore
280 0 m 1
 222 0 l 1
 103 355 l 1
 103 0 l 1
 45 0 l 1
 45 437 l 1
 125 437 l 1
 251 65 l 1
 377 437 l 1
 457 437 l 1
 457 0 l 1
 399 0 l 1
 399 355 l 1
 280 0 l 1
EndSplineSet
EndChar
StartChar: N
Encoding: 78 78 48
OldEncoding: 78
Width: 433
Flags: HW
HStem: 0 20 417 20<46 112 112 112 331 388 388 388>
VStem: 46 56<0 350> 331 57<83 437>
Fore
388 0 m 1
 323 0 l 1
 102 350 l 1
 102 0 l 1
 46 0 l 1
 46 437 l 1
 112 437 l 1
 331 83 l 1
 331 437 l 1
 388 437 l 1
 388 0 l 1
EndSplineSet
EndChar
StartChar: O
Encoding: 79 79 49
OldEncoding: 79
Width: 467
Flags: HW
HStem: -14 51<220.5 247.5> 394 51<224 244.5>
VStem: 23 57<201.5 225.5> 388 57<201.5 228.5>
Fore
234 445 m 0
 261 445 288 439 313 430 c 0
 338 421 357 411 368 400 c 0
 394 377 413 349 426 316 c 0
 439 283 445 250 445 215 c 0
 445 181 439 148 426 115 c 0
 414 82 395 54 368 31 c 0
 357 21 338 11 313 1 c 0
 288 -9 261 -14 234 -14 c 0
 207 -14 181 -9 156 1 c 0
 131 10 113 20 100 31 c 0
 73 54 54 82 42 115 c 0
 29 148 23 181 23 215 c 0
 23 236 26 258 31 281 c 0
 36 304 44 326 56 347 c 0
 67 367 83 385 100 400 c 0
 113 411 131 421 156 430 c 0
 181 439 207 445 234 445 c 0
234 394 m 0
 214 394 195 390 176 383 c 0
 157 376 141 366 128 352 c 0
 113 337 102 317 93 292 c 0
 85 268 80 242 80 215 c 0
 80 188 84 163 93 139 c 0
 101 115 113 95 128 79 c 0
 154 51 189 37 234 37 c 0
 279 37 314 51 340 79 c 0
 355 94 366 114 375 139 c 0
 383 163 388 188 388 215 c 0
 388 242 383 268 375 292 c 0
 366 317 355 337 340 352 c 0
 327 365 312 376 293 383 c 0
 274 390 255 394 234 394 c 0
EndSplineSet
EndChar
StartChar: P
Encoding: 80 80 50
OldEncoding: 80
Width: 400
Flags: HW
HStem: 0 20 185 50<111 254 254 256> 388 49<111 111 111 237>
VStem: 55 56<0 185 235 388>
Fore
55 0 m 1
 55 437 l 1
 238 437 l 2
 271 437 300 429 325 413 c 0
 350 397 364 370 369 331 c 0
 370 326 370 318 370 309 c 0
 370 269 358 238 333 217 c 0
 308 196 283 185 256 185 c 2
 111 185 l 1
 111 0 l 1
 55 0 l 1
111 388 m 1
 111 235 l 1
 254 235 l 2
 265 235 277 242 292 255 c 0
 306 268 314 288 313 316 c 0
 312 343 302 361 286 372 c 0
 271 383 254 388 237 388 c 2
 111 388 l 1
EndSplineSet
EndChar
StartChar: Q
Encoding: 81 81 51
OldEncoding: 81
Width: 467
Flags: HW
HStem: -35 20 -14 51<220.5 234> 394 51<224 244.5>
VStem: 23 57<201.5 225.5> 388 57<206 228.5>
Fore
383 46 m 1
 440 0 l 1
 411 -35 l 1
 349 16 l 1
 312 -3 273 -13 234 -14 c 0
 207 -14 181 -9 156 1 c 0
 131 10 113 20 100 31 c 0
 73 54 54 82 42 115 c 0
 29 148 23 181 23 215 c 0
 23 236 26 258 31 281 c 0
 36 304 44 326 56 347 c 0
 67 367 83 385 100 400 c 0
 113 411 131 421 156 430 c 0
 181 439 207 445 234 445 c 0
 261 445 288 439 313 430 c 0
 338 421 357 411 368 400 c 0
 394 377 413 349 426 316 c 0
 439 283 445 250 445 215 c 0
 445 184 440 153 430 123 c 0
 420 93 404 67 383 46 c 1
304 53 m 1
 260 89 l 1
 287 123 l 1
 342 79 l 1
 351 89 359 101 366 116 c 0
 373 131 379 146 383 163 c 0
 386 180 388 197 388 215 c 0
 388 242 383 268 375 292 c 0
 366 317 355 337 340 352 c 0
 327 365 312 376 293 383 c 0
 274 390 255 394 234 394 c 0
 214 394 195 390 176 383 c 0
 157 376 141 366 128 352 c 0
 113 337 102 317 93 292 c 0
 85 268 80 242 80 215 c 0
 80 188 84 163 93 139 c 0
 101 115 113 95 128 79 c 0
 154 51 189 37 234 37 c 0
 259 37 283 42 304 53 c 1
EndSplineSet
EndChar
StartChar: R
Encoding: 82 82 52
OldEncoding: 82
Width: 433
Flags: HW
HStem: 0 20 188 50<112 253 253 256> 388 49<112 251 251 253 112 112>
VStem: 56 56<0 188 238 388> 327 57
Fore
56 0 m 1
 56 437 l 1
 251 437 l 2
 292 437 326 431 351 416 c 0
 375 402 389 371 391 326 c 0
 392 298 388 277 379 262 c 0
 371 248 355 233 333 216 c 1
 356 202 370 189 375 177 c 0
 380 164 383 140 384 104 c 0
 385 75 386 55 389 43 c 0
 392 31 398 21 407 14 c 1
 407 0 l 1
 340 0 l 1
 334 13 330 32 327 55 c 1
 327 106 l 2
 327 132 322 152 313 167 c 0
 304 181 285 188 256 188 c 2
 112 188 l 1
 112 0 l 1
 56 0 l 1
253 388 m 2
 112 388 l 1
 112 238 l 1
 253 238 l 2
 302 238 329 260 334 304 c 1
 334 360 307 388 253 388 c 2
EndSplineSet
EndChar
StartChar: S
Encoding: 83 83 53
OldEncoding: 83
Width: 400
Flags: HW
HStem: -14 20 397 48<176.5 199.5>
VStem: 314 59
Fore
358 310 m 1
 304 310 l 1
 304 341 291 364 265 380 c 0
 253 387 241 392 230 394 c 0
 219 396 207 397 192 397 c 0
 161 397 138 390 122 375 c 0
 105 360 96 343 96 324 c 0
 96 315 98 306 103 298 c 0
 108 290 115 283 124 277 c 0
 141 267 163 262 190 255 c 0
 252 240 288 229 298 226 c 0
 317 219 335 206 350 187 c 0
 365 168 373 149 373 128 c 0
 374 99 366 73 351 52 c 0
 336 31 315 14 289 3 c 0
 262 -8 233 -14 200 -14 c 0
 167 -13 141 -9 120 -1 c 0
 99 6 78 20 61 41 c 0
 47 58 39 73 35 86 c 0
 32 99 30 117 29 139 c 1
 81 139 l 1
 81 118 87 98 99 78 c 0
 111 57 133 44 166 39 c 0
 175 38 194 37 223 37 c 1
 251 40 272 47 285 58 c 0
 304 74 314 93 314 116 c 0
 314 136 304 153 283 168 c 1
 261 179 230 187 191 196 c 0
 162 202 144 208 137 211 c 0
 129 214 117 218 102 223 c 0
 67 234 48 260 44 303 c 1
 44 330 50 354 61 376 c 0
 72 397 88 414 110 427 c 0
 132 439 159 445 191 445 c 0
 237 445 272 437 297 422 c 0
 338 396 358 359 358 310 c 1
EndSplineSet
EndChar
StartChar: T
Encoding: 84 84 54
OldEncoding: 84
Width: 367
Flags: HW
HStem: 0 20 388 49<13 157 213 213 213 356>
VStem: 157 56<0 388>
Fore
157 0 m 1
 157 388 l 1
 13 388 l 1
 13 437 l 1
 356 437 l 1
 356 388 l 1
 213 388 l 1
 213 0 l 1
 157 0 l 1
EndSplineSet
EndChar
StartChar: U
Encoding: 85 85 55
OldEncoding: 85
Width: 433
Flags: HW
HStem: -14 48<199.5 234.5> 417 20<51 107 107 107 331 387 387 387>
VStem: 51 56<122 125 125 437> 331 56<125 437>
Fore
51 437 m 1
 107 437 l 1
 107 125 l 2
 107 103 116 82 134 63 c 0
 152 44 180 34 219 34 c 0
 258 34 286 44 304 63 c 0
 322 82 331 103 331 125 c 2
 331 437 l 1
 387 437 l 1
 387 122 l 2
 387 109 384 95 379 80 c 0
 374 65 365 50 352 35 c 0
 339 20 321 9 299 0 c 0
 277 -9 250 -14 219 -14 c 0
 179 -14 146 -7 121 8 c 0
 96 23 78 42 67 63 c 0
 56 84 51 103 51 122 c 2
 51 437 l 1
EndSplineSet
EndChar
StartChar: V
Encoding: 86 86 56
OldEncoding: 86
Width: 400
Flags: HW
HStem: 0 20 417 20<18 78 78 78 327 387 387 387>
VStem: 18 369<437 437>
Fore
205 67 m 1
 327 437 l 1
 387 437 l 1
 233 0 l 1
 173 0 l 1
 18 437 l 1
 78 437 l 1
 205 67 l 1
EndSplineSet
EndChar
StartChar: W
Encoding: 87 87 57
OldEncoding: 87
Width: 566
Flags: HW
HStem: 0 20 417 20<13 76 76 76 254 315 315 315 495 557 557 557>
VStem: 13 544<437 437>
Fore
412 85 m 1
 495 437 l 1
 557 437 l 1
 446 0 l 1
 384 0 l 1
 284 356 l 1
 185 0 l 1
 124 0 l 1
 13 437 l 1
 76 437 l 1
 157 85 l 1
 254 437 l 1
 315 437 l 1
 412 85 l 1
EndSplineSet
EndChar
StartChar: X
Encoding: 88 88 58
OldEncoding: 88
Width: 400
Flags: HW
HStem: 0 20 417 20<24 92 92 92 315 383 383 383>
VStem: 13 376<0 0>
Fore
383 437 m 1
 237 224 l 1
 389 0 l 1
 320 0 l 1
 203 178 l 1
 83 0 l 1
 13 0 l 1
 167 224 l 1
 24 437 l 1
 92 437 l 1
 203 270 l 1
 315 437 l 1
 383 437 l 1
EndSplineSet
EndChar
StartChar: Y
Encoding: 89 89 59
OldEncoding: 89
Width: 400
Flags: HW
HStem: 0 20 417 20<8 77 77 77 328 397 397 397>
VStem: 175 57<0 171>
Fore
8 437 m 1
 77 437 l 1
 203 225 l 1
 328 437 l 1
 397 437 l 1
 232 171 l 1
 232 0 l 1
 175 0 l 1
 175 171 l 1
 8 437 l 1
EndSplineSet
EndChar
StartChar: Z
Encoding: 90 90 60
OldEncoding: 90
Width: 367
Flags: HW
HStem: 0 50<88 350> 388 49<35 278>
VStem: 17 333<0 48 48 48>
Fore
35 388 m 1
 35 437 l 1
 349 437 l 1
 349 386 l 1
 88 50 l 1
 350 50 l 1
 350 0 l 1
 17 0 l 1
 17 48 l 1
 278 388 l 1
 35 388 l 1
EndSplineSet
EndChar
StartChar: bracketleft
Encoding: 91 91 61
OldEncoding: 91
Width: 167
Flags: HW
HStem: -128 45<89 150> 392 45<89 150 89 89>
VStem: 38 51<-83 392>
Fore
38 437 m 1
 150 437 l 1
 150 392 l 1
 89 392 l 1
 89 -83 l 1
 150 -83 l 1
 150 -128 l 1
 38 -128 l 1
 38 437 l 1
EndSplineSet
EndChar
StartChar: backslash
Encoding: 92 92 62
OldEncoding: 92
Width: 167
Flags: HW
HStem: -12 20 417 20<-5 28 28 28>
VStem: -5 175
Fore
137 -12 m 1
 -5 437 l 1
 28 437 l 1
 170 -12 l 1
 137 -12 l 1
EndSplineSet
EndChar
StartChar: bracketright
Encoding: 93 93 63
OldEncoding: 93
Width: 167
Flags: HW
HStem: -129 45<14 74> 392 45<14 74>
VStem: 74 51<-84 392 392 392>
Fore
14 392 m 1
 14 437 l 1
 125 437 l 1
 125 -129 l 1
 14 -129 l 1
 14 -84 l 1
 74 -84 l 1
 74 392 l 1
 14 392 l 1
EndSplineSet
EndChar
StartChar: asciicircum
Encoding: 94 94 64
OldEncoding: 94
Width: 281
Flags: HW
VStem: 26 229<200 200>
Fore
26 200 m 1
 119 428 l 1
 163 428 l 1
 255 200 l 1
 213 200 l 1
 140 377 l 1
 68 200 l 1
 26 200 l 1
EndSplineSet
EndChar
StartChar: underscore
Encoding: 95 95 65
OldEncoding: 95
Width: 334
Flags: HW
HStem: -105 30<-13 347>
VStem: -13 360<-105 -75>
Fore
347 -75 m 1
 347 -105 l 1
 -13 -105 l 1
 -13 -75 l 1
 347 -75 l 1
EndSplineSet
EndChar
StartChar: grave
Encoding: 96 96 66
OldEncoding: 96
Width: 115
Flags: HW
VStem: -71 56
Fore
14 328 m 0
 14 355 22 377 38 392 c 0
 55 407 72 415 91 418 c 0
 100 418 105 416 105 413 c 0
 105 412 104 410 102 408 c 1
 93 405 83 399 70 391 c 0
 57 383 50 373 48 360 c 1
 50 361 53 361 56 362 c 0
 59 363 63 364 67 364 c 0
 94 361 107 347 107 322 c 0
 107 310 103 300 96 292 c 0
 89 284 79 280 66 280 c 0
 33 280 15 296 14 328 c 0
EndSplineSet
EndChar
StartChar: a
Encoding: 97 97 67
OldEncoding: 97
Width: 334
Flags: HW
HStem: -14 20 304 20<150 162.5>
VStem: 233 53<91 154 154 154 209 247 247 247>
Fore
286 258 m 2
 286 47 l 2
 286 42 289 38 295 34 c 0
 301 31 310 29 321 29 c 1
 321 -8 l 1
 279 -14 l 1
 252 -6 237 9 235 32 c 1
 216 17 200 6 187 -1 c 0
 174 -8 156 -14 135 -14 c 0
 100 -15 73 -5 54 12 c 0
 35 29 24 54 25 85 c 0
 25 109 33 127 45 140 c 0
 57 152 72 161 91 167 c 0
 106 172 120 175 133 177 c 0
 146 179 160 181 177 182 c 0
 193 183 203 184 208 185 c 0
 225 190 233 198 233 209 c 2
 233 247 l 1
 231 257 222 266 206 271 c 0
 189 277 169 280 146 279 c 0
 109 278 90 258 87 221 c 1
 40 221 l 1
 41 248 l 1
 44 260 50 272 59 283 c 0
 68 294 79 303 94 310 c 0
 107 317 126 321 150 324 c 1
 175 324 196 322 212 319 c 0
 233 314 251 307 265 296 c 0
 278 286 286 273 286 258 c 2
233 91 m 2
 233 154 l 1
 221 149 208 146 193 144 c 0
 178 141 162 139 145 136 c 0
 128 133 115 129 107 126 c 0
 101 123 94 118 87 110 c 0
 80 103 77 94 77 83 c 0
 77 65 82 52 93 43 c 0
 104 34 117 29 132 29 c 0
 152 28 170 33 185 41 c 0
 200 49 212 58 220 68 c 0
 229 79 233 86 233 91 c 2
EndSplineSet
EndChar
StartChar: b
Encoding: 98 98 68
OldEncoding: 98
Width: 334
Flags: HW
HStem: -14 20 273 51 417 20<32 83 83 83>
VStem: 32 51<277 437>
Fore
32 437 m 1
 83 437 l 1
 83 277 l 1
 88 287 98 296 112 305 c 0
 121 310 131 315 142 319 c 0
 153 322 166 324 180 324 c 0
 216 324 247 311 272 284 c 0
 281 275 289 263 295 250 c 0
 302 237 307 223 310 208 c 0
 313 193 314 176 314 159 c 0
 314 149 314 141 313 136 c 0
 312 105 303 78 290 54 c 0
 277 29 259 10 236 -1 c 0
 216 -11 195 -14 174 -14 c 0
 151 -14 133 -10 120 -1 c 0
 97 14 83 26 76 35 c 1
 76 0 l 1
 32 0 l 1
 32 437 l 1
230 63 m 0
 248 88 257 119 257 157 c 0
 257 175 255 192 251 207 c 0
 248 222 242 233 235 242 c 1
 222 263 200 274 169 273 c 0
 142 273 121 262 107 243 c 0
 101 234 95 222 90 205 c 0
 85 187 82 169 82 150 c 0
 82 120 89 93 104 68 c 0
 117 48 137 37 164 34 c 1
 195 34 217 44 230 63 c 0
EndSplineSet
EndChar
StartChar: c
Encoding: 99 99 69
OldEncoding: 99
Width: 300
Flags: HW
HStem: -14 20 304 20<158 167>
VStem: 19 54
Fore
238 109 m 1
 286 109 l 1
 285 83 280 62 269 45 c 0
 258 26 241 11 220 1 c 0
 199 -9 176 -15 151 -14 c 0
 127 -14 105 -6 85 5 c 0
 65 16 50 32 40 53 c 0
 26 83 19 119 19 160 c 0
 20 208 35 248 64 281 c 0
 88 309 119 323 158 324 c 0
 176 324 193 322 208 317 c 0
 224 312 237 305 247 296 c 1
 259 289 268 277 274 262 c 0
 281 247 285 229 286 209 c 1
 236 209 l 1
 233 226 230 239 225 248 c 0
 220 256 213 263 203 268 c 0
 188 275 173 278 160 278 c 0
 137 277 116 266 98 245 c 0
 85 230 74 204 73 167 c 0
 71 126 77 97 85 82 c 0
 101 50 127 33 163 34 c 0
 176 34 188 38 200 45 c 0
 211 52 219 59 223 68 c 0
 231 83 236 96 238 109 c 1
EndSplineSet
EndChar
StartChar: d
Encoding: 100 100 70
OldEncoding: 100
Width: 334
Flags: HW
HStem: -14 48<165 168> 272 52<145 162> 417 20<247 297 297 297>
VStem: 247 50<134 159 277 437>
Fore
247 437 m 1
 297 437 l 1
 297 -1 l 1
 253 -1 l 1
 253 36 l 1
 240 21 226 8 210 -2 c 0
 198 -10 180 -14 156 -14 c 0
 132 -14 111 -10 93 -1 c 0
 71 10 54 28 41 53 c 0
 28 77 20 104 17 135 c 0
 16 140 16 149 16 160 c 0
 16 184 20 207 27 229 c 0
 34 252 44 270 57 283 c 0
 84 310 114 324 149 324 c 0
 175 324 198 318 218 305 c 0
 231 296 241 287 247 277 c 1
 247 437 l 1
99 62 m 0
 114 43 136 33 165 34 c 0
 178 34 190 38 201 44 c 0
 212 50 220 58 226 68 c 0
 240 92 247 119 247 149 c 0
 247 169 244 188 239 205 c 0
 234 222 228 235 223 242 c 0
 208 262 187 272 160 272 c 0
 130 272 108 262 94 242 c 0
 79 221 72 192 72 156 c 0
 72 118 81 87 99 62 c 0
EndSplineSet
EndChar
StartChar: e
Encoding: 101 101 71
OldEncoding: 101
Width: 334
Flags: HW
HStem: -14 44<156 173.5> 137 45<80 253> 304 20<179 185>
VStem: 24 284
Fore
308 137 m 1
 78 137 l 1
 78 123 79 111 81 102 c 0
 83 93 88 82 95 69 c 1
 114 43 137 30 166 30 c 0
 181 30 193 32 204 37 c 0
 214 42 222 48 229 55 c 0
 235 62 240 70 243 77 c 0
 246 84 248 90 250 96 c 1
 301 96 l 1
 295 69 285 48 273 33 c 0
 261 18 248 7 229 -1 c 0
 210 -10 189 -14 167 -14 c 0
 145 -14 124 -10 105 -1 c 0
 86 8 69 20 56 37 c 0
 35 64 24 104 24 155 c 0
 25 208 38 249 63 277 c 0
 92 308 130 325 179 324 c 0
 191 324 203 321 215 317 c 0
 227 313 238 308 249 301 c 0
 258 294 266 287 272 279 c 0
 283 264 291 250 296 236 c 0
 301 222 305 209 306 198 c 0
 307 186 307 166 308 137 c 1
80 182 m 1
 253 182 l 1
 253 195 250 210 245 225 c 0
 240 240 235 250 230 255 c 1
 227 262 221 268 210 273 c 0
 200 278 189 283 176 283 c 0
 144 284 121 274 107 255 c 1
 102 251 96 241 90 226 c 0
 83 210 81 195 80 182 c 1
EndSplineSet
EndChar
StartChar: f
Encoding: 102 102 72
OldEncoding: 102
Width: 167
Flags: HW
HStem: 0 20 269 46<11 53 104 154> 419 20<122.5 134>
VStem: 53 51<0 269 315 361>
Fore
53 0 m 1
 53 269 l 1
 11 269 l 1
 11 315 l 1
 53 315 l 1
 53 368 l 2
 53 389 60 406 73 419 c 0
 86 431 96 437 104 437 c 0
 109 438 117 439 128 439 c 0
 140 439 149 438 155 437 c 1
 155 395 l 1
 136 395 122 393 115 389 c 0
 108 384 104 375 104 361 c 2
 104 315 l 1
 154 315 l 1
 154 269 l 1
 104 269 l 1
 104 0 l 1
 53 0 l 1
EndSplineSet
EndChar
StartChar: g
Encoding: 103 103 73
OldEncoding: 103
Width: 334
Flags: HW
HStem: -131 20 269 55<142 153>
VStem: 243 50<37.5 38 130 161 277 315>
Fore
243 315 m 1
 293 315 l 1
 293 53 l 2
 293 22 290 -4 287 -26 c 0
 283 -48 276 -67 265 -84 c 0
 254 -101 239 -112 218 -119 c 0
 199 -125 181 -129 166 -131 c 1
 134 -131 110 -128 95 -122 c 0
 78 -115 64 -107 54 -97 c 0
 44 -87 37 -77 34 -66 c 0
 31 -56 29 -46 28 -36 c 1
 79 -36 l 1
 80 -38 81 -41 82 -46 c 0
 83 -51 84 -55 86 -58 c 0
 87 -61 90 -65 95 -68 c 0
 99 -72 105 -76 114 -80 c 0
 124 -85 137 -87 153 -87 c 0
 170 -87 186 -84 199 -79 c 1
 212 -72 221 -65 225 -58 c 0
 229 -52 233 -42 236 -28 c 0
 241 -7 243 15 243 38 c 1
 213 3 179 -15 140 -14 c 0
 117 -13 95 -3 74 14 c 1
 57 25 43 42 33 64 c 0
 24 86 18 110 17 137 c 0
 17 163 20 189 26 214 c 0
 32 239 41 260 52 275 c 0
 59 284 72 295 91 307 c 0
 110 318 131 324 153 324 c 0
 188 323 218 308 243 277 c 1
 243 315 l 1
215 58 m 0
 234 78 243 109 243 151 c 0
 243 171 241 190 236 208 c 0
 231 226 223 239 214 248 c 0
 211 252 203 257 192 262 c 0
 181 267 169 269 158 269 c 0
 125 269 100 254 86 223 c 0
 77 204 72 181 71 152 c 0
 70 115 78 87 91 68 c 0
 106 47 127 34 152 34 c 0
 179 33 200 42 215 58 c 0
EndSplineSet
EndChar
StartChar: h
Encoding: 104 104 74
OldEncoding: 104
Width: 334
Flags: HW
HStem: 0 20 417 20<42 92 92 92>
VStem: 42 50<0 205 277 437> 241 51<0 215 215 229.5>
Fore
42 0 m 1
 42 437 l 1
 92 437 l 1
 92 277 l 1
 108 294 126 307 146 316 c 1
 165 321 179 324 189 324 c 0
 206 324 223 319 240 313 c 0
 261 305 274 295 281 279 c 0
 288 263 292 250 292 239 c 2
 292 0 l 1
 241 0 l 1
 241 215 l 2
 241 244 232 262 215 270 c 1
 199 275 181 278 161 278 c 1
 146 275 130 266 112 251 c 0
 99 239 92 224 92 205 c 2
 92 0 l 1
 42 0 l 1
EndSplineSet
EndChar
StartChar: i
Encoding: 105 105 75
OldEncoding: 105
Width: 133
Flags: HW
HStem: 0 20 375 62<40 90>
VStem: 40 50<0 315 375 437>
Fore
90 315 m 1
 90 0 l 1
 40 0 l 1
 40 315 l 1
 90 315 l 1
90 437 m 1
 90 375 l 1
 40 375 l 1
 40 437 l 1
 90 437 l 1
EndSplineSet
EndChar
StartChar: j
Encoding: 106 106 76
OldEncoding: 106
Width: 133
Flags: HW
HStem: -131 20 375 62<41 92>
VStem: 41 51<-58 315 375 437>
Fore
41 375 m 1
 41 437 l 1
 92 437 l 1
 92 375 l 1
 41 375 l 1
-11 -131 m 1
 -11 -87 l 1
 19 -84 l 2
 26 -83 32 -80 36 -74 c 0
 39 -69 41 -63 41 -58 c 2
 41 315 l 1
 92 315 l 1
 92 -69 l 2
 92 -80 89 -91 82 -103 c 0
 75 -114 63 -122 46 -127 c 0
 34 -130 15 -131 -11 -131 c 1
EndSplineSet
EndChar
StartChar: k
Encoding: 107 107 77
OldEncoding: 107
Width: 300
Flags: HW
HStem: 0 20 417 20<35 85 85 85>
VStem: 35 50<0 118 184 437>
Fore
35 437 m 1
 85 437 l 1
 85 184 l 1
 218 315 l 1
 283 315 l 1
 173 206 l 1
 301 0 l 1
 239 0 l 1
 136 168 l 1
 85 118 l 1
 85 0 l 1
 35 0 l 1
 35 437 l 1
EndSplineSet
EndChar
StartChar: l
Encoding: 108 108 78
OldEncoding: 108
Width: 133
Flags: HW
HStem: 0 20 417 20<41 91 91 91>
VStem: 41 50<0 437>
Fore
41 0 m 1
 41 437 l 1
 91 437 l 1
 91 0 l 1
 41 0 l 1
EndSplineSet
EndChar
StartChar: m
Encoding: 109 109 79
OldEncoding: 109
Width: 500
Flags: HW
HStem: 0 20 278 46<173.5 184.5 350 364.5>
VStem: 43 50<0 203 275 315> 225 50<0 214> 407 51<0 225 225 225>
Fore
43 0 m 1
 43 315 l 1
 93 315 l 1
 93 275 l 1
 106 295 117 307 126 311 c 0
 142 320 162 324 185 324 c 0
 209 324 227 320 238 312 c 0
 251 303 262 292 271 277 c 1
 277 284 282 290 285 294 c 0
 288 298 292 302 297 306 c 0
 302 310 307 313 313 316 c 0
 326 321 341 324 359 324 c 0
 387 324 407 321 418 314 c 0
 424 311 430 306 437 298 c 0
 444 291 449 282 453 273 c 0
 456 264 458 255 458 246 c 2
 458 0 l 1
 407 0 l 1
 407 225 l 1
 402 260 382 278 347 278 c 0
 325 278 308 272 297 260 c 0
 285 248 278 233 275 214 c 1
 275 0 l 1
 225 0 l 1
 225 226 l 2
 225 261 202 278 167 278 c 0
 147 278 130 271 116 257 c 0
 103 243 95 225 93 203 c 1
 93 0 l 1
 43 0 l 1
EndSplineSet
EndChar
StartChar: n
Encoding: 110 110 80
OldEncoding: 110
Width: 334
Flags: HW
HStem: 0 20 304 20<191 202.5>
VStem: 42 50<0 167 275 315> 242 50<0 219 219 225.5>
Fore
42 315 m 1
 92 315 l 1
 92 275 l 1
 105 293 117 305 128 310 c 1
 141 319 162 325 191 324 c 0
 214 324 231 321 242 316 c 0
 255 309 266 300 275 291 c 0
 284 281 289 266 292 245 c 1
 292 0 l 1
 242 0 l 1
 242 219 l 2
 242 232 239 242 234 251 c 0
 228 260 220 267 210 271 c 0
 201 276 190 278 179 278 c 0
 155 278 134 269 117 252 c 0
 100 235 92 206 92 167 c 2
 92 0 l 1
 42 0 l 1
 42 315 l 1
EndSplineSet
EndChar
StartChar: o
Encoding: 111 111 81
OldEncoding: 111
Width: 334
Flags: HW
HStem: -14 20 304 20<152 175.5>
VStem: 254 52<143.5 166>
Fore
46 48 m 0
 30 75 22 111 22 155 c 0
 22 200 30 235 46 262 c 0
 59 283 76 300 97 310 c 0
 118 320 140 324 164 324 c 0
 187 324 210 319 231 309 c 0
 252 299 268 283 281 262 c 0
 298 234 306 198 306 155 c 0
 306 113 298 77 281 48 c 0
 268 27 252 11 231 1 c 0
 210 -9 187 -14 164 -14 c 0
 140 -14 118 -9 97 1 c 0
 76 11 59 27 46 48 c 0
164 37 m 0
 180 37 195 41 208 49 c 0
 222 57 231 69 238 85 c 0
 248 109 254 132 254 155 c 0
 254 177 249 201 238 226 c 0
 231 242 221 254 208 262 c 0
 194 270 179 274 164 274 c 0
 148 274 133 270 119 263 c 0
 104 255 93 243 86 226 c 1
 82 211 79 197 77 186 c 0
 74 175 73 164 73 155 c 0
 73 136 78 112 89 85 c 0
 96 69 107 57 120 49 c 0
 133 41 148 37 164 37 c 0
EndSplineSet
EndChar
StartChar: p
Encoding: 112 112 82
OldEncoding: 112
Width: 334
Flags: HW
HStem: -131 20 -14 52<167 184.5> 304 20<161.5 184.5>
VStem: 32 51<-131 34>
Fore
83 -131 m 1
 32 -131 l 1
 32 315 l 1
 76 315 l 1
 76 275 l 1
 84 287 98 299 119 312 c 0
 132 320 150 324 173 324 c 0
 196 324 217 320 236 311 c 0
 259 300 277 282 290 257 c 0
 303 232 312 205 313 175 c 0
 314 170 314 162 314 152 c 0
 314 127 310 103 303 81 c 0
 296 58 285 40 272 27 c 0
 246 0 215 -14 180 -14 c 0
 154 -14 131 -8 112 5 c 0
 99 14 89 23 83 34 c 1
 83 -131 l 1
230 248 m 0
 216 267 194 278 164 277 c 0
 151 277 140 272 129 267 c 1
 118 260 110 252 104 242 c 0
 89 218 82 191 82 161 c 0
 82 143 85 125 90 108 c 0
 95 91 101 77 107 68 c 0
 115 58 124 51 135 46 c 0
 146 41 157 38 169 38 c 0
 200 38 221 48 235 68 c 0
 249 88 257 116 257 153 c 0
 257 191 248 223 230 248 c 0
EndSplineSet
EndChar
StartChar: q
Encoding: 113 113 83
OldEncoding: 113
Width: 334
Flags: HW
HStem: -131 20 -14 52<145 162> 304 20<144 167.5>
VStem: 16 56<133.5 152> 247 50<-131 34 34 34 155 176>
Fore
297 -131 m 1
 247 -131 l 1
 247 34 l 1
 242 24 232 14 218 5 c 0
 198 -8 175 -14 149 -14 c 0
 114 -14 84 0 57 27 c 0
 30 55 16 96 16 150 c 0
 16 161 16 170 17 175 c 0
 20 205 28 232 41 257 c 0
 54 282 71 300 93 311 c 0
 111 320 132 324 156 324 c 0
 179 324 197 320 210 312 c 0
 228 301 242 289 253 275 c 1
 253 315 l 1
 297 315 l 1
 297 -131 l 1
99 248 m 0
 80 223 71 190 72 152 c 0
 72 115 81 87 94 68 c 0
 108 48 130 38 160 38 c 0
 173 38 185 41 196 46 c 0
 207 51 216 59 223 68 c 0
 235 85 243 108 246 138 c 0
 247 143 247 150 247 160 c 0
 247 192 239 219 226 242 c 0
 220 252 213 260 202 266 c 0
 191 272 178 277 165 277 c 0
 136 278 113 268 99 248 c 0
EndSplineSet
EndChar
StartChar: r
Encoding: 114 114 84
OldEncoding: 114
Width: 200
Flags: HW
HStem: 0 20 304 20<164 193 193 193>
VStem: 41 51<0 164 266 315>
Fore
41 0 m 1
 41 315 l 1
 92 315 l 1
 92 266 l 1
 101 283 113 297 127 308 c 0
 140 318 153 323 164 324 c 2
 193 324 l 1
 193 271 l 1
 174 271 158 269 145 264 c 0
 127 256 114 244 105 229 c 0
 96 212 92 191 92 164 c 2
 92 0 l 1
 41 0 l 1
EndSplineSet
EndChar
StartChar: s
Encoding: 115 115 85
OldEncoding: 115
Width: 300
Flags: HW
HStem: -14 20 227 97
VStem: 20 255<75 93>
Fore
20 93 m 1
 68 93 l 1
 71 80 73 71 75 65 c 0
 77 60 82 54 89 48 c 0
 96 42 107 37 122 32 c 1
 130 31 145 30 167 30 c 1
 185 33 198 37 206 43 c 0
 211 46 216 52 220 60 c 0
 224 67 226 74 226 81 c 0
 226 100 215 114 192 121 c 0
 185 123 176 125 164 128 c 0
 151 131 140 134 131 136 c 0
 122 138 112 141 101 144 c 0
 90 147 81 150 75 153 c 0
 44 164 29 190 29 230 c 0
 29 259 40 282 63 299 c 0
 85 316 112 324 145 324 c 0
 221 324 260 292 262 227 c 1
 212 227 l 1
 212 241 207 253 198 262 c 0
 189 271 170 276 140 277 c 1
 109 275 89 264 79 244 c 0
 78 241 77 236 77 229 c 0
 77 215 83 205 94 200 c 0
 101 197 107 194 113 192 c 0
 118 190 126 189 136 186 c 0
 146 183 157 180 168 177 c 0
 198 172 222 164 241 153 c 0
 264 140 275 114 275 75 c 1
 273 59 267 44 257 31 c 0
 247 17 234 6 218 -1 c 0
 203 -8 184 -13 161 -14 c 0
 136 -15 116 -13 100 -10 c 0
 47 1 20 36 20 93 c 1
EndSplineSet
EndChar
StartChar: t
Encoding: 116 116 86
OldEncoding: 116
Width: 167
Flags: HW
HStem: -14 20 269 46<8 52 103 152>
VStem: 52 51<44 50 50 269 315 400>
Fore
103 400 m 1
 103 315 l 1
 152 315 l 1
 152 269 l 1
 103 269 l 1
 103 50 l 2
 103 38 112 32 129 32 c 0
 134 32 141 33 152 34 c 1
 152 -10 l 1
 138 -13 120 -14 98 -14 c 1
 83 -12 71 -6 63 4 c 0
 56 14 52 23 52 31 c 2
 52 269 l 1
 8 269 l 1
 8 315 l 1
 52 315 l 1
 52 400 l 1
 103 400 l 1
EndSplineSet
EndChar
StartChar: u
Encoding: 117 117 87
OldEncoding: 117
Width: 334
Flags: HW
HStem: -14 20 295 20<39 89 89 89 239 289 289 289>
VStem: 39 50<80.5 92 92 315> 239 50<0 34 34 34 144 315>
Fore
289 0 m 1
 239 0 l 1
 239 34 l 1
 226 16 214 5 203 -1 c 0
 187 -9 166 -14 139 -14 c 0
 120 -14 103 -12 89 -7 c 1
 61 8 44 31 39 64 c 1
 39 315 l 1
 89 315 l 1
 89 92 l 2
 89 69 97 53 113 42 c 0
 122 37 131 34 142 34 c 0
 157 34 168 35 177 37 c 0
 202 46 218 59 227 78 c 0
 235 95 239 117 239 144 c 2
 239 315 l 1
 289 315 l 1
 289 0 l 1
EndSplineSet
EndChar
StartChar: v
Encoding: 118 118 88
OldEncoding: 118
Width: 300
Flags: HW
HStem: 0 20 295 20<6 62 62 62 235 292 292 292>
VStem: 6 286<315 315>
Fore
171 0 m 1
 116 0 l 1
 6 315 l 1
 62 315 l 1
 144 60 l 1
 235 315 l 1
 292 315 l 1
 171 0 l 1
EndSplineSet
EndChar
StartChar: w
Encoding: 119 119 89
OldEncoding: 119
Width: 433
Flags: HW
HStem: 0 20 295 20<4 60 60 60 183 245 245 245 368 425 425 425>
VStem: 4 421<315 315>
Fore
94 0 m 1
 4 315 l 1
 60 315 l 1
 122 70 l 1
 183 315 l 1
 245 315 l 1
 304 70 l 1
 368 315 l 1
 425 315 l 1
 332 0 l 1
 275 0 l 1
 211 239 l 1
 151 0 l 1
 94 0 l 1
EndSplineSet
EndChar
StartChar: x
Encoding: 120 120 90
OldEncoding: 120
Width: 300
Flags: HW
HStem: 0 20 295 20<17 74 74 74 226 283 283 283>
VStem: 10 274<0 0>
Fore
148 118 m 1
 67 0 l 1
 10 0 l 1
 121 161 l 1
 17 315 l 1
 74 315 l 1
 150 204 l 1
 226 315 l 1
 283 315 l 1
 176 162 l 1
 284 0 l 1
 227 0 l 1
 148 118 l 1
EndSplineSet
EndChar
StartChar: y
Encoding: 121 121 91
OldEncoding: 121
Width: 300
Flags: HW
HStem: -131 20 295 20<12 65 65 65 233 287 287 287>
VStem: 12 275<315 315>
Fore
233 315 m 1
 287 315 l 1
 144 -73 l 2
 135 -98 120 -114 100 -123 c 0
 89 -128 75 -131 59 -131 c 0
 48 -131 39 -129 31 -124 c 1
 31 -77 l 1
 38 -80 51 -82 68 -82 c 1
 81 -80 91 -71 97 -55 c 2
 115 -5 l 1
 12 315 l 1
 65 315 l 1
 145 77 l 1
 233 315 l 1
EndSplineSet
EndChar
StartChar: z
Encoding: 122 122 92
OldEncoding: 122
Width: 300
Flags: HW
HStem: 0 50<86 274> 265 50<32 203>
VStem: 32 235<271 315>
Fore
267 315 m 1
 267 271 l 1
 86 50 l 1
 274 50 l 1
 274 0 l 1
 19 0 l 1
 19 41 l 1
 203 265 l 1
 32 265 l 1
 32 315 l 1
 267 315 l 1
EndSplineSet
EndChar
StartChar: braceleft
Encoding: 123 123 93
OldEncoding: 123
Width: 200
Flags: HW
HStem: 419 20<166 166>
VStem: 73 45<-53.5 -47 -47 49 49 59 262 358>
Fore
26 134 m 1
 26 176 l 1
 45 180 58 189 64 202 c 0
 70 215 73 235 73 262 c 2
 73 364 l 2
 73 385 79 402 90 416 c 0
 101 429 112 437 122 437 c 2
 166 439 l 1
 166 399 l 1
 139 396 l 2
 131 395 126 392 123 386 c 0
 120 380 118 371 118 358 c 2
 118 251 l 2
 118 224 113 203 104 189 c 0
 95 175 85 164 74 155 c 1
 83 149 93 139 103 124 c 0
 113 109 118 87 118 59 c 2
 118 -47 l 2
 118 -60 120 -70 123 -76 c 0
 126 -82 131 -85 139 -86 c 2
 166 -89 l 1
 166 -128 l 1
 122 -127 l 2
 112 -127 101 -119 90 -105 c 0
 79 -92 73 -75 73 -54 c 2
 73 49 l 2
 73 76 70 96 64 109 c 0
 57 122 45 130 26 134 c 1
EndSplineSet
EndChar
StartChar: bar
Encoding: 124 124 94
OldEncoding: 124
Width: 156
Flags: HW
HStem: 417 20<60 96 96 96>
VStem: 60 36<-129 437>
Fore
96 437 m 1
 96 -129 l 1
 60 -129 l 1
 60 437 l 1
 96 437 l 1
EndSplineSet
EndChar
StartChar: braceright
Encoding: 125 125 95
OldEncoding: 125
Width: 200
Flags: HW
HStem: 419 20<17 17>
VStem: 65 45<-47 49 251 262 262 358 358 364>
Fore
157 176 m 1
 157 134 l 1
 138 130 125 122 119 109 c 0
 113 96 110 76 110 49 c 2
 110 -54 l 2
 110 -68 107 -80 102 -91 c 0
 96 -102 89 -110 82 -117 c 0
 75 -123 68 -126 61 -127 c 2
 17 -128 l 1
 17 -89 l 1
 44 -86 l 2
 52 -85 58 -81 61 -75 c 0
 64 -69 65 -60 65 -47 c 2
 65 59 l 2
 65 86 70 108 81 123 c 0
 91 138 100 149 109 155 c 0
 108 155 106 158 101 163 c 0
 95 168 89 175 84 184 c 0
 78 193 73 202 70 213 c 0
 67 224 65 236 65 251 c 2
 65 358 l 2
 65 371 64 380 61 386 c 0
 58 392 52 395 44 396 c 2
 17 399 l 1
 17 439 l 1
 61 437 l 2
 68 436 75 433 82 427 c 0
 89 420 96 412 102 401 c 0
 107 390 110 378 110 364 c 2
 110 262 l 2
 110 235 113 215 119 202 c 0
 125 189 138 180 157 176 c 1
EndSplineSet
EndChar
StartChar: asciitilde
Encoding: 126 126 96
OldEncoding: 126
Width: 350
Flags: HW
VStem: 45 259
Fore
77 175 m 1
 45 175 l 1
 46 206 53 229 65 242 c 0
 78 256 92 263 109 263 c 0
 120 263 130 261 140 255 c 2
 219 208 l 2
 226 204 234 201 243 201 c 0
 251 201 257 203 262 207 c 0
 269 213 273 226 273 247 c 1
 304 247 l 1
 304 221 298 200 286 184 c 0
 275 168 260 160 241 160 c 0
 228 160 211 164 194 175 c 2
 130 216 l 1
 123 222 116 225 109 225 c 0
 100 225 92 220 86 211 c 0
 80 202 77 190 77 175 c 1
EndSplineSet
EndChar
StartChar: uni0E10.descless
Encoding: 128 63232 98
OldEncoding: 63232
Width: 323
Flags: HW
HStem: 0 20 326 20<144 162.5>
VStem: 229 42<83 165 165 167>
Fore
125 209 m 0
 138 209 150 205 162 198 c 0
 173 191 182 181 188 169 c 2
 229 83 l 1
 229 165 l 2
 229 190 225 207 216 216 c 0
 208 225 193 233 171 240 c 0
 147 247 123 252 98 256 c 0
 73 261 55 264 42 265 c 1
 55 288 72 307 91 323 c 0
 110 338 132 346 156 346 c 0
 169 346 181 345 190 343 c 0
 200 340 211 337 224 332 c 0
 237 327 247 324 254 322 c 0
 261 320 269 319 276 319 c 0
 288 319 300 322 311 327 c 1
 319 292 l 1
 302 285 287 282 274 282 c 0
 265 282 257 283 250 285 c 0
 243 287 233 291 218 296 c 0
 204 301 193 305 184 308 c 0
 175 311 166 312 157 312 c 0
 147 312 137 309 126 304 c 0
 115 298 110 293 109 290 c 1
 113 289 120 288 129 285 c 0
 138 282 150 279 165 275 c 0
 180 272 191 269 198 267 c 0
 230 259 251 248 259 234 c 0
 268 219 271 197 271 167 c 2
 271 0 l 1
 221 0 l 1
 218 21 211 42 201 65 c 0
 191 88 183 105 177 116 c 1
 174 107 167 100 157 94 c 0
 148 89 137 86 125 86 c 0
 106 86 91 92 80 104 c 0
 69 117 64 131 64 147 c 0
 64 164 69 179 80 191 c 0
 91 203 106 209 125 209 c 0
125 116 m 0
 135 116 143 119 148 125 c 0
 153 132 156 139 156 147 c 0
 156 156 153 163 148 169 c 0
 143 175 135 178 125 178 c 0
 116 178 108 175 103 169 c 0
 97 163 94 156 94 147 c 0
 94 139 97 132 103 126 c 0
 108 119 116 116 125 116 c 0
EndSplineSet
EndChar
StartChar: uni0E34.left
Encoding: 129 63233 99
OldEncoding: 63233
Width: 0
Flags: HW
VStem: -392 279
Fore
-246 540 m 1
 -201 534 -170 517 -151 489 c 0
 -133 461 -120 431 -113 398 c 1
 -124 402 -141 408 -165 415 c 0
 -189 422 -214 426 -240 429 c 0
 -258 431 -276 432 -295 432 c 0
 -317 432 -337 431 -354 430 c 0
 -372 428 -385 426 -392 425 c 1
 -388 445 -379 464 -366 482 c 0
 -352 500 -335 514 -314 525 c 0
 -293 535 -271 540 -246 540 c 1
-254 509 m 1
 -275 509 -293 504 -310 493 c 0
 -326 483 -336 472 -340 459 c 1
 -335 460 -328 460 -319 461 c 0
 -310 462 -297 462 -280 462 c 0
 -265 462 -254 462 -246 461 c 0
 -221 459 -200 455 -185 449 c 0
 -170 444 -161 439 -156 436 c 1
 -175 478 -207 502 -254 509 c 1
EndSplineSet
EndChar
StartChar: uni0E35.left
Encoding: 130 63234 100
OldEncoding: 63234
Width: 40
Flags: HW
VStem: -143 38<501 580>
Fore
-143 501 m 1
 -143 580 l 1
 -105 580 l 1
 -105 441 l 1
 -105 441 l 1
 -104 441 -103 436 -100 426 c 0
 -97 415 -94 405 -93 398 c 1
 -104 402 -121 408 -145 415 c 0
 -169 422 -194 426 -220 429 c 0
 -238 431 -256 432 -275 432 c 0
 -297 432 -317 431 -334 430 c 0
 -352 428 -365 426 -372 425 c 1
 -368 446 -359 465 -346 483 c 0
 -333 500 -315 514 -294 525 c 0
 -274 535 -251 540 -226 540 c 1
 -209 538 -195 534 -183 528 c 0
 -171 523 -162 517 -155 512 c 0
 -149 507 -145 503 -143 501 c 1
-234 509 m 1
 -249 509 -262 506 -274 501 c 0
 -286 496 -296 490 -304 482 c 0
 -312 475 -317 467 -320 459 c 1
 -315 460 -308 460 -299 461 c 0
 -290 462 -277 462 -260 462 c 0
 -245 462 -234 462 -226 461 c 0
 -201 459 -180 455 -165 449 c 0
 -150 444 -141 439 -136 436 c 1
 -143 453 -154 469 -168 483 c 0
 -183 497 -205 506 -234 509 c 1
EndSplineSet
EndChar
StartChar: uni0E36.left
Encoding: 131 63235 101
OldEncoding: 63235
Width: 0
Flags: HW
VStem: -392 284
Fore
-108 532 m 0
 -108 519 -111 508 -118 498 c 0
 -125 488 -134 482 -145 480 c 1
 -141 473 -135 462 -127 447 c 0
 -120 432 -115 415 -113 398 c 1
 -124 402 -141 408 -165 415 c 0
 -189 422 -214 426 -240 429 c 0
 -258 431 -276 432 -295 432 c 0
 -317 432 -337 431 -354 430 c 0
 -372 428 -385 426 -392 425 c 1
 -385 459 -369 487 -344 509 c 0
 -319 531 -292 542 -263 542 c 0
 -252 542 -243 541 -235 539 c 0
 -227 537 -221 535 -217 533 c 1
 -217 546 -212 558 -202 569 c 0
 -192 580 -179 586 -163 586 c 0
 -146 586 -132 581 -123 570 c 0
 -113 560 -108 547 -108 532 c 0
-162 559 m 0
 -171 559 -177 557 -181 552 c 0
 -186 547 -188 541 -188 534 c 0
 -188 528 -186 522 -181 517 c 0
 -176 512 -170 509 -162 509 c 0
 -155 509 -149 512 -144 517 c 0
 -139 522 -137 527 -137 534 c 0
 -137 541 -139 547 -144 552 c 0
 -148 557 -154 559 -162 559 c 0
-254 509 m 1
 -269 509 -282 506 -294 501 c 0
 -306 496 -316 490 -324 482 c 0
 -332 475 -337 467 -340 459 c 1
 -335 460 -328 460 -319 461 c 0
 -310 462 -297 462 -280 462 c 0
 -265 462 -254 462 -246 461 c 0
 -221 459 -200 455 -185 449 c 0
 -170 444 -161 439 -156 436 c 1
 -163 453 -174 468 -188 482 c 0
 -203 496 -225 505 -254 509 c 1
EndSplineSet
EndChar
StartChar: uni0E37.left
Encoding: 132 63236 102
OldEncoding: 63236
Width: 40
Flags: HW
VStem: -218 38<539 580> -143 38<500 580>
Fore
-105 440 m 1
 -104 440 -100 426 -93 398 c 1
 -104 402 -121 408 -145 415 c 0
 -169 422 -194 426 -220 429 c 0
 -238 431 -256 432 -275 432 c 0
 -297 432 -317 431 -334 430 c 0
 -352 428 -365 426 -372 425 c 1
 -368 447 -359 467 -346 484 c 0
 -333 502 -316 516 -297 526 c 0
 -278 537 -259 542 -240 542 c 0
 -233 542 -225 541 -218 539 c 1
 -218 580 l 1
 -180 580 l 1
 -180 527 l 1
 -164 521 -152 512 -143 500 c 1
 -143 580 l 1
 -105 580 l 1
 -105 440 l 1
-234 509 m 1
 -255 509 -273 504 -290 493 c 0
 -306 483 -316 472 -320 459 c 1
 -315 460 -308 460 -299 461 c 0
 -290 462 -277 462 -260 462 c 0
 -245 462 -234 462 -226 461 c 0
 -201 459 -180 455 -165 449 c 0
 -150 444 -141 439 -136 436 c 1
 -155 478 -187 502 -234 509 c 1
EndSplineSet
EndChar
StartChar: ellipsis
Encoding: 133 8230 103
OldEncoding: 8230
Width: 524
VWidth: 2048
Flags: HW
HStem: -14 10G<52 82>
VStem: 23 88<27 33>
Fore
457 27 m 1
 457 2 442 -11 413 -14 c 1
 387 -14 372 -0 369 27 c 1
 369 57 383 72 413 72 c 0
 425 72 436 68 444 59 c 1
 451 51 455 41 457 27 c 1
284 27 m 1
 284 2 270 -12 240 -14 c 1
 214 -14 199 -0 196 27 c 1
 196 57 211 72 240 72 c 0
 252 72 263 68 271 59 c 1
 279 50 283 40 284 27 c 1
111 27 m 0
 111 -0 97 -14 67 -14 c 0
 38 -14 23 -0 23 27 c 0
 23 57 38 72 67 72 c 0
 97 72 111 57 111 27 c 0
EndSplineSet
EndChar
StartChar: uni0E48.low_left
Encoding: 134 63237 104
OldEncoding: 63237
Width: 0
Flags: HW
VStem: -167 38<402 553>
Fore
-167 402 m 1
 -167 553 l 1
 -129 553 l 1
 -129 402 l 1
 -167 402 l 1
EndSplineSet
EndChar
StartChar: uni0E49.low_left
Encoding: 135 63238 105
OldEncoding: 63238
Width: 0
Flags: HW
VStem: -294 244
Fore
-175 490 m 0
 -175 470 -178 454 -184 442 c 0
 -191 431 -196 423 -200 419 c 1
 -187 419 -174 421 -161 424 c 0
 -149 427 -137 433 -125 444 c 0
 -102 464 -91 497 -91 544 c 1
 -50 544 l 1
 -50 474 -74 427 -123 404 c 0
 -148 393 -175 387 -205 387 c 0
 -217 387 -229 388 -240 390 c 0
 -251 392 -259 393 -263 394 c 1
 -259 396 -253 401 -245 408 c 0
 -238 415 -232 425 -227 440 c 0
 -228 439 -230 439 -232 439 c 0
 -235 438 -238 438 -241 438 c 0
 -248 438 -253 439 -256 440 c 0
 -281 447 -294 465 -294 492 c 0
 -294 508 -288 521 -277 532 c 0
 -266 543 -252 548 -235 548 c 0
 -216 548 -202 542 -191 531 c 0
 -180 519 -175 505 -175 490 c 0
-235 519 m 0
 -244 519 -250 516 -255 511 c 0
 -260 506 -263 499 -263 492 c 0
 -263 485 -261 479 -256 474 c 0
 -251 468 -244 465 -235 465 c 0
 -230 465 -225 466 -220 469 c 0
 -216 472 -213 475 -211 479 c 0
 -209 483 -208 487 -208 492 c 0
 -208 500 -210 507 -215 512 c 0
 -220 517 -226 519 -235 519 c 0
EndSplineSet
EndChar
StartChar: uni0E4A.low_left
Encoding: 136 63239 106
OldEncoding: 63239
Width: 0
Flags: HW
VStem: -298 237
Fore
-244 400 m 0
 -260 401 -273 408 -283 422 c 0
 -293 436 -299 452 -298 471 c 0
 -298 488 -291 503 -282 515 c 0
 -273 526 -261 532 -244 532 c 0
 -237 532 -230 531 -225 529 c 0
 -220 526 -215 523 -211 520 c 0
 -208 517 -206 516 -206 515 c 1
 -206 515 l 1
 -204 518 -200 522 -194 526 c 0
 -188 530 -180 532 -171 532 c 0
 -155 532 -143 527 -136 516 c 0
 -129 505 -125 490 -125 471 c 0
 -125 454 -129 440 -138 428 c 1
 -134 430 -128 434 -120 439 c 0
 -113 444 -107 450 -102 457 c 0
 -94 470 -90 483 -90 496 c 0
 -90 502 -91 511 -94 523 c 1
 -65 534 l 1
 -62 525 -61 516 -61 507 c 0
 -61 481 -68 459 -81 440 c 0
 -98 415 -132 402 -181 402 c 1
 -178 407 -174 412 -169 418 c 0
 -165 423 -161 430 -157 438 c 0
 -154 446 -152 455 -152 465 c 0
 -152 476 -153 486 -156 494 c 0
 -159 501 -166 505 -177 505 c 0
 -184 505 -189 503 -194 498 c 0
 -199 493 -203 489 -204 486 c 1
 -204 486 -205 488 -208 491 c 0
 -211 494 -216 497 -221 500 c 0
 -226 503 -233 505 -240 505 c 0
 -248 505 -254 502 -259 497 c 0
 -264 491 -266 483 -266 474 c 1
 -265 475 -262 477 -257 478 c 0
 -253 479 -249 480 -244 480 c 0
 -232 480 -222 476 -215 468 c 0
 -208 461 -204 451 -204 438 c 0
 -204 429 -208 420 -216 412 c 0
 -224 404 -233 400 -244 400 c 0
-244 462 m 0
 -251 462 -257 460 -260 456 c 0
 -264 451 -266 446 -266 440 c 0
 -266 435 -264 430 -260 425 c 0
 -256 420 -251 418 -244 418 c 0
 -237 418 -232 420 -228 425 c 0
 -224 429 -222 434 -222 440 c 0
 -222 446 -224 451 -228 456 c 0
 -231 460 -237 462 -244 462 c 0
EndSplineSet
EndChar
StartChar: uni0E4B.low_left
Encoding: 137 63240 107
OldEncoding: 63240
Width: 0
Flags: HW
HStem: 469 33<-265 -198 -161 -94>
VStem: -198 37<402 469 502 569>
Fore
-198 469 m 1
 -265 469 l 1
 -265 502 l 1
 -198 502 l 1
 -198 569 l 1
 -161 569 l 1
 -161 502 l 1
 -94 502 l 1
 -94 469 l 1
 -161 469 l 1
 -161 402 l 1
 -198 402 l 1
 -198 469 l 1
EndSplineSet
EndChar
StartChar: uni0E4C.low_left
Encoding: 138 63241 108
OldEncoding: 63241
Width: 0
Flags: HW
VStem: -251 219
Fore
-218 484 m 0
 -217 488 -213 493 -206 499 c 0
 -199 505 -189 509 -176 509 c 0
 -159 510 -146 504 -137 494 c 0
 -127 483 -122 471 -122 457 c 0
 -122 442 -127 429 -136 418 c 0
 -146 407 -159 400 -176 400 c 0
 -200 399 -218 407 -231 420 c 0
 -244 433 -251 450 -251 471 c 0
 -251 509 -236 535 -205 548 c 1
 -192 555 -171 560 -143 562 c 0
 -115 564 -95 566 -84 570 c 0
 -73 574 -68 585 -68 602 c 1
 -32 602 l 1
 -32 585 -37 572 -46 562 c 0
 -55 551 -66 544 -78 540 c 0
 -91 535 -111 531 -137 530 c 0
 -164 528 -183 525 -194 520 c 0
 -206 515 -214 503 -218 484 c 0
-176 482 m 0
 -184 482 -190 480 -195 475 c 0
 -200 470 -202 464 -202 457 c 0
 -202 451 -200 445 -195 440 c 0
 -190 435 -184 432 -176 432 c 0
 -169 432 -163 435 -158 440 c 0
 -153 445 -151 451 -151 457 c 0
 -151 464 -153 470 -157 475 c 0
 -162 480 -168 482 -176 482 c 0
EndSplineSet
EndChar
StartChar: uni0E48.low
Encoding: 139 63242 109
OldEncoding: 63242
Width: 0
Flags: HW
VStem: -92 38<402 553>
Fore
-92 402 m 1
 -92 553 l 1
 -54 553 l 1
 -54 402 l 1
 -92 402 l 1
EndSplineSet
EndChar
StartChar: uni0E49.low
Encoding: 140 63243 110
OldEncoding: 63243
Width: 0
Flags: HW
VStem: -263 244
Fore
-144 490 m 0
 -144 470 -147 454 -153 442 c 0
 -160 431 -165 423 -169 419 c 1
 -155 419 -142 421 -130 424 c 0
 -118 427 -106 433 -94 444 c 0
 -71 464 -60 497 -60 544 c 1
 -19 544 l 1
 -19 474 -43 427 -92 404 c 0
 -117 393 -144 387 -174 387 c 0
 -185 387 -197 388 -208 390 c 0
 -219 392 -227 393 -231 394 c 1
 -227 396 -221 401 -213 408 c 0
 -206 415 -200 425 -196 440 c 0
 -197 439 -198 439 -201 439 c 0
 -204 438 -207 438 -210 438 c 0
 -216 438 -221 439 -225 440 c 0
 -250 447 -263 465 -263 492 c 0
 -263 508 -258 521 -247 532 c 0
 -236 543 -221 548 -204 548 c 0
 -185 548 -171 542 -160 531 c 0
 -149 519 -144 505 -144 490 c 0
-204 519 m 0
 -213 519 -220 516 -225 511 c 0
 -230 506 -232 499 -232 492 c 0
 -232 485 -230 479 -225 474 c 0
 -220 468 -213 465 -204 465 c 0
 -195 465 -189 468 -184 474 c 0
 -179 479 -177 485 -177 492 c 0
 -177 499 -179 506 -184 511 c 0
 -189 516 -195 519 -204 519 c 0
EndSplineSet
EndChar
StartChar: uni0E4A.low
Encoding: 141 63244 111
OldEncoding: 63244
Width: 0
Flags: HW
VStem: -258 237
Fore
-204 400 m 0
 -220 401 -233 408 -243 422 c 0
 -253 435 -259 452 -258 471 c 0
 -258 488 -251 503 -242 515 c 0
 -233 526 -221 532 -204 532 c 0
 -197 532 -190 531 -185 529 c 0
 -180 526 -175 523 -171 520 c 0
 -168 517 -166 516 -166 515 c 1
 -166 515 l 1
 -164 518 -160 522 -154 526 c 0
 -148 530 -140 532 -131 532 c 0
 -115 532 -103 527 -96 516 c 0
 -89 505 -85 490 -85 471 c 0
 -85 456 -89 441 -97 428 c 1
 -93 430 -87 434 -79 439 c 0
 -72 444 -66 450 -62 457 c 0
 -55 470 -51 484 -51 497 c 0
 -51 506 -52 515 -54 523 c 1
 -25 534 l 1
 -22 525 -21 516 -21 507 c 0
 -21 481 -28 459 -41 440 c 0
 -58 415 -92 402 -141 402 c 1
 -138 407 -134 412 -129 418 c 0
 -125 423 -121 430 -117 438 c 0
 -114 446 -112 455 -112 465 c 0
 -112 476 -113 486 -116 494 c 0
 -119 501 -126 505 -137 505 c 0
 -144 505 -150 503 -155 498 c 0
 -160 493 -163 489 -164 486 c 1
 -164 486 -165 488 -168 491 c 0
 -171 494 -176 497 -181 500 c 0
 -186 503 -192 505 -200 505 c 0
 -208 505 -214 502 -219 497 c 0
 -224 491 -226 483 -226 474 c 1
 -225 475 -222 477 -217 478 c 0
 -213 479 -209 480 -204 480 c 0
 -192 480 -182 476 -175 468 c 0
 -168 461 -164 451 -164 438 c 0
 -164 429 -168 420 -176 412 c 0
 -184 404 -193 400 -204 400 c 0
-204 462 m 0
 -211 462 -217 460 -221 456 c 0
 -224 451 -226 446 -226 440 c 0
 -226 435 -224 430 -220 425 c 0
 -217 420 -211 418 -204 418 c 0
 -197 418 -192 420 -188 425 c 0
 -184 429 -182 434 -182 440 c 0
 -182 446 -184 451 -188 456 c 0
 -191 460 -197 462 -204 462 c 0
EndSplineSet
EndChar
StartChar: uni0E4B.low
Encoding: 142 63245 112
OldEncoding: 63245
Width: 0
Flags: HW
HStem: 469 33<-211 -144 -106 -40>
VStem: -144 38<402 469 502 569>
Fore
-144 469 m 1
 -211 469 l 1
 -211 502 l 1
 -144 502 l 1
 -144 569 l 1
 -106 569 l 1
 -106 502 l 1
 -40 502 l 1
 -40 469 l 1
 -106 469 l 1
 -106 402 l 1
 -144 402 l 1
 -144 469 l 1
EndSplineSet
EndChar
StartChar: uni0E4C.low
Encoding: 143 63246 113
OldEncoding: 63246
Width: 0
Flags: HW
VStem: -229 219
Fore
-196 484 m 1
 -194 488 -190 493 -184 499 c 0
 -177 505 -167 509 -154 509 c 0
 -137 510 -123 504 -114 494 c 0
 -105 484 -100 472 -100 457 c 0
 -100 442 -105 429 -114 418 c 0
 -124 407 -137 400 -154 400 c 0
 -178 399 -196 406 -209 419 c 0
 -222 432 -229 450 -229 471 c 0
 -230 508 -214 534 -183 548 c 0
 -168 555 -147 560 -119 561 c 0
 -92 562 -73 565 -62 569 c 0
 -51 573 -45 584 -45 602 c 1
 -10 602 l 1
 -10 585 -15 572 -24 562 c 0
 -33 551 -44 544 -56 540 c 0
 -69 535 -89 531 -115 530 c 0
 -141 528 -160 525 -171 520 c 0
 -183 515 -191 503 -196 484 c 1
-154 482 m 0
 -162 482 -168 480 -172 475 c 0
 -177 470 -179 464 -179 457 c 0
 -179 450 -177 444 -172 439 c 0
 -167 434 -161 432 -154 432 c 0
 -147 432 -141 435 -136 440 c 0
 -131 445 -129 451 -129 457 c 0
 -129 464 -131 470 -135 475 c 0
 -140 480 -146 482 -154 482 c 0
EndSplineSet
EndChar
StartChar: uni0E0D.descless
Encoding: 144 63247 114
OldEncoding: 63247
Width: 475
Flags: HW
HStem: 0 36<204 246 288 350> 315 31<154.5 180.5>
VStem: 56 42<113 177 177 179> 246 42<36 250> 381 42<65 340>
Fore
56 56 m 2
 56 177 l 2
 56 216 70 240 98 250 c 1
 93 254 83 260 70 267 c 0
 57 274 40 279 21 284 c 1
 29 295 45 308 68 323 c 0
 91 338 123 346 163 346 c 0
 246 346 288 314 288 250 c 2
 288 36 l 1
 350 36 l 2
 363 36 372 38 375 42 c 1
 379 45 381 53 381 65 c 2
 381 340 l 1
 423 340 l 1
 423 65 l 2
 423 46 421 32 417 23 c 0
 413 14 406 8 396 5 c 0
 386 2 371 0 350 0 c 2
 204 0 l 1
 204 36 l 1
 246 36 l 1
 246 250 l 2
 246 271 239 288 225 299 c 0
 211 310 192 315 169 315 c 0
 140 315 110 307 81 290 c 1
 88 288 98 283 113 276 c 0
 128 269 141 260 154 248 c 1
 149 248 143 247 135 244 c 0
 127 241 119 235 110 225 c 0
 102 214 98 199 98 179 c 2
 98 113 l 1
 101 116 108 117 119 117 c 0
 138 117 152 111 163 99 c 0
 173 87 178 73 178 56 c 0
 178 39 173 25 163 13 c 0
 152 0 138 -6 119 -6 c 0
 101 -6 86 0 74 11 c 0
 62 22 56 37 56 56 c 2
118 25 m 0
 128 25 136 28 141 34 c 0
 146 40 149 47 149 56 c 0
 149 64 146 71 141 77 c 0
 135 83 127 86 118 86 c 0
 109 86 101 83 96 77 c 0
 90 71 87 64 87 56 c 0
 87 47 90 40 95 34 c 0
 101 28 109 25 118 25 c 0
EndSplineSet
EndChar
StartChar: quoteleft
Encoding: 145 8216 115
OldEncoding: 8216
Width: 121
VWidth: 2048
Flags: HW
Fore
-6 409 m 0
 -7 440 2 465 20 481 c 0
 38 498 58 508 80 512 c 1
 90 512 95 510 95 506 c 0
 95 505 94 503 92 501 c 1
 83 498 72 491 57 481 c 0
 42 472 34 460 32 446 c 1
 41 448 l 1
 54 451 l 1
 84 448 99 432 100 404 c 0
 100 391 96 379 87 370 c 0
 80 360 68 355 54 355 c 0
 16 355 -4 373 -6 409 c 0
EndSplineSet
EndChar
StartChar: quoteright
Encoding: 146 8217 116
OldEncoding: 8217
Width: 121
VWidth: 2048
Flags: HW
HStem: 503 10G<47 73>
Fore
113 449 m 4
 113 417 104 394 86 377 c 4
 68 361 48 351 26 347 c 5
 16 347 10 349 10 353 c 4
 10 354 11 356 14 358 c 5
 22 361 34 368 49 378 c 4
 63 386 72 398 75 413 c 5
 65 411 l 5
 53 408 l 5
 23 412 8 427 8 456 c 4
 8 469 12 480 21 489 c 4
 28 499 40 503 55 503 c 4
 92 503 112 485 113 449 c 4
EndSplineSet
EndChar
StartChar: quotedblleft
Encoding: 147 8220 117
OldEncoding: 8220
Width: 226
VWidth: 2048
Flags: HW
Fore
118 410 m 0
 118 441 126 466 144 483 c 0
 162 500 182 510 204 514 c 1
 214 514 220 512 220 508 c 1
 217 503 l 1
 216 502 l 2
 209 500 197 493 181 482 c 0
 167 474 158 462 156 447 c 1
 165 450 l 1
 177 452 l 1
 208 449 223 434 224 405 c 0
 224 392 220 381 211 372 c 0
 204 362 192 357 178 357 c 0
 140 356 120 374 118 410 c 0
-6 409 m 4
 -7 440 2 465 20 481 c 4
 38 498 58 508 80 512 c 5
 90 512 95 510 95 506 c 4
 95 505 94 503 92 501 c 5
 83 498 72 491 57 481 c 4
 42 472 34 460 32 446 c 5
 41 448 l 5
 54 451 l 5
 84 448 99 432 100 404 c 4
 100 391 96 379 87 370 c 4
 80 360 68 355 54 355 c 4
 16 355 -4 373 -6 409 c 4
EndSplineSet
EndChar
StartChar: quotedblright
Encoding: 148 8221 118
OldEncoding: 8221
Width: 226
VWidth: 2048
Flags: HW
HStem: 503 10G<47 73 171 198>
Fore
113 449 m 4
 113 418 104 394 86 377 c 4
 68 361 48 351 26 347 c 5
 15 347 10 349 10 353 c 4
 10 354 11 356 13 358 c 5
 21 361 33 368 50 378 c 4
 64 386 72 398 75 413 c 5
 66 411 l 5
 53 408 l 5
 23 412 8 427 8 456 c 4
 8 469 12 480 21 489 c 4
 28 499 40 503 54 503 c 4
 92 503 112 485 113 449 c 4
237 449 m 4
 237 417 229 394 210 377 c 4
 192 361 172 351 150 347 c 5
 140 347 135 349 135 353 c 4
 135 354 136 356 138 358 c 5
 146 361 158 368 174 378 c 4
 188 386 196 398 199 413 c 5
 190 411 l 5
 177 408 l 5
 147 412 132 427 132 456 c 4
 132 469 136 480 145 489 c 4
 152 499 164 503 178 503 c 4
 217 503 236 485 237 449 c 4
EndSplineSet
EndChar
StartChar: bullet
Encoding: 149 8226 119
OldEncoding: 8226
Width: 180
VWidth: 2048
Flags: HW
Fore
85 102 m 0
 55 102 31 112 14 131 c 0
 -3 150 -11 172 -11 198 c 0
 -11 215 -7 231 0 245 c 0
 9 260 20 272 33 281 c 0
 47 290 65 294 85 294 c 0
 106 294 124 290 138 281 c 0
 152 272 163 260 171 246 c 1
 178 231 181 215 181 198 c 0
 181 172 173 149 156 130 c 0
 140 112 116 102 85 102 c 0
EndSplineSet
EndChar
StartChar: endash
Encoding: 150 8211 120
OldEncoding: 8211
Width: 532
VWidth: 2048
Flags: HW
HStem: 171 28<-18 519>
Fore
-18 171 m 1
 -18 199 l 1
 519 199 l 1
 519 171 l 1
 -18 171 l 1
EndSplineSet
EndChar
StartChar: emdash
Encoding: 151 8212 121
OldEncoding: 8212
Width: 1065
VWidth: 2048
Flags: HW
HStem: 171 28<-50 1051>
Fore
-50 171 m 1
 -50 199 l 1
 1051 199 l 1
 1051 171 l 1
 -50 171 l 1
EndSplineSet
EndChar
StartChar: uni0E31.left
Encoding: 152 63248 122
OldEncoding: 63248
Width: 0
Flags: HW
VStem: -279 300
Fore
-279 476 m 1
 -279 495 -274 511 -264 523 c 0
 -254 536 -240 542 -221 542 c 0
 -202 542 -188 536 -177 525 c 0
 -166 514 -161 500 -161 484 c 0
 -161 467 -167 453 -179 442 c 1
 -176 441 -170 440 -162 439 c 0
 -154 438 -148 437 -144 437 c 0
 -114 438 -87 448 -63 465 c 0
 -38 483 -22 505 -15 532 c 1
 21 515 l 1
 15 496 4 477 -12 460 c 0
 -29 443 -49 429 -72 418 c 0
 -95 407 -120 402 -146 402 c 0
 -181 402 -211 408 -236 419 c 0
 -261 431 -276 450 -279 476 c 1
-221 455 m 0
 -212 455 -205 458 -200 464 c 0
 -195 469 -192 476 -192 484 c 0
 -192 492 -194 499 -199 505 c 0
 -204 510 -212 513 -221 513 c 0
 -230 513 -238 510 -243 505 c 0
 -248 499 -250 492 -250 484 c 0
 -250 477 -247 470 -242 464 c 0
 -237 458 -230 455 -221 455 c 0
EndSplineSet
EndChar
StartChar: uni0E4D.left
Encoding: 153 63249 123
OldEncoding: 63249
Width: 0
Flags: HW
VStem: -270 123<435.5 452>
Fore
-208 382 m 0
 -227 382 -242 388 -253 401 c 0
 -264 413 -270 427 -270 444 c 0
 -270 460 -264 474 -253 486 c 0
 -242 499 -227 505 -208 505 c 0
 -189 505 -174 499 -163 487 c 0
 -152 475 -147 461 -147 444 c 0
 -147 427 -152 412 -163 400 c 0
 -174 388 -189 382 -208 382 c 0
-208 477 m 0
 -219 477 -227 474 -233 467 c 0
 -239 460 -242 453 -242 444 c 0
 -242 435 -239 427 -233 420 c 0
 -227 413 -219 410 -208 410 c 0
 -197 410 -189 413 -183 420 c 0
 -177 427 -174 435 -174 444 c 0
 -174 449 -175 454 -178 459 c 0
 -181 464 -185 469 -190 472 c 0
 -195 475 -201 477 -208 477 c 0
EndSplineSet
EndChar
StartChar: uni0E47.left
Encoding: 154 63250 124
OldEncoding: 63250
Width: 0
Flags: HW
VStem: -346 236
Fore
-167 402 m 0
 -176 402 -184 404 -192 409 c 0
 -201 414 -210 420 -220 428 c 0
 -229 435 -237 441 -243 445 c 0
 -248 448 -254 450 -261 450 c 0
 -276 449 -286 443 -291 431 c 0
 -296 418 -299 408 -300 400 c 1
 -313 407 -324 418 -333 434 c 0
 -342 450 -346 466 -346 482 c 0
 -346 492 -345 500 -342 507 c 0
 -331 533 -305 546 -264 546 c 0
 -253 546 -244 546 -238 545 c 0
 -223 543 -209 542 -196 542 c 0
 -178 542 -164 545 -155 552 c 0
 -146 558 -142 569 -142 586 c 1
 -110 586 l 1
 -110 559 -117 541 -131 530 c 0
 -146 519 -169 514 -202 514 c 0
 -215 514 -231 515 -248 517 c 1
 -271 517 -288 515 -299 510 c 0
 -310 505 -316 497 -316 484 c 0
 -316 475 -313 465 -307 452 c 1
 -305 457 -300 463 -293 471 c 0
 -286 478 -275 482 -261 482 c 0
 -250 482 -239 479 -230 474 c 0
 -221 468 -215 463 -211 459 c 1
 -204 481 -190 492 -167 492 c 0
 -153 492 -142 488 -134 479 c 0
 -126 470 -122 460 -122 448 c 0
 -122 436 -126 425 -134 416 c 0
 -142 407 -153 402 -167 402 c 0
-167 425 m 0
 -160 425 -154 427 -150 432 c 0
 -147 436 -145 441 -145 448 c 0
 -145 455 -147 460 -150 464 c 0
 -154 468 -160 470 -167 470 c 0
 -174 470 -179 468 -184 464 c 1
 -188 459 -190 454 -190 448 c 0
 -190 442 -188 437 -184 432 c 0
 -180 427 -174 425 -167 425 c 0
EndSplineSet
EndChar
StartChar: uni0E48.left
Encoding: 155 63251 125
OldEncoding: 63251
Width: 0
Flags: HW
VStem: -163 38<619 736>
Fore
-163 619 m 1
 -163 736 l 1
 -125 736 l 1
 -125 619 l 1
 -163 619 l 1
EndSplineSet
EndChar
StartChar: uni0E49.left
Encoding: 156 63252 126
OldEncoding: 63252
Width: 0
Flags: HW
VStem: -270 218
Fore
-163 681 m 0
 -162 664 -166 650 -171 639 c 0
 -177 628 -182 621 -186 618 c 1
 -177 618 -170 619 -163 620 c 0
 -156 621 -149 622 -142 625 c 0
 -135 628 -127 633 -118 640 c 0
 -106 651 -98 663 -94 678 c 0
 -91 693 -89 710 -89 730 c 1
 -52 730 l 1
 -52 667 -73 626 -116 605 c 0
 -137 594 -162 589 -191 589 c 0
 -203 589 -214 590 -223 591 c 0
 -232 593 -239 594 -242 595 c 1
 -238 597 -233 601 -226 607 c 0
 -219 614 -213 623 -210 636 c 1
 -211 636 -212 636 -214 635 c 0
 -217 634 -220 634 -223 634 c 0
 -226 634 -231 635 -236 636 c 0
 -259 643 -270 659 -270 684 c 0
 -270 693 -268 702 -264 709 c 0
 -259 717 -253 723 -245 728 c 0
 -237 732 -228 734 -218 734 c 0
 -201 734 -187 729 -178 719 c 0
 -169 708 -163 696 -163 681 c 0
-218 708 m 0
 -225 708 -231 706 -236 701 c 0
 -240 696 -242 691 -242 684 c 0
 -242 677 -240 671 -236 667 c 0
 -231 662 -225 659 -218 659 c 0
 -210 659 -204 662 -199 667 c 0
 -195 672 -193 677 -193 684 c 0
 -193 690 -195 696 -199 701 c 0
 -204 706 -210 708 -218 708 c 0
EndSplineSet
EndChar
StartChar: uni0E4A.left
Encoding: 157 63253 127
OldEncoding: 63253
Width: 0
Flags: HW
HStem: 601 129<-194.5 -175.5>
VStem: -317 237
Fore
-263 598 m 0
 -279 599 -292 607 -302 621 c 0
 -312 635 -318 651 -317 669 c 0
 -317 686 -310 701 -301 712 c 0
 -292 724 -280 730 -263 730 c 0
 -256 730 -250 729 -245 727 c 0
 -239 724 -234 721 -230 718 c 0
 -227 715 -225 713 -225 713 c 1
 -223 716 -219 719 -213 724 c 0
 -207 728 -199 730 -190 730 c 0
 -159 730 -144 710 -144 669 c 0
 -144 654 -148 640 -156 626 c 1
 -151 628 -145 632 -138 637 c 0
 -131 642 -125 648 -121 655 c 0
 -113 667 -109 680 -109 695 c 0
 -109 700 -110 709 -113 722 c 1
 -83 732 l 1
 -81 726 -80 718 -80 707 c 0
 -80 680 -87 657 -100 638 c 0
 -117 613 -151 601 -200 601 c 1
 -197 605 -193 610 -188 616 c 0
 -184 621 -180 628 -177 636 c 0
 -173 644 -171 653 -171 663 c 0
 -171 675 -172 685 -175 692 c 0
 -178 699 -185 703 -196 703 c 0
 -203 703 -208 701 -213 696 c 0
 -218 691 -222 687 -223 684 c 1
 -225 687 -229 691 -234 696 c 0
 -239 701 -248 703 -259 703 c 0
 -267 703 -273 700 -278 695 c 0
 -283 690 -285 682 -285 672 c 1
 -284 673 -281 674 -277 676 c 0
 -273 677 -268 678 -263 678 c 0
 -250 678 -240 674 -233 667 c 0
 -226 660 -223 649 -223 636 c 0
 -223 627 -227 618 -235 610 c 0
 -243 602 -252 598 -263 598 c 0
-263 660 m 0
 -270 660 -275 658 -279 653 c 0
 -283 648 -285 643 -285 638 c 0
 -285 632 -283 627 -279 623 c 0
 -275 618 -270 616 -263 616 c 0
 -256 616 -250 618 -247 623 c 1
 -243 626 -241 631 -241 638 c 0
 -241 644 -243 649 -247 654 c 0
 -250 658 -256 660 -263 660 c 0
EndSplineSet
EndChar
StartChar: uni0E4B.left
Encoding: 158 63254 128
OldEncoding: 63254
Width: 0
Flags: HW
HStem: 650 34<-225 -163 -125 -62>
VStem: -163 38<601 650 684 734>
Fore
-163 650 m 1
 -225 650 l 1
 -225 684 l 1
 -163 684 l 1
 -163 734 l 1
 -125 734 l 1
 -125 684 l 1
 -62 684 l 1
 -62 650 l 1
 -125 650 l 1
 -125 601 l 1
 -163 601 l 1
 -163 650 l 1
EndSplineSet
EndChar
StartChar: uni0E4C.left
Encoding: 159 63255 129
OldEncoding: 63255
Width: 0
Flags: HW
VStem: -222 187
Fore
-193 631 m 0
 -192 634 -188 639 -183 644 c 0
 -178 649 -169 651 -158 652 c 1
 -144 651 -133 647 -124 638 c 0
 -116 629 -112 619 -112 606 c 0
 -112 594 -116 583 -124 574 c 0
 -132 565 -143 559 -158 559 c 0
 -178 558 -194 565 -205 576 c 0
 -216 587 -222 601 -222 620 c 0
 -222 651 -209 674 -183 686 c 0
 -171 692 -153 695 -130 696 c 0
 -107 697 -90 700 -80 704 c 0
 -70 707 -65 717 -65 732 c 1
 -35 732 l 1
 -35 717 -39 706 -47 697 c 0
 -55 688 -64 682 -74 679 c 0
 -87 674 -104 671 -125 670 c 0
 -146 669 -162 666 -172 662 c 0
 -183 658 -190 648 -193 631 c 0
-158 628 m 0
 -172 628 -179 621 -179 607 c 0
 -179 602 -177 597 -173 593 c 0
 -170 588 -165 586 -158 586 c 0
 -151 586 -146 588 -142 592 c 0
 -138 597 -136 602 -136 607 c 0
 -136 613 -138 618 -142 622 c 0
 -145 626 -151 628 -158 628 c 0
EndSplineSet
EndChar
StartChar: uni0E01
Encoding: 161 3585 131
OldEncoding: 3585
Width: 363
Flags: HW
HStem: 0 20 310 36<158 184.5>
VStem: 56 42<0 169 169 171> 269 42<0 236>
Fore
21 267 m 1
 30 280 48 297 74 317 c 0
 100 336 134 346 175 346 c 0
 200 346 223 342 244 334 c 0
 265 326 281 314 293 297 c 0
 305 280 311 259 311 236 c 2
 311 0 l 1
 269 0 l 1
 269 236 l 2
 269 251 265 264 256 275 c 0
 248 286 237 295 223 301 c 0
 209 307 193 310 176 310 c 0
 140 310 109 299 83 277 c 1
 89 276 99 272 113 266 c 0
 127 260 140 251 152 240 c 1
 143 238 132 232 119 222 c 0
 105 212 98 195 98 171 c 2
 98 0 l 1
 56 0 l 1
 56 169 l 2
 56 189 60 204 67 215 c 0
 75 225 85 233 96 238 c 1
 91 242 83 247 70 254 c 0
 57 261 40 266 21 267 c 1
EndSplineSet
EndChar
StartChar: uni0E02
Encoding: 162 3586 132
OldEncoding: 3586
Width: 369
Flags: HW
HStem: 0 36<106 148 190 244> 326 20<110 131.5>
VStem: 148 42<36 150> 275 42<65 340>
Fore
121 346 m 0
 142 346 160 342 175 334 c 0
 190 325 202 314 211 301 c 0
 219 288 223 274 223 259 c 0
 223 246 222 236 219 229 c 0
 216 222 212 215 207 206 c 0
 201 197 197 190 194 183 c 0
 191 176 190 165 190 150 c 2
 190 36 l 1
 244 36 l 2
 257 36 266 38 270 42 c 0
 273 45 275 53 275 65 c 2
 275 340 l 1
 317 340 l 1
 317 65 l 2
 317 38 312 20 303 12 c 0
 293 4 273 0 244 0 c 2
 106 0 l 1
 106 36 l 1
 148 36 l 1
 148 156 l 2
 148 168 149 178 152 185 c 0
 154 191 158 198 164 207 c 0
 170 215 175 222 178 229 c 0
 181 236 183 245 184 256 c 0
 184 273 179 287 168 298 c 0
 157 309 143 314 128 314 c 0
 125 314 120 313 113 312 c 1
 119 311 126 306 135 298 c 0
 144 290 149 276 148 256 c 0
 148 238 140 224 128 215 c 0
 115 205 98 200 77 200 c 1
 40 205 21 230 21 275 c 1
 24 296 36 314 57 327 c 0
 78 340 99 346 121 346 c 0
86 294 m 0
 76 294 68 291 63 285 c 0
 58 279 55 272 55 263 c 0
 55 255 58 248 63 242 c 0
 68 235 76 232 86 232 c 0
 96 232 104 235 109 242 c 0
 114 248 117 255 117 263 c 0
 117 272 114 279 109 285 c 0
 104 291 96 294 86 294 c 0
EndSplineSet
EndChar
StartChar: uni0E03
Encoding: 163 3587 133
OldEncoding: 3587
Width: 392
Flags: HW
HStem: 0 36<129 171 213 267> 326 20<87.5 94 177 177>
VStem: 171 42<36 217> 298 42<65 340>
Fore
244 282 m 0
 244 275 243 269 240 265 c 0
 237 261 234 257 229 252 c 0
 224 248 220 243 217 238 c 0
 214 233 213 226 213 217 c 2
 213 36 l 1
 267 36 l 2
 280 36 289 38 292 42 c 1
 296 45 298 53 298 65 c 2
 298 340 l 1
 340 340 l 1
 340 65 l 2
 340 38 335 20 326 12 c 0
 317 4 297 0 267 0 c 2
 129 0 l 1
 129 36 l 1
 171 36 l 1
 171 219 l 2
 171 231 172 240 175 247 c 0
 178 253 182 258 186 262 c 0
 189 265 195 269 202 274 c 0
 206 277 208 280 208 285 c 0
 208 290 205 297 198 304 c 0
 191 310 185 314 179 315 c 1
 138 287 l 1
 90 315 l 1
 76 312 65 304 58 293 c 0
 50 282 46 272 46 263 c 1
 47 265 51 267 56 270 c 0
 61 273 68 274 78 274 c 0
 95 273 110 268 122 259 c 0
 134 249 140 234 140 213 c 0
 140 194 133 179 120 168 c 0
 107 157 92 152 77 152 c 0
 57 152 39 160 26 175 c 0
 12 191 6 211 6 236 c 0
 6 251 8 266 13 279 c 1
 18 299 30 315 48 328 c 0
 65 340 81 346 94 346 c 1
 138 319 l 1
 177 346 l 1
 194 341 209 333 223 322 c 0
 237 311 244 297 244 282 c 0
77 245 m 0
 68 245 60 242 55 236 c 0
 49 230 46 223 46 214 c 0
 46 206 49 199 55 193 c 0
 60 186 68 183 77 183 c 0
 87 183 95 186 100 192 c 0
 105 199 108 206 108 214 c 0
 108 223 105 230 100 236 c 0
 95 242 87 245 77 245 c 0
EndSplineSet
EndChar
StartChar: uni0E04
Encoding: 164 3588 134
OldEncoding: 3588
Width: 367
Flags: HW
HStem: 0 20 315 34<159.5 183>
VStem: 25 41<219 239.5> 86 41<0 61 61 68.5> 273 42<0 227 227 231>
Fore
66 225 m 0
 66 213 70 199 77 184 c 0
 84 169 88 157 90 148 c 1
 90 180 l 2
 90 205 96 225 109 241 c 0
 122 257 141 265 165 265 c 0
 184 265 199 259 210 247 c 0
 221 235 226 220 226 203 c 0
 226 186 221 172 210 160 c 0
 199 148 184 142 165 142 c 0
 148 142 135 146 127 154 c 1
 127 0 l 1
 86 0 l 1
 86 61 l 2
 86 76 84 89 79 101 c 0
 74 112 66 126 55 143 c 0
 44 160 37 174 32 186 c 0
 27 197 25 211 25 227 c 0
 25 253 32 275 46 293 c 0
 60 312 78 326 101 335 c 0
 123 344 147 349 172 349 c 0
 211 349 244 338 272 318 c 0
 301 297 315 269 315 231 c 2
 315 0 l 1
 273 0 l 1
 273 227 l 2
 273 255 263 277 242 292 c 0
 221 307 197 315 169 315 c 0
 140 315 116 307 96 292 c 0
 76 277 66 254 66 225 c 0
165 234 m 0
 155 234 147 231 142 225 c 0
 137 219 134 212 134 203 c 0
 134 195 137 188 142 182 c 0
 147 175 155 172 165 172 c 0
 175 172 183 175 188 182 c 0
 193 188 196 195 196 203 c 0
 196 212 193 219 188 225 c 0
 183 231 175 234 165 234 c 0
EndSplineSet
EndChar
StartChar: uni0E05
Encoding: 165 3589 135
OldEncoding: 3589
Width: 367
Flags: HW
HStem: 0 20 326 20<121 121 236 236>
VStem: 86 41<0 61 61 68.5> 273 42<0 227 227 231>
Fore
25 227 m 0
 25 250 34 273 53 295 c 0
 72 317 94 334 121 346 c 1
 179 307 l 1
 236 346 l 1
 289 321 315 282 315 231 c 2
 315 0 l 1
 273 0 l 1
 273 227 l 2
 273 242 272 255 270 265 c 0
 267 275 264 283 260 288 c 0
 257 293 252 297 247 301 c 0
 242 305 237 308 234 311 c 1
 179 275 l 1
 179 276 172 280 159 289 c 0
 146 298 134 305 125 311 c 1
 104 301 90 289 81 275 c 0
 72 260 67 244 66 225 c 0
 66 213 70 199 77 184 c 0
 84 169 88 157 90 148 c 1
 90 180 l 2
 90 205 96 225 109 241 c 0
 122 257 141 265 165 265 c 0
 184 265 199 259 210 247 c 0
 221 235 226 220 226 203 c 0
 226 186 221 172 210 160 c 0
 199 148 184 142 165 142 c 0
 148 142 135 146 127 154 c 1
 127 0 l 1
 86 0 l 1
 86 61 l 2
 86 76 84 89 79 101 c 0
 74 112 66 126 55 143 c 0
 44 160 37 174 32 186 c 0
 27 197 25 211 25 227 c 0
165 234 m 0
 155 234 147 231 142 225 c 0
 137 219 134 212 134 203 c 0
 134 195 137 188 142 182 c 0
 147 175 155 172 165 172 c 0
 175 172 183 175 188 182 c 0
 193 188 196 195 196 203 c 0
 196 212 193 219 188 225 c 0
 183 231 175 234 165 234 c 0
EndSplineSet
EndChar
StartChar: uni0E06
Encoding: 166 3590 136
OldEncoding: 3590
Width: 459
Flags: HW
HStem: -6 20 326 20<95.5 102 186 186>
VStem: 179 42<46 52 52 115 148 217> 365 42<0 6.5 71 340>
Fore
179 148 m 1
 179 219 l 2
 179 230 181 240 184 247 c 0
 187 254 190 259 195 263 c 0
 199 266 204 270 211 274 c 0
 215 277 217 280 217 285 c 0
 217 291 214 297 207 304 c 0
 200 310 193 314 188 315 c 1
 146 287 l 1
 98 315 l 1
 85 312 75 304 66 293 c 0
 58 282 54 272 54 263 c 1
 56 265 59 267 64 270 c 0
 69 273 77 274 86 274 c 0
 103 273 118 268 130 258 c 0
 142 249 148 234 148 213 c 0
 148 194 141 179 128 168 c 0
 115 157 101 152 86 152 c 0
 65 152 48 160 35 175 c 0
 22 191 15 211 15 236 c 0
 15 250 17 264 21 279 c 0
 27 299 39 315 56 328 c 0
 73 340 89 346 102 346 c 1
 146 319 l 1
 186 346 l 1
 202 341 217 333 231 322 c 0
 245 311 252 297 252 282 c 0
 252 275 251 269 248 265 c 0
 245 261 242 257 237 252 c 0
 232 247 228 243 225 238 c 0
 222 233 221 226 221 217 c 2
 221 148 l 1
 243 146 264 141 284 132 c 0
 303 124 320 114 334 103 c 0
 348 91 358 80 365 71 c 1
 365 340 l 1
 407 340 l 1
 407 0 l 1
 365 0 l 1
 365 13 359 28 346 45 c 0
 333 62 315 78 292 91 c 0
 270 104 246 112 221 115 c 1
 221 52 l 2
 221 34 216 20 207 10 c 0
 197 -1 183 -6 165 -6 c 0
 145 -6 129 1 118 16 c 0
 107 30 101 47 101 67 c 0
 101 88 108 107 122 123 c 0
 135 138 154 147 179 148 c 1
146 38 m 0
 151 32 157 29 164 29 c 0
 174 29 179 35 179 46 c 2
 179 117 l 1
 165 117 154 112 147 103 c 0
 140 93 136 82 136 69 c 0
 136 56 139 45 146 38 c 0
86 245 m 0
 76 245 68 242 63 236 c 0
 58 231 55 223 55 214 c 0
 55 206 58 199 63 192 c 0
 68 186 76 183 86 183 c 0
 96 183 104 186 109 192 c 0
 114 198 117 205 117 214 c 0
 117 223 114 231 109 236 c 0
 104 242 96 245 86 245 c 0
EndSplineSet
EndChar
StartChar: uni0E07
Encoding: 167 3591 137
OldEncoding: 3591
Width: 288
Flags: HW
HStem: -7 20 324 20<164.5 180.5>
VStem: 194 42<47 225 225 225>
Fore
194 47 m 2
 194 225 l 1
 189 222 183 221 174 221 c 0
 155 221 140 227 129 240 c 0
 118 252 113 266 113 283 c 0
 113 300 118 315 129 327 c 0
 140 338 155 344 174 344 c 0
 187 344 198 341 207 336 c 0
 216 331 224 323 229 314 c 0
 234 305 236 294 236 282 c 2
 236 44 l 2
 236 28 231 15 221 6 c 0
 211 -3 198 -7 183 -7 c 0
 172 -7 162 -5 152 0 c 0
 143 5 133 12 127 23 c 2
 15 213 l 1
 48 231 l 1
 161 42 l 2
 165 35 171 31 179 31 c 0
 184 31 187 32 190 35 c 0
 193 38 194 42 194 47 c 2
174 313 m 0
 165 313 157 310 152 304 c 0
 146 297 143 290 143 283 c 0
 143 275 146 268 151 262 c 0
 157 255 165 252 174 252 c 0
 184 252 192 255 198 262 c 0
 203 268 206 275 206 283 c 0
 206 290 203 297 197 304 c 0
 191 310 183 313 174 313 c 0
EndSplineSet
EndChar
StartChar: uni0E08
Encoding: 168 3592 138
OldEncoding: 3592
Width: 342
Flags: HW
HStem: 0 20 314 32<155 168.5>
VStem: 248 42<0 9.5 138 234>
Fore
144 248 m 0
 164 248 181 242 196 227 c 0
 211 212 221 195 231 174 c 0
 240 154 247 142 248 138 c 1
 248 234 l 2
 248 259 239 279 222 292 c 0
 204 306 182 314 155 314 c 0
 110 315 74 296 48 259 c 1
 21 280 l 1
 31 297 48 312 72 326 c 0
 96 339 124 346 156 346 c 0
 181 346 204 342 225 333 c 0
 245 324 261 312 272 295 c 0
 284 278 290 258 290 234 c 2
 290 0 l 1
 248 0 l 1
 248 19 246 40 241 62 c 0
 236 83 229 103 222 121 c 0
 214 139 206 152 199 161 c 1
 197 155 192 148 184 139 c 0
 175 130 162 125 144 124 c 0
 127 124 112 130 101 142 c 0
 89 154 83 169 83 188 c 0
 83 206 89 220 100 231 c 0
 111 242 125 248 144 248 c 0
144 215 m 0
 134 215 126 212 121 206 c 0
 116 200 113 193 113 185 c 0
 113 177 116 170 122 164 c 0
 127 157 135 154 144 154 c 0
 153 154 161 157 166 163 c 0
 171 169 174 176 174 185 c 0
 174 193 172 200 167 206 c 0
 162 212 154 215 144 215 c 0
EndSplineSet
EndChar
StartChar: uni0E09
Encoding: 169 3593 139
OldEncoding: 3593
Width: 392
Flags: HW
HStem: -6 20 313 33<176.5 201.5>
VStem: 102 42<0 7 73 119 119 119> 277 42<34 36 36 113 146 234>
Fore
144 175 m 2
 144 73 l 1
 159 94 179 110 204 123 c 0
 228 135 252 143 277 146 c 1
 277 234 l 2
 277 259 269 279 253 292 c 0
 237 306 215 313 188 313 c 0
 165 313 144 307 125 296 c 0
 107 285 93 271 83 256 c 1
 56 277 l 1
 69 296 86 313 109 326 c 0
 132 339 159 346 188 346 c 0
 227 346 259 336 283 316 c 0
 307 297 319 269 319 234 c 2
 319 146 l 1
 340 142 357 133 368 120 c 0
 379 106 384 88 384 67 c 0
 384 46 378 28 365 15 c 0
 352 1 336 -6 317 -6 c 0
 305 -6 295 -2 288 5 c 0
 281 12 277 22 277 34 c 2
 277 113 l 1
 252 108 230 100 209 88 c 0
 188 75 172 61 161 45 c 0
 150 29 144 14 144 0 c 1
 102 0 l 1
 102 119 l 1
 98 116 92 115 83 115 c 0
 64 115 49 121 38 134 c 0
 27 146 21 160 21 177 c 0
 21 194 26 208 37 220 c 0
 48 232 63 238 83 238 c 0
 102 238 116 232 127 220 c 0
 138 208 144 193 144 175 c 2
83 207 m 0
 73 207 65 204 60 198 c 0
 55 192 52 185 52 176 c 0
 52 167 55 160 60 154 c 0
 65 148 73 145 83 145 c 0
 93 145 101 148 106 154 c 0
 111 161 114 168 114 176 c 0
 114 185 111 192 106 198 c 0
 101 204 93 207 83 207 c 0
352 67 m 0
 352 79 349 90 344 99 c 0
 338 107 330 112 319 113 c 1
 319 36 l 2
 319 30 321 27 325 27 c 0
 332 27 339 31 344 39 c 0
 349 47 352 56 352 67 c 0
EndSplineSet
EndChar
StartChar: uni0E0A
Encoding: 170 3594 140
OldEncoding: 3594
Width: 369
Flags: HW
HStem: 0 36<106 148 190 244>
VStem: 148 42<36 150> 275 42<65 196 196 204>
Fore
269 273 m 1
 272 273 278 272 285 269 c 0
 292 266 299 260 306 249 c 0
 313 238 317 223 317 204 c 2
 317 65 l 2
 317 38 312 20 303 12 c 0
 293 4 273 0 244 0 c 2
 106 0 l 1
 106 36 l 1
 148 36 l 1
 148 156 l 2
 148 168 149 178 152 185 c 0
 154 191 158 198 164 207 c 0
 170 215 175 222 178 229 c 0
 181 236 183 245 184 256 c 0
 184 273 179 287 168 298 c 0
 157 309 143 314 128 314 c 0
 125 314 120 313 113 312 c 1
 119 311 126 306 135 298 c 0
 144 290 149 276 148 256 c 0
 148 238 140 224 128 215 c 0
 115 205 98 200 77 200 c 1
 40 205 21 230 21 275 c 1
 24 296 36 314 57 327 c 0
 78 340 99 346 121 346 c 0
 137 346 152 343 165 338 c 0
 178 333 189 325 198 316 c 0
 207 307 213 297 217 286 c 1
 227 286 243 291 264 302 c 0
 285 312 306 333 325 365 c 1
 355 346 l 1
 344 323 330 305 312 294 c 0
 293 283 279 276 269 273 c 1
222 256 m 1
 222 245 221 235 218 228 c 0
 215 221 212 213 207 206 c 0
 202 198 197 190 194 182 c 0
 191 174 190 163 190 150 c 2
 190 36 l 1
 244 36 l 2
 257 36 266 38 270 42 c 0
 273 45 275 53 275 65 c 2
 275 196 l 2
 275 236 257 256 222 256 c 1
86 294 m 0
 76 294 68 291 63 285 c 0
 58 279 55 272 55 263 c 0
 55 255 58 248 63 242 c 0
 68 235 76 232 86 232 c 0
 96 232 104 235 109 242 c 0
 114 248 117 255 117 263 c 0
 117 272 114 279 109 285 c 0
 104 291 96 294 86 294 c 0
EndSplineSet
EndChar
StartChar: uni0E0B
Encoding: 171 3595 141
OldEncoding: 3595
Width: 392
Flags: HW
HStem: 0 36<129 171 213 267>
VStem: 171 42<36 217> 298 42<65 204>
Fore
244 292 m 1
 255 295 272 302 293 315 c 0
 314 327 333 347 348 375 c 1
 379 355 l 1
 371 340 360 325 347 314 c 0
 333 302 321 295 311 290 c 0
 300 284 293 280 288 279 c 1
 297 278 308 272 321 263 c 0
 334 253 340 233 340 204 c 2
 340 65 l 2
 340 38 335 20 326 12 c 0
 317 4 297 0 267 0 c 2
 129 0 l 1
 129 36 l 1
 171 36 l 1
 171 219 l 2
 171 235 174 246 179 253 c 0
 184 260 192 267 202 274 c 0
 206 277 208 280 208 285 c 0
 208 290 205 297 198 304 c 0
 191 310 185 314 179 315 c 1
 138 287 l 1
 90 315 l 1
 76 312 65 304 58 293 c 0
 50 282 46 272 46 263 c 1
 47 265 51 267 56 270 c 0
 61 273 68 274 78 274 c 0
 95 273 110 268 122 259 c 0
 134 249 140 234 140 213 c 0
 140 194 133 179 120 168 c 0
 107 157 92 152 77 152 c 0
 57 152 39 160 26 175 c 0
 12 191 6 211 6 236 c 0
 6 251 8 266 13 279 c 1
 18 299 30 315 48 328 c 0
 65 340 81 346 94 346 c 1
 138 319 l 1
 177 346 l 1
 192 343 204 338 213 330 c 0
 223 322 231 314 236 305 c 0
 241 297 244 293 244 292 c 1
 244 292 l 1
240 263 m 1
 237 260 234 256 229 252 c 0
 223 248 219 244 217 239 c 0
 214 234 213 227 213 217 c 2
 213 36 l 1
 267 36 l 2
 280 36 289 38 292 42 c 1
 296 45 298 53 298 65 c 2
 298 204 l 2
 298 243 279 263 240 263 c 1
77 245 m 0
 68 245 60 242 55 236 c 0
 49 230 46 223 46 214 c 0
 46 206 49 199 55 193 c 0
 60 186 68 183 77 183 c 0
 87 183 95 186 100 192 c 0
 105 199 108 206 108 214 c 0
 108 223 105 230 100 236 c 0
 95 242 87 245 77 245 c 0
EndSplineSet
EndChar
StartChar: uni0E0C
Encoding: 172 3596 142
OldEncoding: 3596
Width: 475
Flags: HW
HStem: -6 20 315 31<154.5 180.5>
VStem: 56 42<113 177 177 179> 246 42<40 91 125 250> 381 42<61 340>
Fore
98 179 m 2
 98 113 l 1
 101 116 108 117 119 117 c 0
 138 117 152 111 163 99 c 0
 173 87 178 73 178 56 c 0
 178 39 173 25 163 13 c 0
 152 0 138 -6 119 -6 c 0
 101 -6 86 0 74 11 c 0
 62 22 56 37 56 56 c 2
 56 177 l 2
 56 216 70 240 98 250 c 1
 93 254 83 260 70 267 c 0
 57 274 40 279 21 284 c 1
 29 295 45 308 68 323 c 0
 91 338 123 346 163 346 c 0
 246 346 288 314 288 250 c 2
 288 124 l 1
 303 121 320 114 338 103 c 0
 357 91 371 77 381 61 c 1
 381 340 l 1
 423 340 l 1
 423 0 l 1
 381 0 l 1
 377 10 372 20 366 31 c 0
 359 41 349 52 336 64 c 0
 323 75 307 84 288 91 c 1
 288 38 l 2
 288 9 275 -6 248 -6 c 0
 231 -6 218 1 208 14 c 0
 199 27 194 43 194 62 c 0
 194 79 199 94 208 106 c 0
 217 118 229 124 246 125 c 1
 246 250 l 2
 246 271 239 288 225 299 c 0
 211 310 192 315 169 315 c 0
 140 315 110 307 81 290 c 1
 88 288 98 283 113 276 c 0
 128 269 141 260 154 248 c 1
 149 248 143 247 135 244 c 0
 127 241 119 235 110 225 c 0
 102 214 98 199 98 179 c 2
246 40 m 1
 246 96 l 1
 231 93 223 81 223 58 c 0
 223 51 225 45 229 40 c 0
 232 35 236 32 239 32 c 0
 243 32 245 35 246 40 c 1
118 25 m 0
 128 25 136 28 141 34 c 0
 146 40 149 47 149 56 c 0
 149 64 146 71 141 77 c 0
 135 83 127 86 118 86 c 0
 109 86 101 83 96 77 c 0
 90 71 87 64 87 56 c 0
 87 47 90 40 95 34 c 0
 101 28 109 25 118 25 c 0
EndSplineSet
EndChar
StartChar: uni0E0D
Encoding: 173 3597 143
OldEncoding: 3597
Width: 475
Flags: HW
HStem: 0 36<204 246 288 350> 315 31<154.5 180.5>
VStem: 56 42<113 177 177 179> 246 42<36 250> 381 42<-50 -35 65 340>
Fore
423 -35 m 1
 423 -65 417 -90 406 -110 c 0
 395 -131 380 -146 361 -155 c 0
 342 -165 323 -170 302 -170 c 0
 275 -170 251 -162 231 -148 c 0
 210 -133 200 -116 200 -94 c 0
 200 -78 205 -64 215 -51 c 0
 224 -39 240 -32 261 -33 c 0
 280 -33 294 -40 303 -51 c 0
 313 -62 318 -76 318 -92 c 0
 318 -102 316 -111 311 -120 c 0
 306 -129 300 -135 292 -140 c 1
 314 -140 334 -133 353 -120 c 0
 372 -107 381 -78 381 -35 c 1
 423 -35 l 1
56 56 m 2
 56 177 l 2
 56 216 70 240 98 250 c 1
 93 254 83 260 70 267 c 0
 57 274 40 279 21 284 c 1
 29 295 45 308 68 323 c 0
 91 338 123 346 163 346 c 0
 246 346 288 314 288 250 c 2
 288 36 l 1
 350 36 l 2
 363 36 372 38 375 42 c 1
 379 45 381 53 381 65 c 2
 381 340 l 1
 423 340 l 1
 423 65 l 2
 423 46 421 32 417 23 c 0
 413 14 406 8 396 5 c 0
 386 2 371 0 350 0 c 2
 204 0 l 1
 204 36 l 1
 246 36 l 1
 246 250 l 2
 246 271 239 288 225 299 c 0
 211 310 192 315 169 315 c 0
 140 315 110 307 81 290 c 1
 88 288 98 283 113 276 c 0
 128 269 141 260 154 248 c 1
 149 248 143 247 135 244 c 0
 127 241 119 235 110 225 c 0
 102 214 98 199 98 179 c 2
 98 113 l 1
 101 116 108 117 119 117 c 0
 138 117 152 111 163 99 c 0
 173 87 178 73 178 56 c 0
 178 39 173 25 163 13 c 0
 152 0 138 -6 119 -6 c 0
 101 -6 86 0 74 11 c 0
 62 22 56 37 56 56 c 2
259 -119 m 0
 268 -119 274 -116 279 -111 c 0
 284 -106 286 -99 286 -92 c 0
 286 -85 284 -79 279 -73 c 0
 274 -68 268 -65 259 -65 c 0
 250 -65 244 -68 239 -73 c 0
 234 -78 231 -85 231 -92 c 0
 231 -99 234 -106 239 -111 c 0
 244 -116 251 -119 259 -119 c 0
118 25 m 0
 128 25 136 28 141 34 c 0
 146 40 149 47 149 56 c 0
 149 64 146 71 141 77 c 0
 135 83 127 86 118 86 c 0
 109 86 101 83 96 77 c 0
 90 71 87 64 87 56 c 0
 87 47 90 40 95 34 c 0
 101 28 109 25 118 25 c 0
EndSplineSet
EndChar
StartChar: uni0E0E
Encoding: 174 3598 144
OldEncoding: 3598
Width: 404
Flags: HW
HStem: -71 37<125.5 144.5> 310 36<200 226.5>
VStem: 98 42<113 169 169 171> 311 41<-115 236>
Fore
98 113 m 1
 98 169 l 2
 98 182 100 194 104 204 c 0
 107 213 112 221 118 226 c 0
 124 231 131 235 138 238 c 1
 133 242 124 247 111 254 c 0
 98 261 81 266 62 267 c 1
 71 280 89 297 116 317 c 0
 143 336 176 346 217 346 c 0
 256 346 289 337 314 318 c 0
 339 299 352 272 352 236 c 2
 352 -171 l 1
 311 -171 l 1
 297 -152 281 -136 264 -123 c 0
 247 -110 233 -102 224 -97 c 1
 219 -116 207 -133 189 -149 c 0
 171 -165 150 -174 125 -173 c 0
 104 -173 88 -166 75 -153 c 0
 62 -140 56 -123 56 -102 c 0
 57 -80 65 -63 80 -51 c 0
 95 -40 114 -34 137 -34 c 0
 156 -34 177 -38 199 -45 c 1
 200 -42 202 -37 204 -28 c 0
 206 -21 207 -11 208 0 c 1
 246 -8 l 1
 245 -19 244 -30 241 -40 c 0
 239 -49 237 -56 236 -61 c 1
 252 -69 267 -78 282 -89 c 0
 297 -100 306 -108 311 -115 c 1
 311 236 l 2
 311 251 307 264 298 275 c 0
 290 286 279 295 265 301 c 0
 251 307 235 310 218 310 c 0
 182 310 151 299 125 277 c 1
 131 276 141 272 155 266 c 0
 169 260 182 251 194 240 c 1
 185 238 174 232 161 222 c 0
 147 212 140 195 140 171 c 2
 140 54 l 2
 140 37 135 23 124 12 c 0
 113 0 97 -6 78 -6 c 0
 59 -6 45 0 34 12 c 0
 23 24 17 39 17 56 c 0
 17 73 22 87 33 99 c 0
 44 111 59 117 78 117 c 0
 86 117 93 116 98 113 c 1
152 -129 m 0
 162 -124 170 -116 176 -105 c 0
 182 -94 186 -86 188 -80 c 1
 169 -74 152 -71 137 -71 c 0
 109 -71 95 -81 95 -102 c 0
 95 -107 96 -112 98 -117 c 0
 103 -128 114 -134 132 -134 c 0
 139 -134 145 -132 152 -129 c 0
78 25 m 0
 88 25 96 28 102 34 c 0
 107 40 110 47 110 56 c 0
 110 64 107 71 102 77 c 0
 96 83 88 86 78 86 c 0
 69 86 61 83 56 77 c 0
 50 70 47 63 47 56 c 0
 47 48 50 41 56 35 c 0
 61 28 69 25 78 25 c 0
EndSplineSet
EndChar
StartChar: uni0E0F
Encoding: 175 3599 145
OldEncoding: 3599
Width: 404
Flags: HW
HStem: 310 36<200 226.5>
VStem: 98 42<113 169 169 171> 311 41<-121 236>
Fore
98 113 m 1
 98 169 l 2
 98 182 100 194 104 204 c 0
 107 213 112 221 118 226 c 0
 124 231 131 235 138 238 c 1
 133 242 124 247 111 254 c 0
 98 261 81 266 62 267 c 1
 71 280 89 297 116 317 c 0
 143 336 176 346 217 346 c 0
 256 346 289 337 314 318 c 0
 339 299 352 272 352 236 c 2
 352 -171 l 1
 311 -171 l 1
 265 -115 l 1
 215 -173 l 1
 210 -164 204 -155 197 -146 c 0
 190 -137 184 -130 179 -125 c 1
 175 -133 167 -143 156 -155 c 0
 144 -167 128 -173 109 -173 c 0
 92 -173 78 -167 68 -155 c 0
 57 -144 52 -127 52 -106 c 1
 54 -89 60 -76 71 -67 c 0
 82 -58 96 -54 113 -54 c 0
 132 -54 149 -60 166 -71 c 1
 168 -65 171 -55 175 -41 c 0
 179 -28 182 -14 183 0 c 1
 219 -8 l 1
 218 -19 214 -34 209 -53 c 0
 204 -72 199 -86 195 -94 c 1
 196 -94 204 -102 219 -119 c 1
 263 -73 l 1
 311 -121 l 1
 311 236 l 2
 311 251 307 264 298 275 c 0
 290 286 279 295 265 301 c 0
 251 307 235 310 218 310 c 0
 182 310 151 299 125 277 c 1
 131 276 141 272 155 266 c 0
 169 260 182 251 194 240 c 1
 185 238 174 232 161 222 c 0
 147 212 140 195 140 171 c 2
 140 54 l 2
 140 37 135 23 124 12 c 0
 113 0 97 -6 78 -6 c 0
 59 -6 45 0 34 12 c 0
 23 24 17 39 17 56 c 0
 17 73 22 87 33 99 c 0
 44 111 59 117 78 117 c 0
 87 117 93 116 98 113 c 1
127 -135 m 0
 134 -130 139 -123 144 -116 c 0
 149 -109 152 -103 153 -100 c 1
 141 -91 129 -87 116 -87 c 0
 101 -87 91 -93 88 -105 c 1
 88 -127 96 -139 113 -140 c 0
 118 -140 123 -138 127 -135 c 0
78 25 m 0
 88 25 96 28 102 34 c 0
 107 40 110 47 110 56 c 0
 110 64 107 71 102 77 c 0
 96 83 88 86 78 86 c 0
 69 86 61 83 56 77 c 0
 50 70 47 63 47 56 c 0
 47 48 50 41 56 35 c 0
 61 28 69 25 78 25 c 0
EndSplineSet
EndChar
StartChar: uni0E10
Encoding: 176 3600 146
OldEncoding: 3600
Width: 323
Flags: HW
HStem: 326 20<144 162.5>
VStem: 229 42<83 165 165 167>
Fore
125 209 m 0
 138 209 150 205 162 198 c 0
 173 191 182 181 188 169 c 2
 229 83 l 1
 229 165 l 2
 229 190 225 207 216 216 c 0
 208 225 193 233 171 240 c 0
 147 247 123 252 98 256 c 0
 73 261 55 264 42 265 c 1
 55 288 72 307 91 323 c 0
 110 338 132 346 156 346 c 0
 169 346 181 345 190 343 c 0
 200 340 211 337 224 332 c 0
 237 327 247 324 254 322 c 0
 261 320 269 319 276 319 c 0
 288 319 300 322 311 327 c 1
 319 292 l 1
 302 285 287 282 274 282 c 0
 265 282 257 283 250 285 c 0
 243 287 233 291 218 296 c 0
 204 301 193 305 184 308 c 0
 175 311 166 312 157 312 c 0
 147 312 137 309 126 304 c 0
 115 298 110 293 109 290 c 1
 113 289 120 288 129 285 c 0
 138 282 150 279 165 275 c 0
 180 272 191 269 198 267 c 0
 230 259 251 248 259 234 c 0
 268 219 271 197 271 167 c 2
 271 0 l 1
 221 0 l 1
 218 21 211 42 201 65 c 0
 191 88 183 105 177 116 c 1
 174 107 167 100 157 94 c 0
 148 89 137 86 125 86 c 0
 106 86 91 92 80 104 c 0
 69 117 64 131 64 147 c 0
 64 164 69 179 80 191 c 0
 91 203 106 209 125 209 c 0
230 -148 m 2
 231 -147 232 -143 233 -138 c 0
 234 -133 234 -130 234 -127 c 1
 233 -127 232 -127 230 -127 c 0
 229 -127 226 -127 223 -128 c 0
 208 -128 196 -123 187 -114 c 0
 178 -105 174 -94 174 -81 c 0
 174 -68 179 -57 188 -46 c 0
 197 -36 208 -31 223 -31 c 0
 238 -31 249 -35 258 -44 c 0
 267 -53 271 -65 271 -81 c 2
 271 -140 l 2
 271 -147 270 -153 268 -157 c 0
 265 -161 262 -164 257 -167 c 0
 252 -170 247 -174 242 -177 c 2
 213 -194 l 1
 175 -169 l 1
 135 -192 l 1
 115 -156 l 1
 105 -177 87 -189 61 -188 c 0
 30 -187 13 -169 14 -136 c 0
 14 -123 20 -112 30 -103 c 0
 40 -94 52 -90 66 -90 c 0
 79 -90 91 -94 104 -102 c 1
 105 -98 107 -91 110 -80 c 0
 112 -69 113 -54 113 -35 c 1
 144 -35 l 1
 144 -69 139 -99 128 -126 c 1
 144 -150 l 1
 144 -150 148 -148 156 -144 c 0
 163 -139 170 -136 175 -133 c 1
 215 -158 l 1
 230 -148 l 2
223 -104 m 0
 230 -104 236 -102 241 -97 c 0
 245 -92 247 -87 247 -80 c 0
 247 -73 245 -68 241 -63 c 0
 236 -58 230 -56 223 -56 c 0
 215 -56 209 -58 206 -63 c 1
 201 -68 199 -73 199 -80 c 0
 199 -86 201 -92 206 -97 c 1
 209 -102 215 -104 223 -104 c 0
125 116 m 0
 135 116 143 119 148 125 c 0
 153 132 156 139 156 147 c 0
 156 156 153 163 148 169 c 0
 143 175 135 178 125 178 c 0
 116 178 108 175 103 169 c 0
 97 163 94 156 94 147 c 0
 94 139 97 132 103 126 c 0
 108 119 116 116 125 116 c 0
65 -117 m 0
 57 -117 51 -119 47 -124 c 0
 43 -129 41 -134 41 -140 c 0
 41 -145 43 -150 47 -154 c 0
 51 -159 57 -161 65 -161 c 0
 71 -161 76 -159 81 -155 c 0
 86 -151 89 -147 92 -142 c 0
 94 -137 95 -134 96 -133 c 1
 94 -130 90 -127 85 -123 c 0
 80 -119 73 -117 65 -117 c 0
EndSplineSet
EndChar
StartChar: uni0E11
Encoding: 177 3601 147
OldEncoding: 3601
Width: 471
Flags: HW
HStem: 0 20 326 20<87.5 94 177 177>
VStem: 171 42<0 13.5 163 217> 377 42<0 263>
Fore
171 0 m 1
 171 219 l 2
 171 231 172 240 175 247 c 0
 178 253 182 258 186 262 c 0
 189 265 195 269 202 274 c 0
 206 277 208 280 208 285 c 0
 208 290 205 297 198 304 c 0
 191 310 185 314 179 315 c 1
 138 287 l 1
 90 315 l 1
 76 312 65 304 58 293 c 0
 50 282 46 272 46 263 c 1
 47 265 51 267 56 270 c 0
 61 273 68 274 78 274 c 0
 95 273 110 268 122 259 c 0
 134 249 140 234 140 213 c 0
 140 194 133 179 120 168 c 0
 107 157 92 152 77 152 c 0
 57 152 39 160 26 175 c 0
 12 191 6 211 6 236 c 0
 6 251 8 266 13 279 c 1
 18 299 30 315 48 328 c 0
 65 340 81 346 94 346 c 1
 138 319 l 1
 177 346 l 1
 194 341 209 333 223 322 c 0
 237 311 244 297 244 282 c 0
 244 275 243 269 240 265 c 0
 237 261 234 257 229 252 c 0
 224 248 220 243 217 238 c 0
 214 233 213 226 213 217 c 2
 213 163 l 1
 218 176 226 196 238 223 c 0
 250 250 268 276 288 301 c 0
 309 327 330 340 355 340 c 0
 376 340 392 332 403 317 c 0
 414 302 419 284 419 263 c 2
 419 0 l 1
 377 0 l 1
 377 263 l 2
 377 289 369 302 352 302 c 0
 341 302 327 292 312 271 c 0
 297 250 281 224 266 192 c 0
 250 159 237 126 228 92 c 0
 218 58 213 27 213 0 c 1
 171 0 l 1
77 245 m 0
 68 245 60 242 55 236 c 0
 49 230 46 223 46 214 c 0
 46 206 49 199 55 193 c 0
 60 186 68 183 77 183 c 0
 87 183 95 186 100 192 c 0
 105 199 108 206 108 214 c 0
 108 223 105 230 100 236 c 0
 95 242 87 245 77 245 c 0
EndSplineSet
EndChar
StartChar: uni0E12
Encoding: 178 3602 148
OldEncoding: 3602
Width: 502
Flags: HW
HStem: -6 20 326 20<121 121 236 236>
VStem: 273 42<40 91 125 225> 409 41<61 340>
Fore
273 125 m 1
 273 225 l 2
 273 248 271 265 266 277 c 0
 261 289 250 300 234 311 c 1
 179 275 l 1
 179 276 172 280 159 289 c 0
 146 298 134 305 125 311 c 1
 82 289 61 258 61 217 c 0
 61 190 71 158 92 123 c 0
 105 100 112 84 112 77 c 1
 119 92 127 105 135 116 c 0
 143 127 149 134 154 138 c 1
 140 142 129 150 121 161 c 0
 113 172 109 185 109 198 c 0
 109 215 114 229 125 241 c 0
 136 253 152 259 171 259 c 0
 190 259 205 253 216 240 c 0
 227 227 232 213 232 196 c 0
 232 186 230 178 227 171 c 0
 224 164 219 157 214 152 c 0
 209 147 203 141 197 134 c 0
 184 119 173 105 164 92 c 0
 155 79 146 65 139 50 c 0
 132 35 126 18 123 0 c 1
 81 0 l 1
 86 8 88 17 88 27 c 0
 88 37 84 52 77 73 c 0
 75 80 69 93 59 113 c 0
 48 133 39 151 33 168 c 0
 27 185 24 203 24 223 c 0
 25 251 35 275 53 296 c 0
 71 317 94 334 121 346 c 1
 179 307 l 1
 236 346 l 1
 259 335 276 324 287 313 c 0
 298 302 305 290 309 277 c 0
 313 264 315 246 315 225 c 2
 315 124 l 1
 330 121 347 114 366 103 c 0
 385 91 399 77 409 61 c 1
 409 340 l 1
 450 340 l 1
 450 0 l 1
 409 0 l 1
 386 48 355 78 315 91 c 1
 315 38 l 2
 315 9 302 -6 275 -6 c 0
 258 -6 245 1 236 14 c 0
 226 27 221 43 221 62 c 0
 221 79 226 94 235 106 c 0
 244 118 257 124 273 125 c 1
171 228 m 0
 162 228 154 225 148 219 c 0
 143 212 140 205 140 197 c 0
 140 189 143 182 148 176 c 0
 154 169 162 166 171 166 c 0
 181 166 189 169 194 175 c 0
 199 181 202 188 202 197 c 0
 202 206 199 213 194 219 c 0
 189 225 181 228 171 228 c 0
273 40 m 1
 273 96 l 1
 258 93 250 81 250 58 c 0
 250 51 252 45 255 40 c 0
 259 35 263 32 266 32 c 0
 269 32 272 35 273 40 c 1
EndSplineSet
EndChar
StartChar: uni0E13
Encoding: 179 3603 149
OldEncoding: 3603
Width: 490
Flags: HW
HStem: -7 20 315 31<154.5 180.5>
VStem: 56 42<113 177 177 179> 246 42<73 250> 375 42<34.5 38 38 110 110 110 147 340> 451 31<62.5 80.5>
Fore
56 56 m 2
 56 177 l 2
 56 216 70 240 98 250 c 1
 93 254 83 260 70 267 c 0
 57 274 40 279 21 284 c 1
 29 295 45 308 68 323 c 0
 91 338 123 346 163 346 c 0
 246 346 288 314 288 250 c 2
 288 73 l 1
 311 109 340 133 375 144 c 1
 375 340 l 1
 417 340 l 1
 417 147 l 1
 437 144 453 137 465 124 c 0
 476 111 482 92 482 69 c 0
 482 44 475 26 462 13 c 0
 449 0 434 -7 417 -7 c 0
 405 -7 395 -4 387 3 c 0
 379 10 375 19 375 31 c 2
 375 110 l 1
 351 101 331 84 316 60 c 0
 300 36 291 16 288 0 c 1
 246 0 l 1
 246 250 l 2
 246 271 239 288 225 299 c 0
 211 310 192 315 169 315 c 0
 140 315 110 307 81 290 c 1
 88 288 98 283 113 276 c 0
 128 269 141 260 154 248 c 1
 149 248 143 247 135 244 c 0
 127 241 119 235 110 225 c 0
 102 214 98 199 98 179 c 2
 98 113 l 1
 101 116 108 117 119 117 c 0
 138 117 152 111 163 99 c 0
 173 87 178 73 178 56 c 0
 178 39 173 25 163 13 c 0
 152 0 138 -6 119 -6 c 0
 101 -6 86 0 74 11 c 0
 62 22 56 37 56 56 c 2
417 38 m 2
 417 31 420 27 425 27 c 0
 431 27 437 31 442 39 c 0
 448 46 451 56 451 69 c 0
 451 96 440 112 417 115 c 1
 417 38 l 2
118 25 m 0
 128 25 136 28 141 34 c 0
 146 40 149 47 149 56 c 0
 149 64 146 71 141 77 c 0
 135 83 127 86 118 86 c 0
 109 86 101 83 96 77 c 0
 90 71 87 64 87 56 c 0
 87 47 90 40 95 34 c 0
 101 28 109 25 118 25 c 0
EndSplineSet
EndChar
StartChar: uni0E14
Encoding: 180 3604 150
OldEncoding: 3604
Width: 367
Flags: HW
HStem: 0 20 317 31<162.5 198.5>
VStem: 273 42<0 225>
Fore
62 221 m 0
 61 191 72 159 92 125 c 0
 104 104 110 87 110 73 c 1
 118 89 126 103 135 114 c 0
 143 125 149 133 154 138 c 1
 140 142 129 150 121 161 c 0
 113 172 109 185 109 198 c 0
 109 215 114 229 125 241 c 0
 136 253 152 259 171 259 c 0
 190 259 205 253 216 240 c 0
 227 227 232 213 232 196 c 0
 232 186 230 178 227 171 c 0
 224 164 219 157 214 152 c 0
 209 147 203 141 197 134 c 0
 184 119 173 105 164 92 c 0
 155 79 146 65 139 50 c 0
 132 35 126 18 123 0 c 1
 81 0 l 1
 86 8 88 17 88 27 c 0
 88 37 84 52 77 73 c 0
 74 81 68 95 58 114 c 0
 47 134 39 152 34 169 c 0
 28 186 24 204 25 223 c 0
 26 257 41 287 67 312 c 0
 92 336 130 348 179 348 c 0
 270 348 315 307 315 225 c 2
 315 0 l 1
 273 0 l 1
 273 227 l 2
 273 254 267 275 255 292 c 0
 243 309 218 317 179 317 c 0
 146 317 118 308 96 290 c 0
 74 272 62 249 62 221 c 0
171 228 m 0
 162 228 154 225 148 219 c 0
 143 212 140 205 140 197 c 0
 140 189 143 182 148 176 c 0
 154 169 162 166 171 166 c 0
 181 166 189 169 194 175 c 0
 199 181 202 188 202 197 c 0
 202 206 199 213 194 219 c 0
 189 225 181 228 171 228 c 0
EndSplineSet
EndChar
StartChar: uni0E15
Encoding: 181 3605 151
OldEncoding: 3605
Width: 367
Flags: HW
HStem: 0 20 326 20<121 121 236 236>
VStem: 273 42<0 225>
Fore
112 77 m 1
 119 92 127 105 135 116 c 0
 143 127 149 134 154 138 c 1
 140 142 129 150 121 161 c 0
 113 172 109 185 109 198 c 0
 109 215 114 229 125 241 c 0
 136 253 152 259 171 259 c 0
 190 259 205 253 216 240 c 0
 227 227 232 213 232 196 c 0
 232 186 230 178 227 171 c 0
 224 164 219 157 214 152 c 0
 209 147 203 141 197 134 c 0
 184 119 173 105 164 92 c 0
 155 79 146 65 139 50 c 0
 132 35 126 18 123 0 c 1
 81 0 l 1
 86 8 88 17 88 27 c 0
 88 37 84 52 77 73 c 0
 75 80 69 93 59 113 c 0
 48 133 39 151 33 168 c 0
 27 185 24 203 24 223 c 0
 25 251 35 275 53 296 c 0
 71 317 94 334 121 346 c 1
 179 307 l 1
 236 346 l 1
 259 335 276 324 287 313 c 0
 298 302 305 290 309 277 c 0
 313 264 315 246 315 225 c 2
 315 0 l 1
 273 0 l 1
 273 225 l 2
 273 248 271 265 266 277 c 0
 261 289 250 300 234 311 c 1
 179 275 l 1
 179 276 172 280 159 289 c 0
 146 298 134 305 125 311 c 1
 82 289 61 258 61 217 c 0
 61 190 71 158 92 123 c 0
 105 100 112 84 112 77 c 1
171 228 m 0
 162 228 154 225 148 219 c 0
 143 212 140 205 140 197 c 0
 140 189 143 182 148 176 c 0
 154 169 162 166 171 166 c 0
 181 166 189 169 194 175 c 0
 199 181 202 188 202 197 c 0
 202 206 199 213 194 219 c 0
 189 225 181 228 171 228 c 0
EndSplineSet
EndChar
StartChar: uni0E16
Encoding: 182 3606 152
OldEncoding: 3606
Width: 363
Flags: HW
HStem: -6 20 310 36<158 184.5>
VStem: 56 42<113 169 169 171> 269 42<0 236>
Fore
56 56 m 2
 56 169 l 2
 56 189 60 204 67 215 c 0
 75 225 85 233 96 238 c 1
 91 242 83 247 70 254 c 0
 57 261 40 266 21 267 c 1
 30 280 48 297 74 317 c 0
 100 336 134 346 175 346 c 0
 200 346 223 342 244 334 c 0
 265 326 281 314 293 297 c 0
 305 280 311 259 311 236 c 2
 311 0 l 1
 269 0 l 1
 269 236 l 2
 269 251 265 264 256 275 c 0
 248 286 237 295 223 301 c 0
 209 307 193 310 176 310 c 0
 140 310 109 299 83 277 c 1
 89 276 99 272 113 266 c 0
 127 260 140 251 152 240 c 1
 143 238 132 232 119 222 c 0
 105 212 98 195 98 171 c 2
 98 113 l 1
 101 116 108 117 119 117 c 0
 138 117 152 111 163 99 c 0
 173 87 178 73 178 56 c 0
 178 39 173 25 163 13 c 0
 152 0 138 -6 119 -6 c 0
 101 -6 86 0 74 11 c 0
 62 22 56 37 56 56 c 2
118 25 m 0
 128 25 136 28 141 34 c 0
 146 40 149 47 149 56 c 0
 149 64 146 71 141 77 c 0
 135 83 127 86 118 86 c 0
 109 86 101 83 96 77 c 0
 90 71 87 64 87 56 c 0
 87 47 90 40 95 34 c 0
 101 28 109 25 118 25 c 0
EndSplineSet
EndChar
StartChar: uni0E17
Encoding: 183 3607 153
OldEncoding: 3607
Width: 370
Flags: HW
HStem: 0 20 324 20<73.5 89.5>
VStem: 102 42<0 13.5 163 224 224 224> 308 42<0 263>
Fore
102 0 m 1
 102 224 l 1
 97 222 91 221 83 221 c 0
 64 221 49 227 38 240 c 0
 27 252 21 266 21 283 c 0
 21 300 27 314 38 326 c 0
 49 338 64 344 83 344 c 0
 96 344 106 341 115 336 c 0
 124 331 132 323 137 314 c 0
 142 305 144 294 144 282 c 2
 144 163 l 1
 150 176 158 193 167 213 c 0
 176 234 186 254 199 274 c 0
 212 293 225 309 240 322 c 0
 254 334 269 340 286 340 c 0
 301 340 313 336 322 329 c 0
 331 321 338 311 343 300 c 0
 348 289 350 276 350 263 c 2
 350 0 l 1
 308 0 l 1
 308 263 l 2
 308 289 300 302 284 302 c 0
 273 302 260 292 244 271 c 0
 228 250 212 224 197 192 c 0
 181 159 168 126 159 92 c 0
 149 58 144 27 144 0 c 1
 102 0 l 1
83 313 m 0
 73 313 65 310 60 304 c 0
 55 298 52 291 52 282 c 0
 52 274 55 267 60 261 c 0
 65 254 73 251 83 251 c 0
 93 251 101 254 106 261 c 0
 111 267 114 274 114 282 c 0
 114 291 111 298 106 304 c 0
 101 310 93 313 83 313 c 0
EndSplineSet
EndChar
StartChar: uni0E18
Encoding: 184 3608 154
OldEncoding: 3608
Width: 325
Flags: HW
HStem: 0 36<46 88 129 194> 326 20<117.5 146>
VStem: 88 41<36 217> 225 42<65 166>
Fore
81 286 m 1
 98 285 123 281 157 274 c 0
 190 267 219 253 242 234 c 0
 253 226 260 217 263 207 c 0
 266 197 267 183 267 166 c 2
 267 65 l 2
 267 38 262 20 253 12 c 0
 243 4 223 0 194 0 c 2
 46 0 l 1
 46 36 l 1
 88 36 l 1
 88 217 l 1
 129 217 l 1
 129 36 l 1
 194 36 l 2
 207 36 216 38 220 42 c 0
 223 45 225 53 225 65 c 2
 225 167 l 2
 225 179 224 189 222 196 c 0
 219 204 213 211 204 218 c 0
 188 231 166 241 139 248 c 0
 111 255 82 258 53 258 c 0
 45 258 34 257 21 256 c 1
 26 271 38 290 56 313 c 0
 74 335 100 346 135 346 c 0
 157 346 181 341 207 332 c 0
 233 323 250 318 259 318 c 0
 271 318 283 321 294 327 c 1
 309 298 l 1
 293 289 277 284 262 284 c 0
 253 284 242 286 229 290 c 0
 216 294 205 299 195 302 c 0
 185 305 175 308 166 311 c 0
 156 314 146 315 135 315 c 0
 118 315 105 311 97 304 c 0
 88 297 83 291 81 286 c 1
EndSplineSet
EndChar
StartChar: uni0E19
Encoding: 185 3609 155
OldEncoding: 3609
Width: 394
Flags: HW
HStem: -7 20 324 20<73.5 89.5>
VStem: 102 42<65 224 224 224> 279 42<34.5 38 38 115 148 340> 355 31<63 81>
Fore
102 0 m 1
 102 224 l 1
 97 222 91 221 83 221 c 0
 64 221 49 227 38 240 c 0
 27 252 21 266 21 283 c 0
 21 300 27 314 38 326 c 0
 49 338 64 344 83 344 c 0
 96 344 106 341 115 336 c 0
 124 331 132 323 137 314 c 0
 142 305 144 294 144 282 c 2
 144 65 l 1
 177 110 222 138 279 148 c 1
 279 340 l 1
 321 340 l 1
 321 147 l 1
 342 144 358 137 369 124 c 0
 380 111 386 93 386 69 c 0
 386 44 380 26 367 13 c 0
 354 0 338 -7 321 -7 c 0
 309 -7 299 -4 291 3 c 0
 283 10 279 19 279 31 c 2
 279 115 l 1
 255 111 233 101 214 86 c 0
 195 71 180 55 169 40 c 0
 158 25 149 11 144 0 c 1
 102 0 l 1
83 313 m 0
 74 313 66 310 61 304 c 0
 55 298 52 291 52 283 c 0
 52 274 55 267 60 261 c 0
 65 255 73 252 83 252 c 0
 93 252 101 255 106 261 c 0
 111 268 114 275 114 283 c 0
 114 291 111 298 105 304 c 0
 100 310 92 313 83 313 c 0
321 38 m 2
 321 31 324 27 330 27 c 0
 335 27 341 31 347 39 c 0
 352 47 355 57 355 69 c 0
 355 96 344 112 321 115 c 1
 321 38 l 2
EndSplineSet
EndChar
StartChar: uni0E1A
Encoding: 186 3610 156
OldEncoding: 3610
Width: 392
Flags: HW
HStem: 0 36<61 102 144 267> 324 20<73.5 89.5>
VStem: 102 42<36 224 224 224> 298 42<65 340>
Fore
102 36 m 1
 102 224 l 1
 97 222 91 221 83 221 c 0
 64 221 49 227 38 240 c 0
 27 252 21 266 21 283 c 0
 21 300 27 314 38 326 c 0
 49 338 64 344 83 344 c 0
 96 344 106 341 115 336 c 0
 124 331 132 323 137 314 c 0
 142 305 144 294 144 282 c 2
 144 36 l 1
 267 36 l 2
 280 36 289 38 292 42 c 1
 296 45 298 53 298 65 c 2
 298 340 l 1
 340 340 l 1
 340 65 l 2
 340 38 335 20 326 12 c 0
 317 4 297 0 267 0 c 2
 61 0 l 1
 61 36 l 1
 102 36 l 1
83 313 m 0
 73 313 65 310 60 304 c 0
 55 298 52 291 52 282 c 0
 52 274 55 267 60 261 c 0
 65 254 73 251 83 251 c 0
 93 251 101 254 106 261 c 0
 111 267 114 274 114 282 c 0
 114 291 111 298 106 304 c 0
 101 310 93 313 83 313 c 0
EndSplineSet
EndChar
StartChar: uni0E1B
Encoding: 187 3611 157
OldEncoding: 3611
Width: 392
Flags: HW
HStem: 0 36<61 102 144 267>
VStem: 102 42<36 224 224 224> 298 42<65 463>
Fore
102 36 m 1
 102 224 l 1
 97 222 91 221 83 221 c 0
 64 221 49 227 38 240 c 0
 27 252 21 266 21 283 c 0
 21 300 27 314 38 326 c 0
 49 338 64 344 83 344 c 0
 96 344 106 341 115 336 c 0
 124 331 132 323 137 314 c 0
 142 305 144 294 144 282 c 2
 144 36 l 1
 267 36 l 2
 280 36 289 38 292 42 c 1
 296 45 298 53 298 65 c 2
 298 463 l 1
 340 463 l 1
 340 65 l 2
 340 38 335 20 326 12 c 0
 317 4 297 0 267 0 c 2
 61 0 l 1
 61 36 l 1
 102 36 l 1
83 313 m 0
 74 313 66 310 61 304 c 0
 55 298 52 291 52 283 c 0
 52 274 55 267 60 261 c 0
 65 255 73 252 83 252 c 0
 93 252 101 255 106 261 c 0
 111 268 114 275 114 283 c 0
 114 291 111 298 105 304 c 0
 100 310 92 313 83 313 c 0
EndSplineSet
EndChar
StartChar: uni0E1C
Encoding: 188 3612 158
OldEncoding: 3612
Width: 375
Flags: HW
HStem: 0 20 324 20<103.5 123>
VStem: 52 42<0 13 88 225> 281 42<0 13.5 88 340>
Fore
94 225 m 1
 94 88 l 1
 188 190 l 1
 281 88 l 1
 281 340 l 1
 323 340 l 1
 323 0 l 1
 281 0 l 1
 281 27 274 47 261 62 c 2
 188 144 l 1
 115 62 l 2
 101 47 94 26 94 0 c 1
 52 0 l 1
 52 282 l 2
 52 300 57 315 68 327 c 0
 79 338 94 344 113 344 c 0
 133 344 148 338 159 326 c 0
 170 314 175 300 175 283 c 0
 175 266 170 251 159 239 c 0
 148 227 132 221 113 221 c 0
 107 221 101 222 94 225 c 1
113 251 m 0
 123 251 131 254 137 261 c 0
 142 268 145 275 145 282 c 0
 145 291 142 298 137 304 c 0
 131 310 123 313 113 313 c 0
 104 313 96 310 90 304 c 0
 85 297 82 290 82 282 c 0
 82 275 85 268 90 261 c 0
 96 254 104 251 113 251 c 0
EndSplineSet
EndChar
StartChar: uni0E1D
Encoding: 189 3613 159
OldEncoding: 3613
Width: 375
Flags: HW
HStem: 0 20
VStem: 52 42<0 13 88 225> 281 42<0 13.5 88 463>
Fore
94 225 m 1
 94 88 l 1
 188 190 l 1
 281 88 l 1
 281 463 l 1
 323 463 l 1
 323 0 l 1
 281 0 l 1
 281 27 274 47 261 62 c 2
 188 144 l 1
 115 62 l 2
 101 47 94 26 94 0 c 1
 52 0 l 1
 52 282 l 2
 52 300 57 315 68 327 c 0
 79 338 94 344 113 344 c 0
 133 344 148 338 159 326 c 0
 170 314 175 300 175 283 c 0
 175 266 170 251 159 239 c 0
 148 227 132 221 113 221 c 0
 107 221 101 222 94 225 c 1
113 252 m 0
 123 252 131 255 137 262 c 0
 142 268 145 275 145 283 c 0
 145 290 142 297 136 304 c 0
 130 310 122 313 113 313 c 0
 104 313 96 310 91 304 c 0
 85 297 82 290 82 283 c 0
 82 275 85 268 90 262 c 0
 96 255 104 252 113 252 c 0
EndSplineSet
EndChar
StartChar: uni0E1E
Encoding: 190 3614 160
OldEncoding: 3614
Width: 434
Flags: HW
HStem: 0 20 324 20<73.5 89.5>
VStem: 102 42<110 224 224 224> 346 42<0 2 109 340>
Fore
102 0 m 1
 102 224 l 1
 97 222 91 221 83 221 c 0
 64 221 49 227 38 240 c 0
 27 252 21 266 21 283 c 0
 21 300 27 314 38 326 c 0
 49 338 64 344 83 344 c 0
 96 344 106 341 115 336 c 0
 124 331 132 323 137 314 c 0
 142 305 144 294 144 282 c 2
 144 110 l 1
 245 340 l 1
 346 109 l 1
 346 340 l 1
 388 340 l 1
 388 0 l 1
 346 0 l 1
 346 4 346 10 345 19 c 0
 344 28 341 35 338 42 c 2
 245 259 l 1
 152 42 l 2
 149 35 147 27 146 19 c 0
 145 10 145 4 144 0 c 1
 102 0 l 1
83 313 m 0
 74 313 66 310 61 304 c 0
 55 298 52 291 52 283 c 0
 52 274 55 267 60 261 c 0
 65 255 73 252 83 252 c 0
 93 252 101 255 106 261 c 0
 111 268 114 275 114 283 c 0
 114 291 111 298 105 304 c 0
 100 310 92 313 83 313 c 0
EndSplineSet
EndChar
StartChar: uni0E1F
Encoding: 191 3615 161
OldEncoding: 3615
Width: 434
Flags: HW
HStem: 0 20
VStem: 102 42<110 224 224 224> 346 42<0 2 109 463>
Fore
102 0 m 1
 102 224 l 1
 97 222 91 221 83 221 c 0
 64 221 49 227 38 240 c 0
 27 252 21 266 21 283 c 0
 21 300 27 314 38 326 c 0
 49 338 64 344 83 344 c 0
 96 344 106 341 115 336 c 0
 124 331 132 323 137 314 c 0
 142 305 144 294 144 282 c 2
 144 110 l 1
 245 340 l 1
 346 109 l 1
 346 463 l 1
 388 463 l 1
 388 0 l 1
 346 0 l 1
 346 4 346 10 345 19 c 0
 344 28 341 35 338 42 c 2
 245 259 l 1
 152 42 l 2
 149 35 147 27 146 19 c 0
 145 10 145 4 144 0 c 1
 102 0 l 1
83 313 m 0
 73 313 65 310 60 304 c 0
 55 298 52 291 52 282 c 0
 52 274 55 267 60 261 c 0
 65 254 73 251 83 251 c 0
 93 251 101 254 106 261 c 0
 111 267 114 274 114 282 c 0
 114 291 111 298 106 304 c 0
 101 310 93 313 83 313 c 0
EndSplineSet
EndChar
StartChar: uni0E20
Encoding: 192 3616 162
OldEncoding: 3616
Width: 404
Flags: HW
HStem: -6 20 310 36<200 226.5>
VStem: 98 42<113 169 169 171> 311 41<0 236>
Fore
98 113 m 1
 98 169 l 2
 98 182 100 194 104 204 c 0
 107 213 112 221 118 226 c 0
 124 231 131 235 138 238 c 1
 133 242 124 247 111 254 c 0
 98 261 81 266 62 267 c 1
 71 280 89 297 116 317 c 0
 143 336 176 346 217 346 c 0
 256 346 289 337 314 318 c 0
 339 299 352 272 352 236 c 2
 352 0 l 1
 311 0 l 1
 311 236 l 2
 311 251 307 264 298 275 c 0
 290 286 279 295 265 301 c 0
 251 307 235 310 218 310 c 0
 182 310 151 299 125 277 c 1
 131 276 141 272 155 266 c 0
 169 260 182 251 194 240 c 1
 185 238 174 232 161 222 c 0
 147 212 140 195 140 171 c 2
 140 54 l 2
 140 37 135 23 124 12 c 0
 113 0 97 -6 78 -6 c 0
 59 -6 45 0 34 12 c 0
 23 24 17 39 17 56 c 0
 17 73 22 87 33 99 c 0
 44 111 59 117 78 117 c 0
 87 117 93 116 98 113 c 1
78 25 m 0
 88 25 96 28 102 34 c 0
 107 40 110 47 110 56 c 0
 110 64 107 71 102 77 c 0
 96 83 88 86 78 86 c 0
 69 86 61 83 56 77 c 0
 50 70 47 63 47 56 c 0
 47 48 50 41 56 35 c 0
 61 28 69 25 78 25 c 0
EndSplineSet
EndChar
StartChar: uni0E21
Encoding: 193 3617 163
OldEncoding: 3617
Width: 390
Flags: HW
HStem: -6 20 324 20<81.5 97>
VStem: 110 42<46 52 52 115 148 224 224 224> 296 42<0 6.5 71 340>
Fore
110 148 m 1
 110 224 l 1
 105 222 99 221 91 221 c 0
 72 221 57 227 46 239 c 0
 35 251 30 266 30 283 c 0
 30 300 35 314 46 326 c 0
 57 338 72 344 91 344 c 0
 103 344 114 341 123 336 c 0
 132 331 140 323 145 314 c 0
 150 305 152 294 152 282 c 2
 152 148 l 1
 174 146 195 140 214 132 c 0
 234 123 251 114 265 103 c 0
 279 91 289 80 296 71 c 1
 296 340 l 1
 338 340 l 1
 338 0 l 1
 296 0 l 1
 296 13 289 28 276 45 c 0
 263 62 245 78 223 91 c 0
 201 104 177 112 152 115 c 1
 152 52 l 2
 152 34 147 20 138 10 c 0
 128 -1 114 -6 96 -6 c 0
 76 -6 60 1 49 16 c 0
 38 30 32 47 32 67 c 0
 32 88 39 107 52 123 c 0
 65 138 85 147 110 148 c 1
77 38 m 0
 82 32 88 29 95 29 c 0
 105 29 110 35 110 46 c 2
 110 117 l 1
 96 117 85 112 78 103 c 0
 71 93 67 82 67 69 c 0
 67 56 70 45 77 38 c 0
91 313 m 0
 82 313 74 310 68 304 c 0
 63 297 60 290 60 282 c 0
 60 275 63 268 68 261 c 0
 74 254 82 251 91 251 c 0
 101 251 109 254 114 261 c 0
 119 267 122 274 122 282 c 0
 122 291 119 298 114 304 c 0
 109 310 101 313 91 313 c 0
EndSplineSet
EndChar
StartChar: uni0E22
Encoding: 194 3618 164
OldEncoding: 3618
Width: 348
Flags: HW
HStem: 0 36<86 223> 326 20<110.5 132.5>
VStem: 44 42<36 83> 254 42<65 340>
Fore
100 161 m 1
 79 168 64 179 53 195 c 0
 42 211 37 229 37 248 c 0
 37 273 45 296 62 316 c 0
 78 336 98 346 123 346 c 0
 142 346 156 340 167 329 c 0
 177 317 182 303 182 287 c 0
 182 271 177 257 167 246 c 0
 156 235 141 229 123 229 c 0
 110 229 100 231 93 236 c 0
 86 241 81 245 79 248 c 1
 79 225 87 207 103 196 c 0
 118 185 135 179 154 179 c 1
 154 142 l 1
 132 142 115 137 104 126 c 0
 92 115 86 101 86 83 c 2
 86 36 l 1
 223 36 l 2
 236 36 245 38 249 42 c 0
 252 45 254 53 254 65 c 2
 254 340 l 1
 296 340 l 1
 296 65 l 2
 296 38 291 20 282 12 c 0
 272 4 252 0 223 0 c 2
 44 0 l 1
 44 83 l 2
 44 100 47 113 52 124 c 0
 57 134 64 142 71 147 c 0
 78 152 84 156 89 158 c 0
 94 159 98 160 100 161 c 1
123 259 m 0
 142 260 152 269 152 288 c 0
 152 296 150 303 145 309 c 0
 140 314 132 317 123 317 c 0
 114 317 107 314 102 309 c 0
 97 303 94 296 94 288 c 0
 94 281 97 274 102 268 c 0
 107 262 114 259 123 259 c 0
EndSplineSet
EndChar
StartChar: uni0E23
Encoding: 195 3619 165
OldEncoding: 3619
Width: 313
Flags: HW
HStem: -6 20 326 20<123 141.5>
VStem: 208 42<114 165 165 167>
Fore
250 167 m 2
 250 54 l 2
 250 35 243 21 232 10 c 0
 221 -1 206 -6 189 -6 c 0
 170 -6 155 0 144 13 c 0
 133 25 127 39 127 55 c 0
 127 72 133 86 144 99 c 0
 155 111 169 117 188 117 c 0
 192 117 199 116 208 114 c 1
 208 165 l 2
 208 182 206 196 203 206 c 0
 199 216 193 223 185 228 c 0
 177 232 165 236 150 240 c 0
 125 247 101 252 76 256 c 0
 52 260 34 263 21 265 c 1
 34 288 51 307 70 323 c 0
 89 338 111 346 135 346 c 0
 148 346 160 345 169 343 c 0
 179 340 190 337 203 332 c 0
 216 327 226 324 233 322 c 0
 240 320 248 319 255 319 c 0
 267 319 279 322 290 327 c 1
 298 292 l 1
 281 285 266 282 253 282 c 0
 243 282 235 283 229 285 c 0
 222 287 212 291 197 297 c 0
 182 302 170 306 162 309 c 0
 153 312 144 313 135 313 c 0
 124 313 113 310 102 305 c 0
 91 299 84 294 83 290 c 1
 83 290 l 1
 83 290 114 282 177 267 c 0
 209 260 229 249 238 234 c 0
 246 219 250 197 250 167 c 2
189 25 m 0
 199 25 207 28 212 34 c 0
 217 40 220 47 220 56 c 0
 220 64 217 71 212 77 c 0
 207 83 199 86 189 86 c 0
 180 86 172 83 167 77 c 0
 161 70 158 63 158 56 c 0
 158 48 161 41 167 35 c 0
 172 28 180 25 189 25 c 0
EndSplineSet
EndChar
StartChar: uni0E24
Encoding: 196 3620 166
OldEncoding: 3620
Width: 363
Flags: HW
HStem: 310 36<158 184.5>
VStem: 56 42<113 169 169 171> 269 42<-177 236>
Fore
56 56 m 2
 56 169 l 2
 56 189 60 204 67 215 c 0
 75 225 85 233 96 238 c 1
 91 242 83 247 70 254 c 0
 57 261 40 266 21 267 c 1
 30 280 48 297 74 317 c 0
 100 336 134 346 175 346 c 0
 200 346 223 342 244 334 c 0
 265 326 281 314 293 297 c 0
 305 280 311 259 311 236 c 2
 311 -177 l 1
 269 -177 l 1
 269 236 l 2
 269 251 265 264 256 275 c 0
 248 286 237 295 223 301 c 0
 209 307 193 310 176 310 c 0
 140 310 109 299 83 277 c 1
 89 276 99 272 113 266 c 0
 127 260 140 251 152 240 c 1
 143 238 132 232 119 222 c 0
 105 212 98 195 98 171 c 2
 98 113 l 1
 101 116 108 117 119 117 c 0
 138 117 152 111 163 99 c 0
 173 87 178 73 178 56 c 0
 178 39 173 25 163 13 c 0
 152 0 138 -6 119 -6 c 0
 101 -6 86 0 74 11 c 0
 62 22 56 37 56 56 c 2
118 25 m 0
 128 25 136 28 141 34 c 0
 146 40 149 47 149 56 c 0
 149 64 146 71 141 77 c 0
 135 83 127 86 118 86 c 0
 109 86 101 83 96 77 c 0
 90 71 87 64 87 56 c 0
 87 47 90 40 95 34 c 0
 101 28 109 25 118 25 c 0
EndSplineSet
EndChar
StartChar: uni0E25
Encoding: 197 3621 167
OldEncoding: 3621
Width: 350
Flags: HW
HStem: -6 20 313 33<149 176.5>
VStem: 48 38<142 157> 256 42<0 6 117 234>
Fore
129 215 m 1
 100 212 86 187 86 140 c 0
 86 131 87 121 88 109 c 1
 89 110 92 112 97 114 c 0
 102 116 108 117 117 117 c 0
 136 117 151 111 162 99 c 0
 173 87 178 73 178 56 c 0
 178 38 173 23 162 12 c 0
 151 0 136 -6 117 -6 c 0
 98 -6 83 0 72 13 c 0
 61 26 54 40 52 57 c 0
 49 80 47 109 48 142 c 0
 48 172 56 197 68 216 c 0
 81 236 98 247 123 250 c 1
 150 250 172 241 191 224 c 0
 210 206 225 185 236 162 c 0
 247 138 253 123 256 117 c 1
 256 234 l 2
 256 259 247 278 230 292 c 0
 213 306 190 313 163 313 c 0
 118 313 82 295 56 259 c 1
 29 280 l 1
 39 297 56 312 81 326 c 0
 105 339 133 346 165 346 c 0
 204 346 236 336 261 317 c 0
 286 298 298 270 298 234 c 2
 298 0 l 1
 256 0 l 1
 256 12 252 30 245 54 c 0
 238 77 228 102 216 127 c 0
 204 152 190 173 175 190 c 0
 160 207 144 215 129 215 c 1
117 86 m 0
 108 86 100 83 94 77 c 0
 89 71 86 64 86 55 c 0
 86 47 89 40 94 34 c 0
 100 27 108 24 117 24 c 0
 127 24 135 27 140 34 c 0
 145 40 148 47 148 55 c 0
 148 64 145 71 140 77 c 0
 135 83 127 86 117 86 c 0
EndSplineSet
EndChar
StartChar: uni0E26
Encoding: 198 3622 168
OldEncoding: 3622
Width: 404
Flags: HW
HStem: 310 36<200 226.5>
VStem: 98 42<113 169 169 171> 311 41<-177 236>
Fore
98 113 m 1
 98 169 l 2
 98 182 100 194 104 204 c 0
 107 213 112 221 118 226 c 0
 124 231 131 235 138 238 c 1
 133 242 124 247 111 254 c 0
 98 261 81 266 62 267 c 1
 71 280 89 297 116 317 c 0
 143 336 176 346 217 346 c 0
 256 346 289 337 314 318 c 0
 339 299 352 272 352 236 c 2
 352 -177 l 1
 311 -177 l 1
 311 236 l 2
 311 251 307 264 298 275 c 0
 290 286 279 295 265 301 c 0
 251 307 235 310 218 310 c 0
 182 310 151 299 125 277 c 1
 131 276 141 272 155 266 c 0
 169 260 182 251 194 240 c 1
 185 238 174 232 161 222 c 0
 147 212 140 195 140 171 c 2
 140 54 l 2
 140 37 135 23 124 12 c 0
 113 0 97 -6 78 -6 c 0
 59 -6 45 0 34 12 c 0
 23 24 17 39 17 56 c 0
 17 73 22 87 33 99 c 0
 44 111 59 117 78 117 c 0
 87 117 93 116 98 113 c 1
78 25 m 0
 88 25 96 28 102 34 c 0
 107 40 110 47 110 56 c 0
 110 64 107 71 102 77 c 0
 96 83 88 86 78 86 c 0
 69 86 61 83 56 77 c 0
 50 70 47 63 47 56 c 0
 47 48 50 41 56 35 c 0
 61 28 69 25 78 25 c 0
EndSplineSet
EndChar
StartChar: uni0E27
Encoding: 199 3623 169
OldEncoding: 3623
Width: 332
Flags: HW
HStem: -6 20 313 33<138.5 161.5>
VStem: 238 41<114 234>
Fore
279 234 m 2
 279 56 l 2
 279 39 274 25 265 13 c 0
 256 0 240 -6 219 -6 c 0
 200 -6 185 0 174 12 c 0
 163 24 157 39 157 56 c 0
 157 73 162 87 173 99 c 0
 183 111 198 117 218 117 c 0
 224 117 231 116 238 114 c 1
 238 234 l 2
 238 259 230 280 214 293 c 0
 197 307 175 313 148 313 c 0
 125 313 104 307 85 296 c 0
 67 285 53 271 43 256 c 1
 17 277 l 1
 24 289 34 300 47 311 c 0
 59 321 74 329 92 336 c 0
 110 343 129 346 148 346 c 0
 187 346 219 336 243 316 c 0
 267 297 279 269 279 234 c 2
218 86 m 0
 209 86 201 83 196 77 c 0
 190 70 187 63 187 56 c 0
 187 48 190 41 195 35 c 0
 201 28 209 25 218 25 c 0
 228 25 236 28 241 34 c 0
 246 40 249 47 249 56 c 0
 249 64 246 71 241 77 c 0
 236 83 228 86 218 86 c 0
EndSplineSet
EndChar
StartChar: uni0E28
Encoding: 200 3624 170
OldEncoding: 3624
Width: 367
Flags: HW
HStem: 0 20
VStem: 86 41<0 61 61 68.5> 273 42<0 227 227 231>
Fore
284 309 m 1
 287 313 291 320 296 330 c 0
 301 339 305 349 309 361 c 1
 346 342 l 1
 342 328 336 315 327 304 c 0
 318 292 310 283 305 278 c 1
 312 264 315 248 315 231 c 2
 315 0 l 1
 273 0 l 1
 273 227 l 2
 273 236 272 243 271 249 c 1
 266 246 258 241 248 235 c 0
 238 229 230 225 223 223 c 1
 224 220 224 217 225 214 c 0
 226 210 226 205 226 200 c 0
 226 183 220 170 208 159 c 0
 197 148 182 142 165 142 c 0
 148 142 135 146 127 154 c 1
 127 0 l 1
 86 0 l 1
 86 61 l 2
 86 76 84 89 79 101 c 0
 74 112 66 126 55 143 c 0
 44 160 37 174 32 186 c 0
 27 197 25 211 25 227 c 0
 25 253 32 275 45 293 c 0
 59 312 77 325 100 334 c 0
 122 343 146 348 171 348 c 0
 218 348 256 335 284 309 c 1
256 277 m 1
 251 284 242 292 228 301 c 0
 214 310 195 315 171 315 c 0
 156 315 140 312 125 307 c 0
 109 301 94 291 83 278 c 0
 71 264 66 246 66 225 c 0
 66 213 70 199 77 184 c 0
 84 169 88 157 90 148 c 1
 90 180 l 2
 90 205 96 225 109 241 c 0
 122 257 141 265 165 265 c 0
 174 265 182 264 188 262 c 0
 194 259 199 256 203 252 c 0
 207 249 209 247 209 247 c 1
 216 249 224 253 233 259 c 0
 242 265 250 271 256 277 c 1
165 234 m 0
 155 234 147 231 142 225 c 0
 137 219 134 212 134 203 c 0
 134 195 137 188 142 182 c 0
 147 175 155 172 165 172 c 0
 175 172 183 175 188 182 c 0
 193 188 196 195 196 203 c 0
 196 212 193 219 188 225 c 0
 183 231 175 234 165 234 c 0
EndSplineSet
EndChar
StartChar: uni0E29
Encoding: 201 3625 171
OldEncoding: 3625
Width: 402
Flags: HW
HStem: 0 36<61 102 144 267> 324 20<73.5 89.5>
VStem: 102 42<36 224 224 224> 298 42<65 125 125 125 171 340>
Fore
340 138 m 1
 340 65 l 2
 340 38 335 20 326 12 c 0
 317 4 297 0 267 0 c 2
 61 0 l 1
 61 36 l 1
 102 36 l 1
 102 224 l 1
 97 222 91 221 83 221 c 0
 64 221 49 227 38 240 c 0
 27 252 21 266 21 283 c 0
 21 300 27 314 38 326 c 0
 49 338 64 344 83 344 c 0
 96 344 106 341 115 336 c 0
 124 331 132 323 137 314 c 0
 142 305 144 294 144 282 c 2
 144 36 l 1
 267 36 l 2
 280 36 289 38 292 42 c 1
 296 45 298 53 298 65 c 2
 298 125 l 1
 293 124 284 123 271 123 c 0
 245 124 222 129 201 139 c 0
 180 149 170 166 169 190 c 0
 169 203 173 216 182 227 c 0
 191 238 204 244 223 244 c 0
 242 244 256 239 265 229 c 0
 274 218 279 205 279 191 c 0
 279 174 274 162 263 154 c 1
 275 154 287 154 298 155 c 1
 298 340 l 1
 340 340 l 1
 340 171 l 1
 347 176 353 184 360 195 c 0
 367 205 370 220 371 240 c 1
 404 240 l 1
 404 211 399 189 386 175 c 0
 374 162 358 149 340 138 c 1
223 164 m 0
 228 164 233 165 238 168 c 0
 242 171 245 174 247 178 c 0
 249 182 250 186 250 191 c 0
 250 199 248 205 243 210 c 0
 238 215 232 218 223 218 c 0
 214 218 208 215 203 210 c 0
 198 205 196 198 196 191 c 0
 196 184 198 178 203 172 c 0
 208 167 214 164 223 164 c 0
83 313 m 0
 73 313 65 310 60 304 c 0
 55 298 52 291 52 282 c 0
 52 274 55 267 60 261 c 0
 65 254 73 251 83 251 c 0
 93 251 101 254 106 261 c 0
 111 267 114 274 114 282 c 0
 114 291 111 298 106 304 c 0
 101 310 93 313 83 313 c 0
EndSplineSet
EndChar
StartChar: uni0E2A
Encoding: 202 3626 172
OldEncoding: 3626
Width: 350
Flags: HW
HStem: -6 20 313 33<149 177>
VStem: 48 38<142 157> 256 42<0 6 117 234>
Fore
117 86 m 0
 108 86 100 83 94 77 c 0
 89 71 86 64 86 55 c 0
 86 47 89 40 94 34 c 0
 100 27 108 24 117 24 c 0
 127 24 135 27 140 34 c 0
 145 40 148 47 148 55 c 0
 148 64 145 71 140 77 c 0
 135 83 127 86 117 86 c 0
245 275 m 1
 245 272 239 262 226 244 c 0
 213 227 206 216 206 213 c 1
 214 204 222 192 229 179 c 0
 236 166 241 154 246 143 c 0
 250 132 253 123 256 117 c 1
 256 234 l 2
 256 249 252 262 245 275 c 1
188 237 m 2
 189 237 196 247 209 266 c 0
 222 285 228 294 228 294 c 1
 213 307 191 313 163 313 c 0
 118 313 82 295 56 259 c 1
 29 280 l 1
 39 297 56 312 81 326 c 0
 105 339 133 346 165 346 c 0
 195 346 221 340 244 328 c 0
 246 328 252 336 262 351 c 0
 272 366 279 374 282 374 c 0
 283 373 287 371 292 368 c 0
 298 364 303 360 308 357 c 0
 312 354 314 351 314 348 c 1
 309 342 302 333 291 321 c 0
 280 310 275 304 275 303 c 0
 290 285 298 262 298 234 c 2
 298 0 l 1
 256 0 l 1
 256 12 252 30 245 54 c 0
 238 77 228 102 216 127 c 0
 204 152 190 173 175 190 c 0
 160 207 144 215 129 215 c 1
 100 212 86 187 86 140 c 0
 86 131 87 121 88 109 c 1
 89 110 92 112 97 114 c 0
 102 116 108 117 117 117 c 0
 136 117 151 111 162 99 c 0
 173 87 178 73 178 56 c 0
 178 38 173 23 162 12 c 0
 151 0 136 -6 117 -6 c 0
 98 -6 83 0 72 13 c 0
 61 26 54 40 52 57 c 0
 49 80 47 109 48 142 c 0
 48 172 56 197 68 216 c 0
 81 236 98 247 123 250 c 1
 144 250 159 247 168 242 c 1
 168 242 170 242 173 241 c 0
 176 240 180 240 183 239 c 0
 186 238 188 237 188 237 c 2
EndSplineSet
EndChar
StartChar: uni0E2B
Encoding: 203 3627 173
OldEncoding: 3627
Width: 402
Flags: HW
HStem: 0 20 324 20<73.5 89.5 279.5 299>
VStem: 102 42<0 13 127 224 224 224> 309 41<0 161>
Fore
102 0 m 1
 102 224 l 1
 97 222 91 221 83 221 c 0
 64 221 49 227 38 240 c 0
 27 252 21 266 21 283 c 0
 21 300 27 314 38 326 c 0
 49 338 64 344 83 344 c 0
 96 344 106 341 115 336 c 0
 124 331 132 323 137 314 c 0
 142 305 144 294 144 282 c 2
 144 127 l 1
 156 156 173 178 196 197 c 0
 218 215 235 228 248 234 c 1
 233 245 226 261 226 282 c 0
 226 299 232 313 243 326 c 0
 254 338 270 344 289 344 c 0
 309 344 324 338 335 326 c 0
 346 314 351 300 351 283 c 0
 351 272 348 262 343 252 c 0
 337 242 329 234 319 229 c 1
 324 227 331 221 338 210 c 0
 346 200 350 184 350 161 c 2
 350 0 l 1
 309 0 l 1
 309 161 l 2
 309 180 306 193 299 201 c 0
 292 208 287 213 282 215 c 1
 239 193 205 162 181 123 c 0
 156 84 144 47 144 13 c 2
 144 0 l 1
 102 0 l 1
289 314 m 0
 280 314 272 311 267 305 c 0
 261 299 258 292 258 283 c 0
 258 275 261 268 267 262 c 0
 272 255 280 252 289 252 c 0
 299 252 307 255 312 262 c 0
 317 268 320 275 320 283 c 0
 320 292 317 299 312 305 c 0
 307 311 299 314 289 314 c 0
83 313 m 0
 73 313 65 310 60 304 c 0
 55 298 52 291 52 282 c 0
 52 274 55 267 60 261 c 0
 65 254 73 251 83 251 c 0
 93 251 101 254 106 261 c 0
 111 267 114 274 114 282 c 0
 114 291 111 298 106 304 c 0
 101 310 93 313 83 313 c 0
EndSplineSet
EndChar
StartChar: uni0E2C
Encoding: 204 3628 174
OldEncoding: 3628
Width: 434
Flags: HW
HStem: 0 20
VStem: 102 42<109 224 224 224> 340 42<109 284 284 284>
Fore
102 0 m 1
 102 224 l 1
 97 222 91 221 83 221 c 0
 64 221 49 227 38 240 c 0
 27 252 21 266 21 283 c 0
 21 300 27 314 38 326 c 0
 49 338 64 344 83 344 c 0
 96 344 106 341 115 336 c 0
 124 331 132 323 137 314 c 0
 142 305 144 294 144 282 c 2
 144 109 l 1
 244 325 l 1
 340 109 l 1
 340 284 l 1
 319 284 303 289 292 300 c 0
 282 310 277 323 277 340 c 0
 277 355 282 367 293 377 c 0
 304 387 317 392 334 392 c 0
 349 392 361 387 371 376 c 0
 381 365 386 351 386 334 c 1
 391 336 397 341 405 349 c 0
 413 357 419 368 423 382 c 1
 452 365 l 1
 446 346 436 331 421 318 c 0
 406 305 393 296 382 292 c 1
 382 0 l 1
 340 0 l 2
 339 0 339 3 339 8 c 0
 339 13 338 19 337 26 c 0
 336 33 335 39 334 42 c 2
 244 240 l 1
 152 42 l 2
 149 35 147 28 146 20 c 0
 145 11 145 4 144 0 c 1
 102 0 l 1
83 313 m 0
 73 313 65 310 60 304 c 0
 55 298 52 291 52 282 c 0
 52 274 55 267 60 261 c 0
 65 254 73 251 83 251 c 0
 93 251 101 254 106 261 c 0
 111 267 114 274 114 282 c 0
 114 291 111 298 106 304 c 0
 101 310 93 313 83 313 c 0
331 313 m 0
 340 313 346 316 351 321 c 0
 355 326 357 332 357 339 c 0
 357 346 355 353 351 358 c 0
 346 363 340 365 331 365 c 0
 323 365 317 362 313 357 c 0
 308 352 306 346 306 339 c 0
 306 332 308 326 313 321 c 0
 317 316 323 313 331 313 c 0
EndSplineSet
EndChar
StartChar: uni0E2D
Encoding: 205 3629 175
OldEncoding: 3629
Width: 359
Flags: HW
HStem: 0 36<129 234> 314 32<171 184.5>
VStem: 56 42<65 125> 265 42<65 234>
Fore
98 125 m 1
 98 65 l 2
 98 53 100 45 104 42 c 1
 107 38 116 36 129 36 c 2
 234 36 l 2
 247 36 256 38 260 42 c 0
 263 45 265 53 265 65 c 2
 265 234 l 2
 265 259 256 279 239 292 c 0
 221 306 198 314 171 314 c 0
 127 315 91 296 64 259 c 1
 38 280 l 1
 48 297 65 312 89 326 c 0
 113 339 141 346 173 346 c 0
 198 346 221 342 242 333 c 0
 262 324 278 312 290 295 c 0
 301 278 307 258 307 234 c 2
 307 65 l 2
 307 38 302 20 293 12 c 0
 283 4 263 0 234 0 c 2
 129 0 l 2
 108 0 93 2 83 5 c 0
 73 8 66 14 63 23 c 1
 58 32 56 46 56 65 c 2
 56 182 l 2
 56 190 58 199 62 208 c 0
 65 217 72 226 81 233 c 0
 90 240 103 244 119 244 c 0
 138 244 153 238 164 226 c 0
 175 214 180 200 180 183 c 0
 180 166 175 151 164 139 c 0
 153 127 138 121 119 121 c 0
 116 121 109 122 98 125 c 1
118 152 m 0
 127 152 135 155 141 162 c 0
 146 167 149 174 149 182 c 0
 149 191 146 198 141 204 c 0
 136 210 128 213 118 213 c 0
 108 213 100 210 95 205 c 0
 90 199 87 192 87 183 c 0
 87 174 90 167 95 161 c 0
 101 155 109 152 118 152 c 0
EndSplineSet
EndChar
StartChar: uni0E2E
Encoding: 206 3630 176
OldEncoding: 3630
Width: 359
Flags: HW
HStem: 0 36<129 234> 227 34<148 171.5> 315 31<154.5 176>
VStem: 265 42<65 252 252 252>
Fore
56 65 m 2
 56 148 l 2
 56 162 61 176 70 190 c 0
 79 204 96 211 119 211 c 0
 138 211 153 205 164 193 c 0
 175 181 180 167 180 150 c 0
 180 133 175 119 164 106 c 0
 153 94 138 88 119 88 c 0
 112 88 105 89 98 92 c 1
 98 65 l 2
 98 53 100 45 104 42 c 1
 107 38 116 36 129 36 c 2
 234 36 l 2
 247 36 256 38 260 42 c 0
 263 45 265 53 265 65 c 2
 265 252 l 1
 258 246 244 240 223 235 c 0
 201 230 181 227 163 227 c 0
 133 227 106 232 81 242 c 0
 56 252 44 266 44 284 c 0
 44 298 50 310 63 319 c 0
 76 328 91 335 110 340 c 0
 129 344 146 346 163 346 c 0
 189 346 211 343 228 338 c 0
 245 333 259 326 270 319 c 0
 279 313 284 310 284 309 c 1
 284 309 l 1
 297 322 309 335 319 348 c 1
 348 325 l 1
 339 312 331 301 322 293 c 0
 313 285 306 280 302 277 c 1
 304 275 306 271 307 265 c 1
 307 65 l 2
 307 38 302 20 293 12 c 0
 283 4 263 0 234 0 c 2
 129 0 l 2
 108 0 93 2 83 5 c 0
 73 8 66 14 63 23 c 1
 58 32 56 46 56 65 c 2
163 261 m 0
 180 261 196 263 210 267 c 0
 224 270 235 273 244 277 c 0
 252 281 256 283 256 284 c 0
 251 289 242 296 227 304 c 0
 212 311 190 315 163 315 c 0
 144 315 126 313 110 308 c 0
 94 303 86 296 86 286 c 0
 86 269 112 261 163 261 c 0
118 118 m 0
 128 118 136 121 141 127 c 0
 146 134 149 141 149 149 c 0
 149 158 146 165 141 171 c 0
 136 177 128 180 118 180 c 0
 109 180 101 177 95 171 c 0
 90 166 87 158 87 149 c 0
 87 140 90 133 95 127 c 0
 101 121 109 118 118 118 c 0
EndSplineSet
EndChar
StartChar: uni0E2F
Encoding: 207 3631 177
OldEncoding: 3631
Width: 334
Flags: HW
HStem: -13 20 153 193
VStem: 240 42<110 223 223 223 326.5 340>
Fore
102 346 m 0
 122 346 137 340 147 329 c 0
 158 317 163 303 163 286 c 0
 163 270 157 256 147 244 c 0
 136 231 123 225 106 225 c 0
 97 225 90 226 84 229 c 0
 79 231 75 233 73 234 c 1
 78 222 86 212 97 203 c 0
 108 194 122 190 138 190 c 0
 157 190 174 197 189 211 c 0
 204 225 217 243 227 266 c 0
 236 289 240 313 240 340 c 1
 282 340 l 1
 282 106 l 2
 282 72 274 46 257 28 c 0
 240 10 213 -4 175 -13 c 1
 165 25 l 1
 195 32 215 42 226 53 c 1
 235 64 240 83 240 110 c 2
 240 223 l 1
 231 200 218 182 200 171 c 0
 181 159 161 153 140 153 c 0
 118 153 97 159 78 172 c 0
 58 185 45 202 38 223 c 0
 35 234 33 246 33 259 c 0
 33 283 38 304 49 321 c 0
 60 338 77 346 102 346 c 0
104 254 m 0
 114 254 122 257 127 263 c 0
 132 269 135 276 135 285 c 0
 135 293 132 300 126 306 c 0
 121 312 113 315 104 315 c 0
 95 315 87 312 82 306 c 0
 77 300 74 293 74 285 c 0
 74 276 77 269 82 263 c 0
 87 257 95 254 104 254 c 0
EndSplineSet
EndChar
StartChar: uni0E30
Encoding: 208 3632 178
OldEncoding: 3632
Width: 277
Flags: HW
HStem: 0 20 326 20<71.5 90.5>
VStem: 21 219
Fore
113 223 m 0
 82 223 59 229 44 242 c 0
 29 254 21 269 21 287 c 0
 21 303 27 317 38 329 c 0
 49 340 63 346 80 346 c 0
 101 346 116 341 126 330 c 0
 136 319 141 306 141 291 c 0
 141 279 137 267 129 256 c 1
 140 256 155 261 172 271 c 0
 189 282 198 305 198 340 c 1
 240 340 l 1
 240 315 235 293 225 276 c 0
 214 259 200 245 181 236 c 0
 162 227 140 223 113 223 c 0
113 0 m 0
 83 0 60 6 44 19 c 0
 29 32 21 47 21 64 c 0
 21 79 27 93 38 105 c 0
 49 117 63 124 80 123 c 0
 95 123 106 119 115 114 c 0
 124 109 130 102 135 94 c 0
 139 86 141 77 141 68 c 0
 141 55 137 44 129 33 c 1
 140 33 155 38 172 49 c 0
 189 59 198 82 198 117 c 1
 240 117 l 1
 240 92 235 70 225 53 c 0
 214 35 200 22 181 13 c 0
 162 4 140 0 113 0 c 0
80 96 m 0
 71 96 64 93 59 88 c 0
 54 82 52 75 52 67 c 0
 52 60 55 53 60 47 c 0
 65 41 71 38 80 38 c 0
 89 38 97 41 102 46 c 0
 107 52 109 59 109 67 c 0
 109 76 107 83 102 88 c 0
 97 93 89 96 80 96 c 0
80 319 m 0
 71 319 64 316 59 311 c 0
 54 305 52 298 52 290 c 0
 52 283 55 276 60 270 c 0
 65 264 71 261 80 261 c 0
 89 261 97 264 102 270 c 0
 107 275 109 282 109 290 c 0
 109 309 99 319 80 319 c 0
EndSplineSet
EndChar
StartChar: uni0E31
Encoding: 209 3633 179
OldEncoding: 3633
Width: 0
Flags: HW
VStem: -211 299
Fore
-211 476 m 1
 -211 495 -206 511 -196 523 c 0
 -186 536 -172 542 -153 542 c 0
 -134 542 -120 536 -109 525 c 0
 -98 513 -93 500 -93 485 c 0
 -93 468 -99 454 -112 442 c 1
 -109 441 -103 440 -94 439 c 0
 -86 438 -80 437 -76 437 c 0
 -57 438 -38 443 -21 450 c 0
 -3 458 13 468 26 483 c 0
 39 497 48 513 53 532 c 1
 88 515 l 1
 82 495 71 477 55 460 c 0
 38 443 19 430 -4 419 c 0
 -27 408 -52 402 -78 402 c 0
 -113 401 -143 408 -168 419 c 0
 -194 431 -208 450 -211 476 c 1
-153 455 m 0
 -144 455 -137 458 -132 463 c 0
 -127 469 -125 476 -125 484 c 0
 -125 493 -127 500 -132 505 c 0
 -137 510 -144 513 -153 513 c 0
 -162 513 -169 510 -174 505 c 0
 -179 500 -182 493 -182 484 c 0
 -182 477 -179 470 -174 464 c 0
 -169 458 -162 455 -153 455 c 0
EndSplineSet
EndChar
StartChar: uni0E32
Encoding: 210 3634 180
OldEncoding: 3634
Width: 296
Flags: HW
HStem: 0 20 315 31<118.5 139>
VStem: 202 42<0 246>
Fore
13 271 m 1
 26 295 41 314 58 327 c 0
 75 340 98 346 128 346 c 0
 163 346 191 337 212 320 c 0
 233 303 244 278 244 246 c 2
 244 0 l 1
 202 0 l 1
 202 248 l 2
 202 269 195 287 182 298 c 0
 168 310 150 315 128 315 c 0
 109 315 92 310 77 299 c 0
 62 288 51 273 44 256 c 1
 39 259 34 261 29 264 c 0
 24 266 18 268 13 271 c 1
EndSplineSet
EndChar
StartChar: uni0E33
Encoding: 211 3635 181
OldEncoding: 3635
Width: 296
Flags: HW
HStem: 0 20 315 31<118.5 139>
VStem: 202 42<0 246>
Fore
-73 403 m 0
 -92 403 -107 409 -118 421 c 0
 -129 433 -135 447 -135 464 c 0
 -135 481 -130 495 -119 507 c 0
 -108 519 -93 525 -73 525 c 0
 -54 525 -39 519 -28 507 c 0
 -17 495 -12 481 -12 464 c 0
 -12 447 -17 433 -28 421 c 0
 -39 409 -54 403 -73 403 c 0
13 271 m 1
 26 295 41 314 58 327 c 0
 75 340 98 346 128 346 c 0
 163 346 191 337 212 320 c 0
 233 303 244 278 244 246 c 2
 244 0 l 1
 202 0 l 1
 202 248 l 2
 202 269 195 287 182 298 c 0
 168 310 150 315 128 315 c 0
 109 315 92 310 77 299 c 0
 62 288 51 273 44 256 c 1
 39 259 34 261 29 264 c 0
 24 266 18 268 13 271 c 1
-73 498 m 0
 -84 498 -92 495 -98 488 c 0
 -104 481 -107 473 -107 464 c 0
 -107 455 -104 447 -98 440 c 0
 -92 433 -84 430 -73 430 c 0
 -66 430 -60 432 -55 435 c 0
 -50 438 -46 443 -43 448 c 0
 -40 453 -39 459 -39 464 c 0
 -39 473 -42 481 -48 488 c 0
 -54 495 -62 498 -73 498 c 0
EndSplineSet
EndChar
StartChar: uni0E34
Encoding: 212 3636 182
OldEncoding: 3636
Width: 0
Flags: HW
VStem: -321 279
Fore
-175 540 m 1
 -130 534 -99 517 -80 489 c 0
 -62 461 -49 431 -42 398 c 1
 -53 402 -71 408 -94 415 c 0
 -117 422 -142 426 -169 429 c 0
 -187 431 -205 432 -224 432 c 0
 -246 432 -266 431 -283 430 c 0
 -301 428 -314 426 -321 425 c 1
 -318 445 -309 464 -295 482 c 0
 -282 500 -265 514 -244 524 c 0
 -223 535 -200 540 -175 540 c 1
-183 509 m 1
 -204 509 -222 504 -239 493 c 0
 -256 483 -266 472 -269 459 c 1
 -264 460 -258 460 -249 461 c 0
 -240 462 -226 462 -209 462 c 0
 -194 462 -183 462 -175 461 c 0
 -149 459 -129 455 -114 449 c 0
 -99 444 -90 439 -85 436 c 1
 -104 478 -136 502 -183 509 c 1
EndSplineSet
EndChar
StartChar: uni0E35
Encoding: 213 3637 183
OldEncoding: 3637
Width: 40
Flags: HW
VStem: -72 38<501 580>
Fore
-72 501 m 1
 -72 580 l 1
 -34 580 l 1
 -34 441 l 1
 -34 441 l 1
 -34 441 -33 437 -30 430 c 0
 -27 422 -25 411 -22 398 c 1
 -33 402 -51 408 -74 415 c 0
 -97 422 -122 426 -149 429 c 0
 -167 431 -185 432 -204 432 c 0
 -226 432 -246 431 -263 430 c 0
 -281 428 -294 426 -301 425 c 1
 -298 445 -289 464 -275 482 c 0
 -262 500 -245 514 -224 525 c 0
 -203 535 -180 540 -155 540 c 1
 -139 538 -125 534 -112 528 c 0
 -100 523 -91 517 -84 512 c 0
 -78 507 -74 503 -72 501 c 1
-163 509 m 1
 -178 509 -191 506 -203 501 c 0
 -215 496 -225 490 -233 482 c 0
 -241 475 -246 467 -249 459 c 1
 -244 460 -238 460 -229 461 c 0
 -220 462 -206 462 -189 462 c 0
 -174 462 -163 462 -155 461 c 0
 -129 459 -109 455 -94 449 c 0
 -79 444 -70 439 -65 436 c 1
 -72 453 -83 469 -98 483 c 0
 -113 497 -134 506 -163 509 c 1
EndSplineSet
EndChar
StartChar: uni0E36
Encoding: 214 3638 184
OldEncoding: 3638
Width: 0
Flags: HW
VStem: -321 284
Fore
-37 532 m 0
 -37 519 -40 508 -47 498 c 0
 -54 488 -63 482 -74 480 c 1
 -69 473 -64 463 -57 448 c 0
 -50 433 -45 416 -42 398 c 1
 -53 402 -71 408 -94 415 c 0
 -117 422 -142 426 -169 429 c 0
 -187 431 -205 432 -224 432 c 0
 -246 432 -266 431 -283 430 c 0
 -301 428 -314 426 -321 425 c 1
 -317 446 -309 466 -295 485 c 0
 -282 503 -265 517 -247 527 c 0
 -228 537 -210 542 -192 542 c 0
 -185 542 -177 541 -170 540 c 0
 -163 539 -157 537 -152 536 c 0
 -147 534 -145 533 -145 533 c 1
 -145 546 -140 558 -130 569 c 0
 -121 580 -108 586 -92 586 c 0
 -75 586 -61 581 -52 571 c 0
 -43 560 -38 547 -37 532 c 0
-91 559 m 0
 -100 559 -106 557 -110 552 c 0
 -115 547 -117 541 -117 534 c 0
 -117 528 -115 522 -110 517 c 0
 -105 512 -99 509 -91 509 c 0
 -84 509 -78 512 -73 517 c 0
 -68 522 -66 528 -66 534 c 0
 -66 541 -68 547 -72 552 c 0
 -77 557 -83 559 -91 559 c 0
-183 509 m 1
 -198 509 -211 506 -223 501 c 0
 -235 496 -245 490 -253 482 c 0
 -261 475 -266 467 -269 459 c 1
 -264 460 -258 460 -249 461 c 0
 -240 462 -226 462 -209 462 c 0
 -194 462 -183 462 -175 461 c 0
 -149 459 -129 455 -114 449 c 0
 -99 444 -90 439 -85 436 c 1
 -92 453 -103 468 -118 482 c 0
 -133 496 -154 505 -183 509 c 1
EndSplineSet
EndChar
StartChar: uni0E37
Encoding: 215 3639 185
OldEncoding: 3639
Width: 40
Flags: HW
VStem: -147 38<539 580> -72 38<500 580>
Fore
-34 440 m 1
 -33 440 -29 426 -22 398 c 1
 -33 402 -51 408 -74 415 c 0
 -97 422 -122 426 -149 429 c 0
 -167 431 -185 432 -204 432 c 0
 -226 432 -246 431 -263 430 c 0
 -281 428 -294 426 -301 425 c 1
 -298 447 -288 467 -275 484 c 0
 -261 502 -246 516 -227 526 c 0
 -208 537 -188 542 -169 542 c 0
 -161 542 -154 541 -147 539 c 1
 -147 580 l 1
 -109 580 l 1
 -109 527 l 1
 -93 521 -81 512 -72 500 c 1
 -72 580 l 1
 -34 580 l 1
 -34 440 l 1
-163 509 m 1
 -184 509 -202 504 -219 493 c 0
 -236 483 -246 472 -249 459 c 1
 -244 460 -238 460 -229 461 c 0
 -220 462 -206 462 -189 462 c 0
 -174 462 -163 462 -155 461 c 0
 -129 459 -109 455 -94 449 c 0
 -79 444 -70 439 -65 436 c 1
 -84 478 -116 502 -163 509 c 1
EndSplineSet
EndChar
StartChar: uni0E38
Encoding: 216 3640 186
OldEncoding: 3640
Width: 0
Flags: HW
VStem: -94 42<-250 -162 -162 -162>
Fore
-52 -250 m 1
 -94 -250 l 1
 -94 -162 l 1
 -100 -164 -107 -165 -115 -165 c 0
 -134 -165 -149 -159 -159 -147 c 0
 -170 -135 -175 -121 -175 -104 c 0
 -175 -87 -170 -73 -159 -60 c 0
 -148 -48 -133 -42 -113 -42 c 0
 -96 -42 -81 -47 -70 -58 c 0
 -59 -68 -52 -83 -52 -102 c 2
 -52 -250 l 1
-113 -134 m 0
 -104 -134 -96 -131 -90 -125 c 0
 -85 -120 -82 -113 -82 -104 c 0
 -82 -95 -85 -88 -90 -82 c 0
 -95 -76 -103 -73 -113 -73 c 0
 -123 -73 -131 -76 -137 -83 c 0
 -142 -89 -145 -96 -145 -104 c 0
 -145 -112 -142 -119 -136 -125 c 0
 -130 -131 -122 -134 -113 -134 c 0
EndSplineSet
EndChar
StartChar: uni0E39
Encoding: 217 3641 187
OldEncoding: 3641
Width: 0
Flags: HW
VStem: -94 42<-200 -46>
Fore
-188 -200 m 2
 -188 -162 l 1
 -194 -164 -201 -165 -208 -165 c 0
 -227 -165 -241 -159 -252 -146 c 0
 -263 -133 -269 -119 -269 -103 c 0
 -269 -87 -263 -73 -252 -60 c 0
 -241 -48 -226 -42 -207 -42 c 0
 -190 -42 -175 -47 -164 -58 c 0
 -153 -68 -146 -83 -146 -102 c 2
 -146 -200 l 2
 -146 -207 -143 -213 -138 -218 c 0
 -133 -223 -127 -225 -120 -225 c 0
 -113 -225 -107 -223 -102 -218 c 0
 -97 -213 -94 -207 -94 -200 c 2
 -94 -46 l 1
 -52 -46 l 1
 -52 -200 l 2
 -52 -218 -59 -232 -72 -243 c 0
 -85 -254 -101 -259 -120 -259 c 0
 -138 -259 -154 -253 -167 -242 c 0
 -181 -231 -188 -217 -188 -200 c 2
-207 -134 m 0
 -197 -134 -189 -131 -184 -125 c 0
 -179 -119 -176 -112 -176 -104 c 0
 -176 -96 -179 -89 -184 -83 c 0
 -189 -76 -197 -73 -207 -73 c 0
 -217 -73 -225 -76 -230 -82 c 0
 -235 -88 -238 -95 -238 -104 c 0
 -238 -112 -235 -119 -229 -125 c 0
 -224 -131 -216 -134 -207 -134 c 0
EndSplineSet
EndChar
StartChar: uni0E3A
Encoding: 218 3642 188
OldEncoding: 3642
Width: 0
Flags: HW
VStem: -105 63<-98 -90>
Fore
-73 -62 m 0
 -63 -62 -55 -65 -50 -71 c 0
 -45 -78 -42 -85 -42 -94 c 0
 -42 -102 -45 -109 -50 -116 c 0
 -55 -122 -63 -125 -73 -125 c 0
 -83 -125 -91 -122 -96 -116 c 0
 -102 -109 -105 -102 -105 -94 c 0
 -105 -86 -102 -79 -97 -72 c 0
 -91 -66 -83 -63 -73 -62 c 0
EndSplineSet
EndChar
StartChar: dottedcircle
Encoding: 221 9676 190
OldEncoding: 63260
Width: 619
Flags: HW
HStem: 3 24<322 323> 27 24<225 226> 34 24<406 407> 87 24<160 164> 95 24<460 461> 184 24<136 140> 268 24<460 461> 271 24<165 166> 331 24<231 234> 354 24<321 323>
VStem: 124 24<196 199> 148 24<99 100> 153 24<284 285> 212 24<40 42> 219 24<343 347> 310 24<15 19 366 367> 386 24<338 339> 394 24<46 50> 448 24<107 108 280 284> 471 24<192 193>
Fore
158 294 m 2
224 354 m 2
217 50 m 2
153 110 m 2
399 57 m 2
453 118 m 2
453 291 m 2
391 349 m 2
476 203 m 2
129 207 m 2
314 376 m 2
165 296 m 0
 172 296 177 291 177 284 c 0
 177 277 172 271 165 271 c 0
 158 271 153 277 153 284 c 0
 153 291 158 296 165 296 c 0
231 355 m 0
 238 355 244 350 244 343 c 0
 244 336 238 331 231 331 c 0
 225 331 219 336 219 343 c 0
 219 350 225 355 231 355 c 0
225 52 m 0
 231 52 237 46 237 40 c 0
 237 33 231 27 225 27 c 0
 218 27 212 33 212 40 c 0
 212 46 218 52 225 52 c 0
160 111 m 0
 167 111 172 106 172 99 c 0
 172 92 167 87 160 87 c 0
 153 87 148 92 148 99 c 0
 148 106 153 111 160 111 c 0
406 59 m 0
 413 59 418 53 418 46 c 0
 418 40 413 34 406 34 c 0
 399 34 394 40 394 46 c 0
 394 53 399 59 406 59 c 0
460 119 m 0
 467 119 472 114 472 107 c 0
 472 100 467 95 460 95 c 0
 453 95 448 100 448 107 c 0
 448 114 453 119 460 119 c 0
460 292 m 0
 467 292 472 287 472 280 c 0
 472 273 467 268 460 268 c 0
 453 268 448 273 448 280 c 0
 448 287 453 292 460 292 c 0
398 351 m 0
 405 351 411 345 411 338 c 0
 411 332 405 326 398 326 c 0
 392 326 386 332 386 338 c 0
 386 345 392 351 398 351 c 0
483 204 m 0
 490 204 496 199 496 192 c 0
 496 185 490 180 483 180 c 0
 477 180 471 185 471 192 c 0
 471 199 477 204 483 204 c 0
136 208 m 0
 143 208 148 203 148 196 c 0
 148 189 143 184 136 184 c 0
 129 184 124 189 124 196 c 0
 124 203 129 208 136 208 c 0
322 27 m 0
 329 27 334 22 334 15 c 0
 334 8 329 3 322 3 c 0
 315 3 310 8 310 15 c 0
 310 22 315 27 322 27 c 0
321 378 m 0
 328 378 333 373 333 366 c 0
 333 359 328 354 321 354 c 0
 314 354 309 359 309 366 c 0
 309 373 314 378 321 378 c 0
EndSplineSet
EndChar
StartChar: uni0E3F
Encoding: 223 3647 191
OldEncoding: 3647
Width: 411
VWidth: 2048
Flags: HW
HStem: 0 46<101 168 214 270> 210 47<101 168 214 235> 407 46<55 168 214 229>
VStem: 55 46<0 210 0 407> 168 46<-61 0 46 210 257 407 453 508> 312 47<328 339> 333 45<118 135>
Fore
168 257 m 5
 168 407 l 5
 101 407 l 5
 101 257 l 5
 168 257 l 5
168 46 m 5
 168 210 l 5
 101 210 l 5
 101 46 l 5
 168 46 l 5
214 210 m 5
 214 46 l 5
 251 46 l 6
 306 46 333 74 333 130 c 4
 333 163 321 185 298 197 c 4
 281 206 255 210 220 210 c 6
 214 210 l 5
214 407 m 5
 214 257 l 5
 225 257 l 6
 249 257 269 263 285 274 c 4
 303 288 312 305 312 328 c 4
 312 381 279 407 214 407 c 5
168 508 m 5
 214 508 l 5
 214 453 l 5
 245 453 l 6
 271 453 294 445 316 429 c 4
 345 408 359 378 359 339 c 4
 359 295 337 262 294 240 c 5
 322 226 l 6
 359 208 378 174 378 127 c 4
 378 87 364 54 336 29 c 4
 315 10 293 0 270 0 c 6
 214 0 l 5
 214 -61 l 5
 168 -61 l 5
 168 0 l 5
 55 0 l 5
 55 453 l 5
 168 453 l 5
 168 508 l 5
EndSplineSet
EndChar
StartChar: uni0E40
Encoding: 224 3648 192
OldEncoding: 3648
Width: 200
Flags: HW
HStem: -6 20 320 20<56 98 98 98>
VStem: 56 42<114 340>
Fore
56 340 m 1
 98 340 l 1
 98 114 l 1
 103 116 110 117 119 117 c 0
 138 117 153 111 164 99 c 0
 174 87 179 72 179 55 c 0
 179 38 174 24 163 12 c 0
 152 0 137 -6 118 -6 c 0
 100 -6 86 -1 75 10 c 0
 64 20 56 35 56 54 c 2
 56 340 l 1
118 86 m 0
 109 86 101 83 96 77 c 0
 90 71 87 64 87 56 c 0
 87 47 90 40 95 34 c 0
 101 28 109 25 118 25 c 0
 128 25 136 28 141 34 c 0
 146 40 149 47 149 56 c 0
 149 64 146 71 141 77 c 0
 135 83 127 86 118 86 c 0
EndSplineSet
EndChar
StartChar: uni0E41
Encoding: 225 3649 193
OldEncoding: 3649
Width: 361
Flags: HW
HStem: -6 20 320 20<56 98 98 98 217 259 259 259>
VStem: 56 42<114 340> 217 42<114 340>
Fore
56 340 m 1
 98 340 l 1
 98 114 l 1
 103 116 110 117 119 117 c 0
 138 117 153 111 164 99 c 0
 174 87 179 72 179 55 c 0
 179 38 174 24 163 12 c 0
 152 0 137 -6 118 -6 c 0
 100 -6 86 -1 75 10 c 0
 64 20 56 35 56 54 c 2
 56 340 l 1
217 340 m 1
 259 340 l 1
 259 114 l 1
 265 116 272 117 279 117 c 0
 298 117 313 111 324 99 c 0
 335 86 340 72 340 55 c 0
 340 39 334 25 323 13 c 0
 312 0 297 -6 278 -6 c 0
 261 -6 247 -1 236 10 c 0
 225 20 217 35 217 54 c 2
 217 340 l 1
278 86 m 0
 269 86 261 83 256 77 c 0
 250 70 247 63 247 56 c 0
 247 48 250 41 255 35 c 0
 261 28 269 25 278 25 c 0
 288 25 296 28 302 35 c 0
 307 41 310 48 310 56 c 0
 310 63 307 70 301 77 c 0
 295 83 287 86 278 86 c 0
118 86 m 0
 109 86 101 83 96 77 c 0
 90 71 87 64 87 56 c 0
 87 47 90 40 95 34 c 0
 101 28 109 25 118 25 c 0
 128 25 136 28 141 34 c 0
 146 40 149 47 149 56 c 0
 149 64 146 71 141 77 c 0
 135 83 127 86 118 86 c 0
EndSplineSet
EndChar
StartChar: uni0E42
Encoding: 226 3650 194
OldEncoding: 3650
Width: 215
Flags: HW
HStem: -6 20
VStem: 83 42<114 461 461 463>
Fore
83 54 m 2
 83 461 l 2
 83 479 81 492 78 501 c 0
 74 509 65 517 51 526 c 0
 36 535 10 548 -29 565 c 1
 -21 574 -8 586 11 599 c 0
 30 612 52 619 77 619 c 0
 91 619 108 615 127 607 c 0
 146 598 160 594 168 594 c 0
 178 594 189 598 202 607 c 1
 219 578 l 1
 202 565 186 559 169 559 c 0
 158 559 143 564 123 572 c 0
 102 581 87 584 77 584 c 0
 67 584 58 582 51 579 c 0
 44 576 40 573 37 571 c 1
 66 556 84 546 93 541 c 0
 102 535 110 526 116 514 c 0
 122 502 125 485 125 463 c 2
 125 114 l 1
 130 116 137 117 146 117 c 0
 165 117 180 111 190 99 c 0
 201 87 206 72 206 55 c 0
 206 38 201 24 190 12 c 0
 179 0 164 -6 145 -6 c 0
 128 -6 114 -1 103 10 c 0
 91 20 83 35 83 54 c 2
145 86 m 0
 136 86 128 83 123 77 c 0
 117 71 114 64 114 56 c 0
 114 47 117 40 122 34 c 0
 127 28 135 25 145 25 c 0
 155 25 163 28 168 34 c 0
 173 40 176 47 176 56 c 0
 176 64 173 71 167 77 c 0
 162 83 154 86 145 86 c 0
EndSplineSet
EndChar
StartChar: uni0E43
Encoding: 227 3651 195
OldEncoding: 3651
Width: 215
Flags: HW
HStem: -6 20
VStem: 83 42<114 542>
Fore
83 54 m 2
 83 543 l 2
 83 576 71 592 46 592 c 0
 33 592 24 589 19 583 c 0
 14 576 11 571 10 567 c 1
 27 567 41 562 51 553 c 0
 60 544 65 533 65 519 c 0
 65 504 60 493 51 484 c 0
 42 475 31 471 18 471 c 0
 7 471 -2 474 -11 480 c 0
 -20 485 -26 494 -29 505 c 0
 -32 515 -33 526 -33 537 c 0
 -33 561 -26 581 -13 597 c 0
 0 613 20 621 45 621 c 0
 69 621 88 614 103 601 c 0
 118 587 125 567 125 542 c 2
 125 114 l 1
 130 116 137 117 146 117 c 0
 165 117 180 111 190 99 c 0
 201 87 206 72 206 55 c 0
 206 38 201 24 190 12 c 0
 179 0 164 -6 145 -6 c 0
 128 -6 114 -1 103 10 c 0
 91 20 83 35 83 54 c 2
17 543 m 0
 9 543 3 541 0 536 c 1
 -5 531 -7 526 -7 519 c 0
 -7 512 -5 507 0 502 c 1
 3 497 9 495 17 495 c 0
 25 495 31 497 35 502 c 0
 39 507 41 512 41 519 c 0
 41 525 39 531 35 536 c 0
 31 541 25 543 17 543 c 0
145 86 m 0
 136 86 128 83 123 77 c 0
 117 71 114 64 114 56 c 0
 114 47 117 40 122 34 c 0
 127 28 135 25 145 25 c 0
 155 25 163 28 168 34 c 0
 173 40 176 47 176 56 c 0
 176 64 173 71 167 77 c 0
 162 83 154 86 145 86 c 0
EndSplineSet
EndChar
StartChar: uni0E44
Encoding: 228 3652 196
OldEncoding: 3652
Width: 250
Flags: HW
HStem: -6 20
VStem: 119 42<114 573 573 575.5>
Fore
119 54 m 2
 119 573 l 2
 119 578 118 581 115 581 c 0
 112 581 111 579 110 576 c 2
 73 448 l 2
 68 431 60 423 48 423 c 0
 36 423 28 432 23 450 c 2
 -10 573 l 2
 -14 587 -20 595 -29 598 c 1
 -8 621 l 1
 5 616 14 604 19 584 c 2
 49 469 l 1
 79 586 l 1
 85 608 98 619 121 619 c 0
 133 619 143 615 150 608 c 0
 157 601 161 590 161 576 c 2
 161 114 l 1
 166 116 173 117 182 117 c 0
 201 117 216 111 227 99 c 0
 237 87 242 73 242 56 c 0
 242 39 237 24 226 12 c 0
 215 0 199 -6 180 -6 c 0
 163 -6 149 -1 138 10 c 0
 127 20 119 35 119 54 c 2
180 86 m 0
 171 86 164 83 158 77 c 0
 152 70 149 63 149 56 c 0
 149 48 152 41 158 35 c 0
 163 28 171 25 180 25 c 0
 190 25 198 28 203 34 c 0
 208 40 211 47 211 56 c 0
 211 64 208 71 203 77 c 0
 197 83 189 86 180 86 c 0
EndSplineSet
EndChar
StartChar: uni0E45
Encoding: 229 3653 197
OldEncoding: 3653
Width: 296
Flags: HW
HStem: 315 31<118.5 139>
VStem: 202 42<-177 246>
Fore
13 271 m 1
 26 295 41 314 58 327 c 0
 75 340 98 346 128 346 c 0
 163 346 191 337 212 320 c 0
 233 303 244 278 244 246 c 2
 244 -177 l 1
 202 -177 l 1
 202 248 l 2
 202 269 195 287 182 298 c 0
 168 310 150 315 128 315 c 0
 109 315 92 310 77 299 c 0
 62 288 51 273 44 256 c 1
 39 259 34 261 29 264 c 0
 24 266 18 268 13 271 c 1
EndSplineSet
EndChar
StartChar: uni0E46
Encoding: 230 3654 198
OldEncoding: 3654
Width: 398
Flags: HW
HStem: 326 20<269 269>
VStem: 304 42<-15 240 240 246>
Fore
269 346 m 1
 287 343 302 336 314 327 c 0
 326 318 334 306 339 293 c 0
 344 280 346 264 346 246 c 2
 346 -19 l 2
 346 -42 342 -62 335 -77 c 0
 328 -92 316 -105 301 -114 c 0
 286 -124 265 -132 240 -138 c 1
 229 -100 l 1
 259 -93 279 -83 289 -72 c 0
 299 -61 304 -42 304 -15 c 2
 304 240 l 2
 304 259 302 274 298 285 c 0
 294 295 284 304 269 311 c 1
 229 286 l 1
 229 286 l 1
 229 287 223 289 212 295 c 0
 200 301 190 307 182 311 c 1
 167 305 157 296 150 283 c 0
 143 270 140 255 140 236 c 1
 143 239 148 242 155 247 c 0
 162 252 171 254 183 254 c 0
 200 254 214 249 224 238 c 0
 233 227 238 215 238 200 c 0
 238 185 233 172 224 161 c 0
 214 150 200 144 183 144 c 0
 166 144 152 149 140 158 c 0
 128 167 119 179 113 194 c 0
 107 209 104 225 104 244 c 0
 104 269 112 291 127 310 c 0
 142 329 160 341 183 346 c 1
 191 342 201 337 212 331 c 0
 223 325 229 322 229 321 c 1
 269 346 l 1
183 227 m 0
 175 227 169 224 164 219 c 0
 159 214 156 207 156 200 c 0
 156 193 158 187 163 182 c 0
 168 176 174 173 183 173 c 0
 192 173 199 176 204 181 c 0
 209 186 211 193 211 200 c 0
 211 208 209 215 204 220 c 0
 199 225 192 227 183 227 c 0
EndSplineSet
EndChar
StartChar: uni0E47
Encoding: 231 3655 199
OldEncoding: 3655
Width: 0
Flags: HW
VStem: -288 248
Fore
-99 398 m 0
 -110 398 -119 400 -126 405 c 0
 -135 410 -144 416 -153 424 c 0
 -163 433 -171 439 -178 443 c 0
 -185 447 -191 449 -198 449 c 0
 -213 448 -223 441 -229 428 c 0
 -235 415 -238 405 -239 396 c 1
 -252 402 -263 414 -273 431 c 0
 -283 448 -288 465 -288 482 c 0
 -288 490 -286 498 -283 507 c 0
 -272 535 -245 549 -201 549 c 0
 -190 549 -181 549 -174 548 c 0
 -158 546 -143 545 -130 545 c 0
 -111 545 -96 548 -87 555 c 0
 -78 561 -73 573 -73 591 c 1
 -40 591 l 1
 -40 564 -48 544 -63 533 c 0
 -79 521 -104 515 -138 515 c 0
 -152 515 -168 516 -185 518 c 1
 -208 518 -226 516 -237 511 c 0
 -249 506 -255 497 -255 484 c 0
 -255 475 -252 464 -246 451 c 1
 -244 456 -239 462 -231 470 c 0
 -224 477 -213 481 -198 481 c 0
 -186 481 -175 478 -166 473 c 0
 -156 467 -149 462 -145 458 c 1
 -142 469 -137 477 -129 483 c 0
 -121 489 -111 492 -99 492 c 0
 -84 492 -73 488 -64 479 c 0
 -56 470 -52 459 -52 446 c 0
 -52 433 -56 421 -64 412 c 0
 -73 403 -84 398 -99 398 c 0
-99 422 m 0
 -92 422 -86 424 -82 429 c 0
 -78 434 -76 440 -76 446 c 0
 -76 453 -78 458 -82 463 c 0
 -86 468 -92 470 -99 470 c 0
 -106 470 -112 468 -116 463 c 0
 -120 458 -122 453 -122 446 c 0
 -122 440 -120 435 -116 430 c 0
 -112 425 -106 422 -99 422 c 0
EndSplineSet
EndChar
StartChar: uni0E48
Encoding: 232 3656 200
OldEncoding: 3656
Width: 0
Flags: HW
VStem: -92 38<619 736>
Fore
-92 619 m 1
 -92 736 l 1
 -54 736 l 1
 -54 619 l 1
 -92 619 l 1
EndSplineSet
EndChar
StartChar: uni0E49
Encoding: 233 3657 201
OldEncoding: 3657
Width: 0
Flags: HW
VStem: -195 218
Fore
-88 681 m 0
 -88 664 -91 650 -96 639 c 0
 -102 628 -107 621 -111 618 c 1
 -83 618 -60 625 -43 640 c 0
 -31 651 -23 663 -20 678 c 0
 -16 693 -14 710 -14 730 c 1
 23 730 l 1
 23 667 2 626 -41 605 c 0
 -62 594 -87 589 -116 589 c 0
 -128 589 -139 590 -148 591 c 0
 -157 593 -164 594 -167 595 c 1
 -163 597 -157 601 -150 607 c 0
 -143 614 -138 623 -135 636 c 1
 -136 636 -137 636 -139 635 c 0
 -142 634 -145 634 -148 634 c 0
 -151 634 -155 635 -161 636 c 0
 -184 643 -195 659 -195 684 c 0
 -195 693 -193 702 -188 709 c 0
 -184 717 -178 723 -170 728 c 0
 -163 732 -154 734 -143 734 c 0
 -126 734 -112 729 -103 718 c 0
 -93 708 -88 696 -88 681 c 0
-143 708 m 0
 -151 708 -157 706 -161 701 c 0
 -165 696 -167 691 -167 684 c 0
 -167 677 -165 672 -161 667 c 0
 -157 662 -151 659 -143 659 c 0
 -136 659 -130 662 -125 667 c 0
 -120 671 -118 677 -118 684 c 0
 -118 691 -120 696 -125 701 c 0
 -129 706 -135 708 -143 708 c 0
EndSplineSet
EndChar
StartChar: uni0E4A
Encoding: 234 3658 202
OldEncoding: 3658
Width: 0
Flags: HW
VStem: -240 237
Fore
-186 598 m 0
 -197 599 -206 602 -215 609 c 0
 -224 616 -230 625 -234 636 c 0
 -238 647 -240 658 -240 669 c 0
 -239 687 -233 702 -224 713 c 0
 -215 724 -202 730 -186 730 c 0
 -179 730 -173 729 -167 727 c 0
 -162 724 -157 722 -154 719 c 0
 -151 716 -149 714 -148 713 c 1
 -146 716 -142 719 -136 724 c 0
 -130 728 -122 730 -113 730 c 0
 -97 730 -85 724 -78 713 c 0
 -71 702 -67 688 -67 669 c 0
 -67 655 -71 641 -79 626 c 1
 -75 628 -69 631 -62 636 c 0
 -54 641 -48 648 -44 655 c 0
 -36 668 -32 681 -32 696 c 0
 -32 704 -33 713 -35 722 c 1
 -6 732 l 1
 -4 726 -3 718 -3 707 c 0
 -3 680 -10 657 -23 638 c 0
 -40 613 -74 601 -123 601 c 1
 -118 608 -112 617 -105 626 c 0
 -99 636 -95 648 -94 663 c 0
 -94 675 -96 685 -99 692 c 0
 -102 699 -109 703 -119 703 c 0
 -126 703 -131 701 -136 696 c 0
 -141 691 -145 687 -146 684 c 1
 -147 687 -151 691 -157 696 c 0
 -163 701 -171 703 -181 703 c 0
 -189 703 -196 700 -201 695 c 0
 -206 689 -208 681 -208 672 c 1
 -207 673 -204 674 -200 676 c 0
 -197 677 -192 678 -186 678 c 0
 -173 678 -164 674 -157 667 c 0
 -150 659 -146 649 -146 636 c 0
 -146 627 -150 618 -158 610 c 0
 -166 602 -175 598 -186 598 c 0
-186 660 m 0
 -193 660 -199 658 -202 653 c 0
 -206 648 -208 643 -208 638 c 0
 -208 632 -206 627 -202 623 c 0
 -199 618 -193 616 -186 616 c 0
 -179 616 -173 618 -169 623 c 0
 -166 626 -164 631 -164 638 c 0
 -164 644 -166 649 -169 654 c 0
 -173 658 -179 660 -186 660 c 0
EndSplineSet
EndChar
StartChar: uni0E4B
Encoding: 235 3659 203
OldEncoding: 3659
Width: 0
Flags: HW
HStem: 650 34<-154 -92 -54 8>
VStem: -92 38<601 650 684 734>
Fore
-92 650 m 1
 -154 650 l 1
 -154 684 l 1
 -92 684 l 1
 -92 734 l 1
 -54 734 l 1
 -54 684 l 1
 8 684 l 1
 8 650 l 1
 -54 650 l 1
 -54 601 l 1
 -92 601 l 1
 -92 650 l 1
EndSplineSet
EndChar
StartChar: uni0E4C
Encoding: 236 3660 204
OldEncoding: 3660
Width: 0
Flags: HW
VStem: -151 186
Fore
-123 631 m 0
 -122 634 -118 639 -113 644 c 0
 -107 649 -98 651 -87 652 c 1
 -73 651 -62 647 -53 638 c 0
 -45 629 -41 619 -41 606 c 0
 -41 594 -45 583 -53 574 c 0
 -61 565 -72 559 -87 559 c 0
 -107 558 -123 565 -134 576 c 0
 -145 587 -151 601 -151 620 c 0
 -151 635 -148 648 -141 660 c 0
 -134 671 -125 680 -112 686 c 0
 -99 691 -82 695 -59 696 c 0
 -36 697 -20 700 -10 704 c 0
 0 707 5 717 5 732 c 1
 35 732 l 1
 35 717 31 706 23 697 c 0
 16 688 7 682 -3 679 c 0
 -15 674 -32 671 -54 670 c 0
 -75 669 -91 666 -102 662 c 0
 -113 657 -120 647 -123 631 c 0
-87 628 m 0
 -101 628 -108 621 -108 607 c 0
 -108 602 -106 597 -102 593 c 0
 -99 588 -94 586 -87 586 c 0
 -81 586 -76 588 -71 592 c 1
 -67 597 -65 602 -65 607 c 0
 -65 613 -67 618 -71 622 c 0
 -75 626 -80 628 -87 628 c 0
EndSplineSet
EndChar
StartChar: uni0E4D
Encoding: 237 3661 205
OldEncoding: 3661
Width: 0
Flags: HW
VStem: -170 123<435.5 452>
Fore
-108 382 m 0
 -127 382 -142 388 -153 401 c 0
 -164 413 -170 427 -170 444 c 0
 -170 460 -164 474 -153 486 c 0
 -142 499 -127 505 -108 505 c 0
 -89 505 -74 499 -63 487 c 0
 -52 475 -47 461 -47 444 c 0
 -47 427 -52 412 -63 400 c 0
 -74 388 -89 382 -108 382 c 0
-108 477 m 0
 -119 477 -127 474 -133 467 c 0
 -139 460 -142 453 -142 444 c 0
 -142 435 -139 427 -133 420 c 0
 -127 413 -119 410 -108 410 c 0
 -97 410 -89 413 -83 420 c 0
 -77 427 -74 435 -74 444 c 0
 -74 449 -75 454 -78 459 c 0
 -81 464 -85 469 -90 472 c 0
 -95 475 -101 477 -108 477 c 0
EndSplineSet
EndChar
StartChar: uni0E4E
Encoding: 238 3662 206
OldEncoding: 3662
Width: 0
VWidth: 2048
Flags: HW
HStem: 414 23<-188 -173> 525 39<-172 -162> 593 34<-73 -55>
VStem: -251 45<476 482>
Fore
-7 566 m 2
 -8 567 l 2
 -12 573 -18 578 -25 584 c 0
 -32 590 -42 593 -55 593 c 2
 -61 593 l 2
 -70 593 -78 589 -85 582 c 0
 -93 576 -99 567 -103 556 c 1
 -105 543 l 1
 -105 538 -104 532 -102 528 c 2
 -96 513 l 1
 -94 508 l 1
 -93 502 l 1
 -93 500 -94 498 -96 496 c 1
 -103 494 l 1
 -107 494 -110 496 -111 500 c 1
 -120 512 -127 520 -134 521 c 0
 -140 524 -149 525 -162 525 c 0
 -170 525 -180 522 -189 516 c 0
 -198 509 -203 500 -206 491 c 1
 -207 478 l 1
 -207 467 -204 458 -199 451 c 0
 -194 443 -187 439 -177 438 c 2
 -173 438 l 2
 -165 438 -158 439 -150 443 c 0
 -143 447 -137 451 -134 456 c 1
 -139 435 l 1
 -150 421 -167 414 -188 414 c 1
 -206 416 l 1
 -221 420 -232 429 -240 441 c 0
 -248 454 -251 467 -251 482 c 0
 -251 496 -249 508 -244 518 c 0
 -236 533 -226 544 -213 552 c 0
 -200 560 -186 564 -172 564 c 0
 -157 564 -144 560 -131 552 c 1
 -132 565 l 1
 -132 571 -131 578 -130 583 c 0
 -129 590 -127 596 -123 602 c 0
 -119 609 -112 615 -101 621 c 0
 -91 625 -82 627 -73 627 c 0
 -59 627 -45 625 -33 619 c 0
 -20 613 -10 604 -3 593 c 1
 3 581 l 2
 6 576 7 571 7 567 c 0
 7 563 5 562 2 562 c 0
 -1 562 -4 563 -7 566 c 2
EndSplineSet
EndChar
StartChar: uni0E4F
Encoding: 239 3663 207
OldEncoding: 3663
Width: 361
VWidth: 2048
Flags: HW
HStem: 0 38<170 183> 84 38<170 175> 263 37<170 170 170 179> 346 38<170 183>
VStem: -21 38<192 204> 63 39<192 196> 238 39<192 196> 325 37<192 204>
Fore
170 263 m 1
 132 263 102 231 102 192 c 0
 102 154 132 122 170 122 c 0
 208 122 238 154 238 192 c 1
 238 231 208 264 170 263 c 1
170 0 m 0
 111 0 64 20 30 58 c 0
 -4 97 -21 142 -21 192 c 0
 -21 245 -4 290 29 328 c 0
 62 366 109 384 170 384 c 0
 210 384 246 375 275 357 c 1
 305 338 326 314 340 286 c 0
 354 257 362 226 362 192 c 0
 362 158 354 127 340 99 c 0
 326 70 305 46 275 27 c 1
 246 9 210 0 170 0 c 0
170 346 m 0
 122 346 84 331 57 301 c 0
 30 271 17 234 17 192 c 0
 17 167 22 142 33 118 c 0
 44 94 62 75 86 61 c 1
 109 45 137 38 170 38 c 0
 203 38 231 45 255 61 c 0
 277 74 295 93 308 117 c 1
 319 142 325 167 325 192 c 0
 325 217 319 242 308 267 c 1
 294 292 277 311 255 325 c 0
 231 339 203 346 170 346 c 0
170 84 m 0
 148 84 128 89 111 100 c 0
 94 111 83 125 75 141 c 0
 67 157 63 175 63 192 c 0
 63 209 67 227 75 244 c 0
 82 260 94 273 111 284 c 0
 129 294 148 300 170 300 c 0
 192 300 211 294 229 284 c 0
 246 274 257 261 265 244 c 0
 273 228 277 210 277 192 c 0
 277 164 268 139 250 117 c 0
 230 95 203 84 170 84 c 0
EndSplineSet
EndChar
StartChar: uni0E50
Encoding: 240 3664 208
OldEncoding: 3664
Width: 354
Flags: HW
HStem: -4 39<161.5 192.5> 207 39<162 192>
VStem: 33 45<109.5 131.5> 276 45<110.5 131.5>
Fore
177 -4 m 0
 132 -4 96 9 71 34 c 0
 46 59 33 88 33 121 c 0
 33 142 39 163 50 182 c 0
 61 201 77 217 99 229 c 0
 121 240 147 246 177 246 c 0
 207 246 233 240 255 229 c 0
 277 217 294 201 305 182 c 0
 316 163 321 142 321 121 c 0
 321 100 315 79 304 60 c 0
 293 41 277 26 255 14 c 0
 234 3 208 -4 177 -4 c 0
177 207 m 0
 146 207 121 199 104 182 c 0
 87 165 78 144 78 121 c 0
 78 98 87 78 104 61 c 0
 121 44 146 35 177 35 c 0
 208 35 233 44 250 61 c 0
 267 78 276 98 276 121 c 0
 276 144 267 165 250 182 c 0
 233 199 208 207 177 207 c 0
EndSplineSet
EndChar
StartChar: uni0E51
Encoding: 241 3665 209
OldEncoding: 3665
Width: 354
Flags: HW
HStem: -25 20 217 37<164.5 177>
VStem: 38 39<125 125> 290 39<95.5 125.5>
Fore
77 125 m 0
 77 106 83 89 96 74 c 0
 109 59 124 52 142 52 c 0
 153 52 165 55 177 62 c 1
 168 62 156 65 141 71 c 0
 126 78 118 91 117 110 c 0
 117 128 123 143 135 154 c 0
 146 165 160 171 177 171 c 0
 198 171 215 165 226 153 c 0
 237 141 242 125 242 106 c 0
 242 89 238 73 229 59 c 0
 221 46 210 35 195 27 c 0
 180 19 163 15 146 15 c 0
 115 15 89 25 70 44 c 0
 51 63 39 90 38 125 c 0
 37 149 45 171 58 190 c 0
 71 210 87 226 108 237 c 0
 129 248 152 254 177 254 c 0
 224 253 261 239 288 214 c 0
 315 188 329 153 329 110 c 0
 329 81 323 56 311 36 c 0
 298 15 280 -5 256 -25 c 1
 231 -4 l 1
 270 29 290 67 290 110 c 0
 290 141 280 167 261 187 c 0
 241 207 213 217 177 217 c 0
 148 217 125 208 106 191 c 0
 88 174 78 152 77 125 c 0
177 144 m 0
 168 144 162 141 157 136 c 0
 152 131 150 124 150 117 c 0
 150 110 152 104 157 99 c 0
 162 93 168 90 177 90 c 0
 186 90 192 93 197 99 c 0
 202 104 204 110 204 117 c 0
 204 124 202 131 197 136 c 0
 192 141 186 144 177 144 c 0
EndSplineSet
EndChar
StartChar: uni0E52
Encoding: 242 3666 210
OldEncoding: 3666
Width: 434
Flags: HW
HStem: 0 38<163 165 165 304>
VStem: 52 42<106 275 275 282.5> 350 42<79 167 167 179>
Fore
121 142 m 0
 121 163 125 181 133 197 c 0
 141 213 152 225 165 233 c 0
 179 242 194 246 209 246 c 0
 226 246 240 242 250 235 c 0
 259 228 266 222 269 217 c 1
 270 222 275 229 284 236 c 0
 292 244 306 248 325 248 c 0
 347 248 364 241 375 226 c 0
 386 211 392 195 392 179 c 2
 392 79 l 2
 392 52 386 32 373 19 c 0
 360 6 337 0 304 0 c 2
 165 0 l 2
 123 0 94 8 77 25 c 0
 60 42 52 69 52 106 c 2
 52 275 l 2
 52 290 50 303 47 313 c 0
 44 323 37 330 27 334 c 1
 62 363 l 1
 83 350 94 327 94 296 c 2
 94 104 l 2
 94 83 99 66 110 55 c 0
 120 44 138 38 163 38 c 2
 304 38 l 2
 322 38 334 41 341 48 c 0
 347 54 350 64 350 79 c 2
 350 167 l 2
 350 196 340 211 319 211 c 0
 305 211 294 206 286 195 c 0
 277 184 272 174 269 167 c 1
 268 170 265 175 260 182 c 0
 255 188 248 194 239 201 c 0
 230 208 221 211 211 211 c 0
 200 211 190 208 182 202 c 0
 174 195 168 188 165 179 c 0
 166 181 169 183 173 185 c 0
 177 187 183 188 190 188 c 0
 202 188 213 185 222 180 c 0
 231 175 237 168 242 159 c 0
 246 150 248 141 248 130 c 0
 248 113 243 99 233 88 c 0
 223 77 209 71 190 71 c 0
 170 71 154 78 141 91 c 0
 128 104 121 121 121 142 c 0
190 158 m 0
 181 158 174 155 169 150 c 0
 164 145 161 138 161 129 c 0
 161 122 164 115 169 109 c 0
 174 103 181 100 190 100 c 0
 199 100 206 103 211 109 c 0
 216 114 219 121 219 129 c 0
 219 137 217 144 212 150 c 0
 207 155 199 158 190 158 c 0
EndSplineSet
EndChar
StartChar: uni0E53
Encoding: 243 3667 211
OldEncoding: 3667
Width: 417
Flags: HW
HStem: -4 20 217 37<128.5 149.5 275.5 295>
VStem: 200 44<0 150> 337 42
Fore
140 217 m 0
 117 217 101 207 93 188 c 0
 85 168 81 143 81 113 c 1
 83 114 87 116 93 119 c 0
 99 122 107 123 117 123 c 0
 136 123 151 117 162 105 c 0
 172 93 177 79 177 62 c 0
 177 45 171 29 159 16 c 0
 148 3 131 -4 110 -4 c 0
 85 -5 67 7 56 30 c 0
 44 53 38 87 38 134 c 0
 38 155 42 175 50 193 c 0
 58 211 70 226 85 237 c 0
 100 248 117 254 138 254 c 0
 163 254 182 248 195 235 c 0
 208 222 216 211 219 202 c 1
 219 207 225 217 237 232 c 0
 248 247 265 254 286 254 c 0
 319 254 342 241 357 216 c 0
 372 190 380 156 379 115 c 0
 378 65 369 27 355 0 c 1
 309 0 l 1
 317 9 324 25 329 48 c 0
 334 71 337 95 337 121 c 0
 337 150 333 173 325 190 c 0
 317 208 304 217 286 217 c 0
 258 217 244 195 244 150 c 2
 244 0 l 1
 200 0 l 1
 200 150 l 2
 200 168 195 184 185 197 c 0
 174 210 159 217 140 217 c 0
115 92 m 0
 106 92 99 89 94 83 c 0
 89 78 86 71 86 63 c 0
 86 55 89 48 94 42 c 0
 100 36 107 33 115 33 c 0
 124 33 132 36 137 42 c 0
 142 47 144 54 144 63 c 0
 144 70 142 77 137 83 c 0
 132 89 125 92 115 92 c 0
EndSplineSet
EndChar
StartChar: uni0E54
Encoding: 244 3668 212
OldEncoding: 3668
Width: 417
Flags: HW
HStem: 0 40<155.5 178.5>
VStem: 38 43<112.5 136.5>
Fore
229 44 m 0
 226 44 211 51 186 65 c 0
 159 79 146 98 146 123 c 0
 146 138 152 152 165 164 c 0
 177 175 192 181 211 181 c 0
 230 181 245 175 255 164 c 0
 266 152 271 138 271 123 c 0
 271 108 267 97 260 90 c 0
 253 83 247 79 242 77 c 1
 257 66 272 59 286 57 c 0
 299 55 314 54 331 51 c 0
 346 49 363 42 382 31 c 1
 365 -4 l 1
 352 7 328 13 292 13 c 0
 279 13 260 11 236 6 c 0
 213 2 190 0 167 0 c 0
 144 0 123 5 104 14 c 0
 84 23 68 37 56 56 c 0
 44 75 38 98 38 127 c 0
 38 150 45 170 58 188 c 0
 71 206 88 220 111 230 c 0
 134 241 161 246 190 246 c 0
 196 246 206 245 221 244 c 0
 246 241 263 240 272 240 c 0
 297 240 318 244 333 253 c 0
 348 262 359 277 366 298 c 0
 373 319 378 349 381 388 c 1
 425 382 l 1
 425 363 421 336 412 303 c 0
 403 270 387 244 365 227 c 0
 344 212 319 204 289 204 c 0
 280 204 268 205 251 207 c 0
 234 208 219 209 204 209 c 0
 169 210 140 201 117 188 c 0
 93 174 81 152 81 121 c 0
 81 67 114 40 181 40 c 0
 198 40 214 41 229 44 c 0
211 150 m 0
 202 150 195 147 190 142 c 0
 185 137 183 130 183 123 c 0
 183 116 185 110 190 104 c 0
 195 99 202 96 211 96 c 0
 220 96 226 99 231 104 c 0
 236 109 238 116 238 123 c 0
 238 131 236 138 231 143 c 0
 226 148 220 150 211 150 c 0
EndSplineSet
EndChar
StartChar: uni0E55
Encoding: 245 3669 213
OldEncoding: 3669
Width: 417
Flags: HW
HStem: 0 40<155.5 178.5>
VStem: 38 43<112.5 131.5>
Fore
273 279 m 0
 273 268 272 260 270 254 c 0
 267 248 265 244 263 241 c 1
 289 241 310 245 326 252 c 0
 342 259 355 274 364 295 c 0
 373 317 379 348 381 388 c 1
 425 382 l 1
 425 363 421 336 412 303 c 0
 403 270 387 244 365 227 c 0
 344 211 318 203 288 203 c 0
 285 203 273 204 253 206 c 0
 234 207 217 208 204 208 c 0
 182 208 162 205 143 200 c 0
 124 194 109 185 98 172 c 0
 87 159 81 142 81 121 c 0
 81 67 114 40 181 40 c 0
 198 40 214 41 229 44 c 0
 226 44 211 51 186 65 c 0
 159 79 146 98 146 123 c 0
 146 138 152 152 165 164 c 0
 177 175 192 181 211 181 c 0
 230 181 245 175 255 164 c 0
 266 152 271 138 271 123 c 0
 271 108 267 97 260 90 c 0
 253 83 247 79 242 77 c 1
 257 66 272 59 286 57 c 0
 299 55 314 54 331 51 c 0
 346 49 363 42 382 31 c 1
 365 -4 l 1
 352 7 328 13 292 13 c 0
 279 13 260 11 236 6 c 0
 213 2 190 0 167 0 c 0
 144 0 123 5 104 14 c 0
 84 23 68 37 56 56 c 0
 44 75 38 98 38 127 c 0
 38 152 45 172 58 189 c 0
 71 206 86 219 105 228 c 0
 124 237 142 242 161 244 c 1
 160 247 158 251 155 258 c 0
 153 265 152 272 152 279 c 0
 152 296 158 310 169 321 c 0
 181 332 196 337 213 337 c 0
 231 336 246 331 257 320 c 0
 268 309 273 296 273 279 c 0
212 303 m 0
 203 303 197 300 192 295 c 0
 187 290 185 283 185 276 c 0
 185 269 187 263 192 257 c 0
 197 252 203 249 212 249 c 0
 217 249 222 250 227 253 c 0
 230 256 233 259 236 263 c 0
 238 267 239 271 239 276 c 0
 239 284 237 291 232 296 c 0
 227 301 221 303 212 303 c 0
211 150 m 0
 202 150 195 147 190 142 c 0
 185 137 183 130 183 123 c 0
 183 116 185 110 190 104 c 0
 195 99 202 96 211 96 c 0
 220 96 226 99 231 104 c 0
 236 109 238 116 238 123 c 0
 238 131 236 138 231 143 c 0
 226 148 220 150 211 150 c 0
EndSplineSet
EndChar
StartChar: uni0E56
Encoding: 246 3670 214
OldEncoding: 3670
Width: 319
Flags: HW
HStem: -4 20
VStem: 13 281
Fore
158 38 m 1
 177 38 194 42 208 51 c 0
 222 59 233 70 240 84 c 0
 247 98 250 114 250 131 c 0
 250 148 246 163 238 176 c 0
 231 189 219 199 204 206 c 0
 189 213 171 217 150 217 c 1
 133 214 117 209 102 202 c 0
 87 194 76 188 69 183 c 1
 68 197 66 212 63 228 c 0
 60 243 55 260 50 278 c 0
 45 295 39 312 32 328 c 0
 25 343 19 356 13 365 c 1
 46 382 l 1
 53 373 63 352 74 319 c 0
 85 287 93 261 98 242 c 1
 128 253 154 259 175 259 c 0
 200 259 221 253 239 242 c 0
 257 231 271 215 280 196 c 0
 289 177 294 155 294 131 c 0
 294 99 287 73 273 53 c 0
 259 32 241 18 220 9 c 0
 199 0 177 -4 154 -4 c 0
 139 -4 123 0 108 7 c 0
 93 14 80 25 70 38 c 0
 59 51 54 66 54 83 c 0
 54 100 60 114 72 125 c 0
 84 136 98 142 115 142 c 0
 134 142 150 136 161 125 c 0
 173 112 177 98 177 81 c 0
 177 68 175 59 170 52 c 0
 165 45 161 41 158 38 c 1
115 109 m 0
 107 109 101 106 96 101 c 0
 91 95 88 89 88 82 c 0
 88 75 90 68 95 63 c 0
 100 57 107 54 115 54 c 0
 124 54 130 57 135 63 c 0
 140 68 142 75 142 82 c 0
 142 89 140 95 135 101 c 0
 130 106 124 109 115 109 c 0
EndSplineSet
EndChar
StartChar: uni0E57
Encoding: 247 3671 215
OldEncoding: 3671
Width: 438
Flags: HW
HStem: -4 242<117.5 133>
VStem: 285 40
Fore
292 42 m 1
 313 46 328 55 339 69 c 0
 350 82 357 99 360 118 c 0
 363 137 365 159 365 185 c 0
 365 192 365 203 365 216 c 0
 364 229 364 241 364 252 c 0
 364 280 366 303 370 322 c 0
 373 341 381 357 392 369 c 1
 425 348 l 1
 408 331 400 298 400 249 c 0
 400 238 400 229 401 220 c 0
 401 211 401 200 401 185 c 0
 401 152 398 124 393 101 c 0
 387 77 376 57 359 40 c 0
 348 29 333 19 315 11 c 0
 297 3 282 -2 271 -4 c 1
 244 25 l 1
 255 38 264 57 273 83 c 0
 281 108 285 130 285 151 c 0
 285 185 273 202 250 202 c 0
 237 202 227 196 220 183 c 0
 213 170 209 157 209 144 c 1
 175 144 l 1
 175 157 171 170 164 183 c 0
 156 196 145 202 131 202 c 0
 114 202 101 194 92 179 c 0
 83 163 79 144 79 123 c 0
 79 108 81 96 84 88 c 1
 86 92 91 97 98 103 c 0
 105 109 115 112 129 112 c 0
 147 112 161 107 171 96 c 0
 180 85 185 71 185 56 c 0
 185 39 180 25 169 14 c 0
 158 2 143 -4 123 -4 c 0
 98 -4 77 10 62 37 c 0
 46 64 38 94 38 127 c 0
 38 157 47 183 65 205 c 0
 82 227 104 238 131 238 c 0
 150 238 165 234 174 225 c 0
 183 216 189 209 192 204 c 1
 194 209 199 216 208 225 c 0
 217 234 231 238 250 238 c 0
 277 238 297 229 308 210 c 0
 319 191 326 168 325 140 c 0
 325 117 320 97 312 80 c 0
 304 62 297 49 292 42 c 1
128 82 m 0
 119 82 113 79 108 74 c 0
 103 68 101 62 101 55 c 0
 101 48 103 41 108 36 c 0
 113 30 119 27 128 27 c 0
 137 27 144 30 149 35 c 0
 154 40 156 47 156 55 c 0
 156 62 154 69 149 74 c 0
 144 79 137 82 128 82 c 0
EndSplineSet
EndChar
StartChar: uni0E58
Encoding: 248 3672 216
OldEncoding: 3672
Width: 417
Flags: HW
HStem: 0 240
VStem: 352 38<295.5 299>
Fore
206 79 m 0
 227 58 242 44 252 37 c 0
 262 30 272 27 282 27 c 0
 295 27 306 31 315 38 c 0
 324 45 329 55 330 69 c 1
 329 66 325 62 319 57 c 0
 313 52 305 50 294 50 c 0
 279 50 265 55 253 65 c 0
 242 75 236 89 236 106 c 0
 236 123 242 137 253 148 c 0
 264 159 278 165 294 165 c 0
 308 165 321 161 332 153 c 0
 343 146 352 135 358 121 c 0
 364 107 367 92 367 77 c 0
 367 51 360 31 345 16 c 0
 330 1 309 -6 284 -6 c 0
 265 -6 248 -1 232 8 c 0
 216 17 196 35 173 62 c 0
 165 72 158 77 152 77 c 0
 143 77 139 68 139 50 c 0
 139 30 144 13 154 0 c 1
 104 0 l 1
 85 19 70 38 57 57 c 0
 44 75 38 99 38 129 c 1
 43 166 58 193 83 212 c 0
 108 231 139 240 178 240 c 0
 193 240 205 239 213 238 c 0
 226 236 237 234 246 233 c 0
 255 232 263 231 271 230 c 0
 280 229 288 229 296 229 c 0
 313 229 325 232 334 237 c 0
 343 243 349 253 350 267 c 0
 351 280 352 291 352 300 c 0
 352 333 349 356 344 369 c 1
 386 369 l 1
 389 362 390 329 390 269 c 0
 390 241 382 221 366 209 c 0
 351 198 329 192 301 192 c 0
 279 192 255 195 229 200 c 0
 210 203 197 204 188 204 c 0
 161 204 139 198 121 189 c 0
 102 179 88 165 81 144 c 0
 79 137 78 130 78 123 c 0
 78 110 81 96 87 81 c 0
 92 66 99 56 106 50 c 1
 106 90 115 113 134 118 c 1
 150 118 164 114 175 107 c 0
 186 100 196 90 206 79 c 0
296 134 m 0
 287 134 281 131 276 125 c 0
 271 120 269 114 269 107 c 0
 269 100 271 93 276 87 c 0
 281 82 287 79 296 79 c 0
 305 79 311 82 316 87 c 0
 321 93 323 99 323 106 c 0
 323 113 321 120 316 125 c 0
 311 131 305 134 296 134 c 0
EndSplineSet
EndChar
StartChar: uni0E59
Encoding: 249 3673 217
OldEncoding: 3673
Width: 379
Flags: HW
HStem: -6 20
VStem: 323 38
Fore
154 -6 m 0
 131 -6 107 3 83 19 c 0
 59 35 44 56 38 83 c 0
 35 98 33 111 33 122 c 0
 33 147 39 170 52 189 c 0
 65 208 84 222 109 231 c 0
 122 236 135 238 147 238 c 0
 167 238 183 234 196 225 c 0
 209 216 218 209 223 204 c 1
 224 230 234 243 252 243 c 0
 264 243 275 239 285 232 c 0
 294 225 301 222 307 222 c 0
 318 222 323 235 323 260 c 0
 323 286 320 311 314 334 c 0
 308 357 304 369 302 369 c 2
 344 369 l 1
 347 363 350 353 354 338 c 0
 357 323 361 305 361 284 c 0
 362 251 358 226 353 209 c 0
 347 192 335 183 317 183 c 0
 309 183 299 187 287 194 c 0
 275 201 267 204 263 204 c 0
 258 203 255 197 255 188 c 0
 255 175 258 164 263 156 c 2
 342 13 l 1
 302 -4 l 1
 217 156 l 2
 210 169 200 180 187 188 c 0
 174 195 160 199 145 199 c 0
 124 199 108 192 94 177 c 0
 80 161 72 142 72 117 c 0
 72 104 75 91 81 79 c 0
 87 66 95 57 104 52 c 0
 103 52 102 59 102 73 c 1
 104 86 110 98 121 107 c 0
 130 116 144 121 161 121 c 0
 178 121 192 116 203 107 c 0
 214 98 221 85 221 69 c 0
 222 45 215 27 203 14 c 0
 191 1 175 -6 154 -6 c 0
161 88 m 0
 152 88 145 85 140 80 c 0
 135 75 133 68 133 61 c 0
 133 54 136 48 141 42 c 0
 146 37 152 34 161 34 c 0
 170 34 176 37 181 42 c 0
 186 47 188 54 188 61 c 0
 188 69 186 76 181 81 c 0
 176 86 170 88 161 88 c 0
EndSplineSet
EndChar
StartChar: uni0E5A
Encoding: 250 3674 218
OldEncoding: 3674
Width: 408
VWidth: 2048
Flags: HW
HStem: -12 35<169 189> 180 37<134 138> 264 31<96 99> 359 30<96 99>
VStem: 20 45<315 327> 128 31<327 332> 228 47<81 241> 328 48<64 322>
Fore
96 359 m 0
 80 360 69 349 65 327 c 1
 65 309 75 298 96 295 c 1
 106 295 114 298 120 304 c 1
 124 311 126 318 128 327 c 1
 128 348 117 359 96 359 c 0
269 366 m 1
 292 380 l 2
 297 384 305 386 313 387 c 1
 336 387 354 379 365 364 c 0
 369 360 372 352 374 341 c 1
 376 322 l 1
 376 82 l 2
 376 38 355 8 315 -7 c 1
 293 -13 l 1
 273 22 l 1
 286 25 l 2
 292 27 297 29 301 32 c 2
 318 46 l 2
 323 52 327 58 328 64 c 1
 328 319 l 2
 328 327 327 333 324 335 c 0
 320 341 312 344 302 344 c 0
 290 344 281 339 275 329 c 1
 275 87 l 2
 275 61 268 38 252 19 c 0
 236 -1 215 -12 189 -12 c 1
 169 23 l 1
 184 23 199 31 214 45 c 0
 223 55 228 69 228 88 c 2
 228 241 l 1
 217 219 205 204 192 195 c 0
 178 185 160 180 136 180 c 0
 98 180 69 193 48 220 c 0
 29 244 20 276 20 315 c 1
 22 335 30 353 45 367 c 0
 60 382 77 389 97 389 c 0
 107 389 116 388 121 385 c 1
 146 379 159 361 159 329 c 0
 159 311 153 295 142 283 c 0
 131 271 116 264 98 264 c 0
 87 264 77 267 68 271 c 1
 71 259 l 1
 77 243 l 1
 81 236 85 230 91 227 c 1
 114 219 l 1
 134 217 l 1
 148 217 161 222 172 231 c 1
 188 249 l 1
 205 278 l 2
 211 289 215 301 218 316 c 1
 222 370 l 1
 224 382 231 388 244 388 c 0
 250 388 255 387 259 384 c 1
 265 375 l 1
 269 366 l 1
EndSplineSet
EndChar
StartChar: uni0E5B
Encoding: 251 3675 219
OldEncoding: 3675
Width: 721
VWidth: 2048
Flags: HW
HStem: 31 35<153 163> 118 34<155 160> 156 29<580 711> 322 35<138 144>
VStem: 19 34<181 203> 89 31<188 196> 143 32<196 202> 209 34<226 250>
DStem: 633 465 651 676 711 133 723 365
Fore
711 186 m 1
 711 159 l 1
 568 156 l 1
 562 157 556 160 550 164 c 1
 539 174 l 1
 534 182 l 1
 527 191 l 1
 493 84 l 1
 462 191 l 1
 425 59 l 1
 389 195 l 1
 364 65 l 1
 347 65 l 1
 309 227 l 1
 302 195 294 169 287 150 c 0
 274 116 263 93 253 80 c 0
 227 47 193 31 153 31 c 0
 111 31 78 48 53 84 c 0
 30 116 19 153 19 196 c 0
 19 236 29 272 48 303 c 0
 70 339 101 357 138 357 c 0
 172 357 198 345 217 321 c 0
 234 299 243 271 243 237 c 0
 243 207 236 181 223 158 c 0
 207 131 185 118 157 118 c 0
 137 118 120 127 106 145 c 1
 95 164 89 181 89 196 c 0
 89 208 93 220 102 231 c 0
 109 243 120 248 132 248 c 0
 144 248 154 243 163 231 c 0
 171 220 175 208 175 196 c 0
 175 177 168 163 155 152 c 1
 168 152 181 160 193 176 c 1
 204 195 209 216 209 238 c 0
 209 294 186 322 138 322 c 0
 112 322 91 307 74 276 c 0
 60 250 53 223 53 195 c 0
 53 163 62 134 78 109 c 0
 97 80 122 66 153 66 c 0
 192 66 223 88 243 134 c 0
 250 150 264 193 283 262 c 1
 302 330 l 1
 318 330 l 1
 353 178 l 1
 378 302 l 1
 395 302 l 1
 426 179 l 1
 460 301 l 1
 494 189 l 1
 519 272 l 1
 547 220 l 2
 558 199 569 188 580 186 c 1
 621 185 l 1
 711 186 l 1
132 217 m 1
 128 214 125 211 124 209 c 1
 120 195 l 1
 120 183 124 176 132 175 c 1
 135 176 138 178 139 180 c 1
 143 196 l 1
 143 201 142 206 140 210 c 0
 138 215 135 217 132 217 c 1
EndSplineSet
EndChar
StartChar: uni0E38.low
Encoding: 252 63256 220
OldEncoding: 63256
Width: 0
Flags: HW
VStem: -94 42<-407 -319 -319 -319>
Fore
-52 -407 m 1
 -94 -407 l 1
 -94 -319 l 1
 -102 -320 -109 -321 -115 -321 c 0
 -134 -321 -148 -315 -159 -303 c 0
 -170 -291 -175 -277 -175 -260 c 0
 -175 -243 -169 -228 -158 -216 c 0
 -147 -204 -132 -198 -113 -198 c 0
 -96 -198 -81 -203 -70 -214 c 0
 -59 -225 -52 -240 -52 -259 c 2
 -52 -407 l 1
-113 -291 m 0
 -104 -291 -96 -288 -90 -282 c 0
 -85 -276 -82 -269 -82 -260 c 0
 -82 -251 -85 -244 -90 -238 c 0
 -96 -232 -104 -229 -113 -229 c 0
 -123 -229 -131 -232 -136 -238 c 0
 -142 -245 -145 -252 -145 -260 c 0
 -145 -268 -142 -275 -136 -281 c 0
 -131 -288 -123 -291 -113 -291 c 0
EndSplineSet
EndChar
StartChar: uni0E39.low
Encoding: 253 63257 221
OldEncoding: 63257
Width: 0
Flags: HW
VStem: -94 42<-356 -202>
Fore
-188 -356 m 2
 -188 -319 l 1
 -196 -320 -203 -321 -208 -321 c 0
 -227 -321 -241 -315 -252 -302 c 0
 -263 -290 -269 -276 -269 -259 c 0
 -269 -242 -263 -228 -252 -216 c 0
 -241 -204 -226 -198 -207 -198 c 0
 -190 -198 -175 -203 -164 -214 c 0
 -153 -225 -146 -240 -146 -259 c 2
 -146 -356 l 2
 -146 -363 -143 -369 -138 -374 c 0
 -133 -379 -127 -381 -120 -382 c 0
 -113 -382 -107 -380 -102 -375 c 0
 -97 -370 -94 -364 -94 -356 c 2
 -94 -202 l 1
 -52 -202 l 1
 -52 -356 l 2
 -52 -374 -59 -388 -72 -399 c 0
 -85 -410 -101 -415 -120 -415 c 0
 -138 -415 -154 -409 -167 -398 c 0
 -181 -387 -188 -373 -188 -356 c 2
-207 -291 m 0
 -197 -291 -189 -288 -184 -281 c 0
 -179 -275 -176 -268 -176 -260 c 0
 -176 -252 -179 -245 -184 -238 c 0
 -189 -232 -197 -229 -207 -229 c 0
 -217 -229 -224 -232 -229 -238 c 0
 -235 -245 -238 -252 -238 -260 c 0
 -238 -268 -235 -275 -229 -282 c 0
 -224 -288 -217 -291 -207 -291 c 0
EndSplineSet
EndChar
StartChar: uni0E3A.low
Encoding: 254 63258 222
OldEncoding: 63258
Width: 0
Flags: HW
VStem: -122 67<-225.5 -216.5>
Fore
-88 -188 m 0
 -78 -188 -70 -191 -64 -197 c 0
 -58 -204 -55 -212 -55 -221 c 0
 -55 -230 -58 -238 -63 -245 c 0
 -69 -251 -77 -254 -88 -254 c 0
 -99 -254 -107 -251 -113 -244 c 0
 -119 -237 -122 -230 -122 -221 c 0
 -122 -212 -119 -205 -113 -198 c 0
 -107 -191 -99 -188 -88 -188 c 0
EndSplineSet
EndChar
StartChar: exclamdown
Encoding: 256 161 223
OldEncoding: 161
Width: 129
VWidth: 2048
Flags: HW
HStem: 303 63<26 95>
VStem: 25 72<-85 14>
Fore
95 366 m 1
 95 303 l 1
 26 303 l 1
 26 366 l 1
 95 366 l 1
81 254 m 1
 97 14 l 1
 97 -85 l 1
 25 -85 l 1
 25 14 l 1
 40 254 l 1
 81 254 l 1
EndSplineSet
EndChar
StartChar: cent
Encoding: 257 162 224
OldEncoding: 162
Width: 308
VWidth: 2048
Flags: HW
HStem: 5 47<148 153>
VStem: -4 59<170 194>
DStem: 164 42 238 19 87 -221 160 -243 340 633 411 619 194 130 264 113 442 995 514 974 367 740 441 717
Fore
201 302 m 1
 129 55 l 1
 148 52 l 1
 198 52 228 81 237 138 c 1
 294 132 l 1
 288 95 272 64 246 41 c 0
 220 17 188 5 149 5 c 0
 137 5 126 6 116 9 c 1
 78 -119 l 1
 42 -108 l 1
 80 21 l 1
 24 49 -4 104 -4 183 c 0
 -4 235 8 277 31 310 c 1
 59 345 98 363 147 363 c 1
 179 361 l 1
 216 486 l 1
 251 476 l 1
 215 350 l 1
 255 334 279 303 288 255 c 1
 231 247 l 1
 226 271 215 290 201 302 c 1
166 309 m 1
 150 310 l 2
 87 312 55 268 55 179 c 0
 55 122 68 83 95 63 c 1
 166 309 l 1
EndSplineSet
EndChar
StartChar: sterling
Encoding: 258 163 225
OldEncoding: 163
Width: 261
VWidth: 2048
Flags: HW
HStem: -2 42<191 198> 19 37<80 88> 166 38<-1 46 84 162> 334 37<134 143>
VStem: 24 47<267 278> 50 46<134 145>
Fore
84 203 m 1
 162 203 l 1
 162 166 l 1
 92 166 l 1
 95 159 97 152 97 145 c 0
 97 112 82 81 53 51 c 1
 66 54 78 56 88 56 c 0
 102 56 118 54 134 49 c 0
 163 42 181 39 191 39 c 0
 203 39 218 43 238 53 c 1
 252 13 l 1
 228 3 208 -2 193 -2 c 1
 171 0 l 1
 141 8 l 1
 108 18 l 1
 85 19 l 1
 59 19 34 12 12 -3 c 1
 -6 39 l 1
 31 61 50 93 50 135 c 1
 46 166 l 1
 -1 166 l 1
 -1 203 l 1
 35 203 l 1
 28 230 24 251 24 268 c 0
 24 299 34 324 56 342 c 0
 76 361 102 371 134 371 c 0
 197 371 233 339 243 277 c 1
 200 270 l 1
 193 313 171 334 134 334 c 0
 117 334 102 328 89 316 c 0
 77 305 71 291 71 273 c 0
 71 256 75 233 84 203 c 1
EndSplineSet
EndChar
StartChar: currency
Encoding: 259 164 226
OldEncoding: 164
Width: 310
VWidth: 2048
Flags: HW
HStem: 46 48<137 146> 249 48<137 154>
VStem: 11 51<172 176> 225 52<172 176>
DStem: -22 576 52 649 68 494 143 564 68 211 143 142 -22 127 52 56 448 142 523 211 538 56 611 127 538 649 611 576 448 564 523 494
Fore
33 241 m 1
 -11 281 l 1
 25 317 l 1
 70 275 l 1
 92 290 117 296 145 296 c 0
 172 296 196 290 219 275 c 1
 263 317 l 1
 298 281 l 1
 255 241 l 1
 270 220 277 197 277 172 c 0
 277 147 270 124 255 103 c 1
 298 62 l 1
 263 27 l 1
 219 69 l 1
 196 54 172 46 145 46 c 0
 116 46 91 54 70 69 c 1
 25 27 l 1
 -11 62 l 1
 33 103 l 1
 19 124 11 147 11 172 c 0
 11 197 19 220 33 241 c 1
62 172 m 0
 62 150 70 132 85 117 c 0
 102 103 121 95 144 95 c 0
 167 95 186 103 202 117 c 0
 217 132 225 150 225 172 c 0
 225 193 217 211 202 226 c 0
 185 241 166 249 144 249 c 0
 121 249 102 241 86 226 c 0
 70 211 62 193 62 172 c 0
EndSplineSet
EndChar
StartChar: yen
Encoding: 260 165 227
OldEncoding: 165
Width: 387
VWidth: 2048
Flags: HW
HStem: 2 10G<153 212> 105 45<16 153 212 348> 194 47<16 153 235 348>
VStem: 153 59<2 105 150 194>
DStem: -10 953 123 953 263 495 320 618
Fore
153 2 m 1
 153 105 l 1
 16 105 l 1
 16 150 l 1
 153 150 l 1
 153 194 l 1
 16 194 l 1
 16 242 l 1
 128 242 l 1
 -5 465 l 1
 60 465 l 1
 156 302 l 1
 181 254 l 1
 208 306 l 1
 298 465 l 1
 369 465 l 1
 235 242 l 1
 348 242 l 1
 348 194 l 1
 212 194 l 1
 212 150 l 1
 348 150 l 1
 348 105 l 1
 212 105 l 1
 212 2 l 1
 153 2 l 1
EndSplineSet
EndChar
StartChar: brokenbar
Encoding: 261 166 228
OldEncoding: 166
Width: 78
VWidth: 2048
Flags: HW
HStem: 363 10G<10 58>
VStem: 10 48<-142 69 162 373>
Fore
58 373 m 1
 58 162 l 1
 10 162 l 1
 10 373 l 1
 58 373 l 1
58 69 m 1
 58 -142 l 1
 10 -142 l 1
 10 69 l 1
 58 69 l 1
EndSplineSet
EndChar
StartChar: section
Encoding: 262 167 229
OldEncoding: 167
Width: 348
VWidth: 2048
Flags: HW
HStem: -110 46<160 177> 419 53<151 163>
VStem: -3 56<210 219> 29 62<366 375> 245 63<-17 -8> 271 59<147 157>
Fore
18 -2 m 1
 81 6 l 1
 91 -41 121 -64 169 -64 c 0
 189 -64 206 -60 220 -51 c 0
 237 -42 245 -29 245 -13 c 0
 245 4 227 24 191 46 c 1
 114 88 l 2
 78 108 52 125 36 138 c 0
 10 160 -3 185 -3 211 c 0
 -3 253 22 282 74 295 c 1
 44 319 29 344 29 369 c 0
 29 398 43 421 69 439 c 0
 94 456 113 466 128 470 c 0
 135 472 144 472 151 472 c 0
 212 472 256 453 282 414 c 2
 282 413 l 2
 292 397 298 380 302 360 c 1
 237 354 l 1
 229 398 204 419 162 419 c 0
 145 419 128 416 114 408 c 1
 99 398 91 386 91 372 c 0
 91 355 107 337 139 316 c 1
 210 277 l 2
 250 256 277 240 291 229 c 0
 317 208 331 184 331 157 c 0
 331 119 305 90 253 71 c 1
 290 48 308 20 308 -11 c 0
 308 -42 293 -67 265 -86 c 0
 239 -102 208 -110 171 -110 c 0
 83 -110 32 -74 18 -2 c 1
220 91 m 1
 254 106 271 125 271 147 c 0
 271 171 240 200 176 233 c 0
 147 249 124 262 105 275 c 1
 70 258 53 238 53 216 c 0
 53 192 82 166 141 135 c 0
 178 117 204 102 220 91 c 1
EndSplineSet
EndChar
StartChar: dieresis
Encoding: 263 168 230
OldEncoding: 168
Width: 210
VWidth: 2048
Flags: HW
HStem: 395 62<-1 67 132 199>
Fore
-1 395 m 1
 -1 457 l 1
 67 457 l 1
 67 395 l 1
 -1 395 l 1
132 395 m 1
 132 457 l 1
 199 457 l 1
 199 395 l 1
 132 395 l 1
EndSplineSet
EndChar
StartChar: copyright
Encoding: 264 169 231
OldEncoding: 169
Width: 390
VWidth: 2048
Flags: HW
HStem: 1 34<183 191> 86 31<175 191> 279 30<181 191> 363 31<183 191>
VStem: -4 30<198 205> 84 34<188 205> 340 31<198 205>
Fore
183 395 m 0
 236 395 281 375 316 337 c 1
 353 300 371 253 371 198 c 0
 371 144 353 98 316 59 c 0
 280 21 235 1 183 1 c 0
 130 1 86 20 50 58 c 0
 14 96 -4 143 -4 198 c 0
 -4 253 13 300 49 338 c 0
 85 376 130 395 183 395 c 0
183 363 m 0
 139 363 102 347 72 315 c 0
 41 283 26 244 26 198 c 0
 26 152 41 113 72 82 c 0
 102 51 139 35 183 35 c 0
 227 35 264 51 294 82 c 0
 325 113 340 152 340 198 c 0
 340 243 325 282 294 314 c 0
 264 347 227 363 183 363 c 0
243 167 m 1
 274 157 l 1
 262 109 231 86 183 86 c 0
 152 86 127 96 110 117 c 0
 93 138 84 165 84 198 c 0
 84 231 93 258 111 278 c 0
 129 299 154 309 186 309 c 0
 229 309 258 289 270 247 c 1
 240 240 l 1
 230 266 211 279 185 279 c 0
 163 279 146 271 134 254 c 0
 124 239 119 220 119 197 c 0
 119 143 140 117 182 117 c 0
 214 117 235 133 243 167 c 1
EndSplineSet
EndChar
StartChar: ordfeminine
Encoding: 265 170 232
OldEncoding: 170
Width: 157
VWidth: 2048
Flags: HW
HStem: 292 27<54 62> 438 27<65 80>
VStem: 1 32<343 348> 107 31<366 410> 110 28<317 339>
Fore
110 317 m 1
 93 301 74 292 54 292 c 0
 19 292 1 309 1 343 c 0
 1 365 12 380 32 388 c 1
 54 393 l 1
 86 397 l 1
 107 403 l 1
 107 426 96 438 73 438 c 0
 51 438 39 428 37 409 c 1
 7 417 l 1
 12 449 35 465 73 465 c 0
 117 465 138 446 138 409 c 2
 138 339 l 1
 138 319 141 304 147 296 c 1
 115 296 l 1
 112 303 110 310 110 317 c 1
107 375 m 1
 64 367 l 1
 43 362 34 354 34 343 c 0
 34 328 43 320 62 320 c 0
 92 320 107 338 107 375 c 1
EndSplineSet
EndChar
StartChar: guillemotleft
Encoding: 266 171 233
OldEncoding: 171
Width: 353
VWidth: 2048
Flags: HW
Fore
82 182 m 1
 179 8 l 1
 125 8 l 1
 4 182 l 1
 125 355 l 1
 180 355 l 1
 82 182 l 1
229 182 m 1
 328 8 l 1
 270 8 l 1
 152 182 l 1
 270 355 l 1
 328 355 l 1
 229 182 l 1
EndSplineSet
EndChar
StartChar: logicalnot
Encoding: 267 172 234
OldEncoding: 172
Width: 261
VWidth: 2048
Flags: HW
HStem: 294 28<2 201>
VStem: 201 42<221 323>
Fore
244 221 m 1
 201 221 l 1
 201 294 l 1
 2 294 l 1
 2 323 l 1
 244 323 l 1
 244 221 l 1
EndSplineSet
EndChar
StartChar: uni00AD
Encoding: 268 173 235
OldEncoding: 173
Width: 132
VWidth: 2048
Flags: HW
HStem: 159 34<5 119>
Fore
5 159 m 1
 5 193 l 1
 119 193 l 1
 119 159 l 1
 5 159 l 1
EndSplineSet
EndChar
StartChar: registered
Encoding: 269 174 236
OldEncoding: 174
Width: 500
VWidth: 2048
Flags: HW
HStem: -11 27<237 251> 105 13<125 136 233 233 374 374> 226 16<202 220> 349 14<129 215> 351 12<129 146> 430 27<237 251>
VStem: 3 27<215 232> 159 43<133 226 135 335> 292 45<300 305> 444 27<223 232>
DStem: 451 462 551 474 633 216 717 260
Fore
471 223 m 0
 471 191 465 162 453 134 c 0
 441 105 425 80 403 58 c 0
 383 38 358 21 327 7 c 0
 299 -5 269 -11 237 -11 c 0
 194 -11 155 0 119 21 c 0
 83 42 55 69 35 105 c 0
 14 143 3 182 3 223 c 0
 3 254 9 285 21 313 c 0
 35 345 52 370 72 389 c 0
 94 411 119 428 148 439 c 0
 175 451 205 457 237 457 c 0
 269 457 299 451 327 439 c 1
 359 425 384 408 403 389 c 0
 422 371 439 345 453 313 c 1
 465 285 471 255 471 223 c 0
444 223 m 0
 444 250 438 277 428 304 c 0
 418 327 403 349 383 369 c 0
 362 390 340 404 317 414 c 0
 291 425 264 430 237 430 c 0
 200 430 166 421 134 403 c 1
 103 383 77 358 59 326 c 0
 40 294 30 260 30 222 c 0
 30 185 40 151 59 121 c 0
 78 89 103 64 134 45 c 0
 165 26 199 17 237 17 c 0
 274 17 309 26 340 45 c 0
 372 63 397 89 417 121 c 1
 435 152 444 186 444 223 c 0
202 226 m 1
 202 138 l 2
 202 125 212 118 233 118 c 1
 233 105 l 1
 125 105 l 1
 125 118 l 1
 148 118 159 124 159 135 c 2
 159 331 l 2
 159 341 158 347 155 349 c 0
 150 351 142 351 129 351 c 1
 129 363 l 1
 242 363 l 2
 265 363 282 361 295 356 c 1
 312 349 324 339 330 330 c 0
 334 322 337 312 337 300 c 0
 337 280 330 263 316 251 c 1
 300 239 285 232 269 231 c 1
 350 127 l 2
 354 121 363 118 374 118 c 1
 374 105 l 1
 309 105 l 1
 220 226 l 1
 202 226 l 1
201 335 m 1
 202 241 l 1
 224 241 240 243 250 246 c 1
 279 257 292 276 292 303 c 0
 292 317 287 328 276 335 c 1
 268 343 259 347 252 347 c 2
 215 349 l 2
 207 349 202 344 201 335 c 1
EndSplineSet
EndChar
StartChar: macron
Encoding: 270 175 237
OldEncoding: 175
Width: 129
VWidth: 2048
Flags: HW
HStem: 437 22<-2 124>
Fore
-2 437 m 1
 -2 459 l 1
 124 459 l 1
 124 437 l 1
 -2 437 l 1
EndSplineSet
EndChar
